<?xml version="1.0" standalone="no"?>
<!DOCTYPE svg PUBLIC "-//W3C//DTD SVG 20010904//EN"
 "http://www.w3.org/TR/2001/REC-SVG-20010904/DTD/svg10.dtd">
<svg version="1.0" xmlns="http://www.w3.org/2000/svg"
 width="78.000000pt" height="66.000000pt" viewBox="0 0 78.000000 66.000000"
 preserveAspectRatio="xMidYMid meet">
<metadata>
Created by potrace 1.15, written by Peter Selinger 2001-2017
</metadata>
<g transform="translate(0.000000,66.000000) scale(0.100000,-0.100000)"
fill="#000000" stroke="none">
<path d="M207 653 c-4 -3 -7 -19 -7 -35 0 -26 -3 -28 -36 -28 -27 0 -37 -5
-41 -20 -4 -16 -14 -20 -45 -20 -80 0 -78 6 -78 -233 0 -152 3 -216 12 -225 8
-8 52 -12 131 -12 117 0 118 0 115 -23 -2 -16 -11 -23 -30 -25 -16 -2 -28 -9
-28 -18 0 -11 23 -14 125 -14 104 0 125 2 125 15 0 10 -10 15 -29 15 -23 0
-30 5 -33 25 l-5 25 114 0 c142 0 153 5 153 70 0 43 3 49 23 52 17 2 23 11 25
35 3 29 7 32 40 35 l37 3 3 193 2 192 -283 0 c-156 0 -287 -3 -290 -7z m-5
-235 l3 -143 233 -3 c197 -2 232 -5 232 -17 0 -13 -36 -15 -255 -15 l-255 0 0
160 c0 153 1 160 20 160 18 0 20 -8 22 -142z m158 32 l0 -100 -40 0 -40 0 0
100 0 100 40 0 40 0 0 -100z m180 0 l0 -100 -45 0 -45 0 0 100 0 100 45 0 45
0 0 -100z m170 0 l0 -100 -45 0 -45 0 0 100 0 100 45 0 45 0 0 -100z m-590
-103 c0 -82 4 -127 12 -135 9 -9 74 -12 230 -12 l218 0 0 -25 0 -25 -255 0
-255 0 0 160 0 160 25 0 25 0 0 -123z"/>
</g>
</svg>
