<?xml version="1.0" encoding="utf-8"?>
<!-- Generator: Adobe Illustrator 21.1.0, SVG Export Plug-In . SVG Version: 6.00 Build 0)  -->
<svg version="1.1" id="Layer_1" xmlns="http://www.w3.org/2000/svg" xmlns:xlink="http://www.w3.org/1999/xlink" x="0px" y="0px"
	 viewBox="0 0 258 254" style="enable-background:new 0 0 258 254;" xml:space="preserve">
<style type="text/css">
	.st0{enable-background:new    ;}
	.st1{fill:url(#SVGID_1_);}
	.st2{fill:#1F196F;}
	.st3{fill:url(#SVGID_2_);}
	.st4{fill:url(#SVGID_3_);}
	.st5{fill:url(#SVGID_4_);}
	.st6{fill:url(#SVGID_5_);}
	.st7{opacity:0.36;fill:url(#SVGID_6_);enable-background:new    ;}
	.st8{fill:url(#SVGID_7_);}
	.st9{fill:url(#SVGID_8_);}
	.st10{fill:url(#SVGID_9_);}
	.st11{fill:url(#SVGID_10_);}
	.st12{fill:url(#SVGID_11_);}
	.st13{fill:url(#SVGID_12_);}
	.st14{fill:url(#SVGID_13_);}
	.st15{fill:url(#SVGID_14_);}
	.st16{fill:url(#SVGID_15_);}
	.st17{fill:url(#SVGID_16_);}
	.st18{fill:url(#SVGID_17_);}
	.st19{fill:url(#SVGID_18_);}
	.st20{fill:url(#SVGID_19_);}
	.st21{fill:url(#SVGID_20_);}
	.st22{fill:url(#SVGID_21_);}
	.st23{fill:url(#SVGID_22_);}
	.st24{fill:url(#SVGID_23_);}
	.st25{fill:url(#SVGID_24_);}
	.st26{fill:url(#SVGID_25_);}
	.st27{fill:url(#SVGID_26_);}
	.st28{fill:url(#SVGID_27_);}
	.st29{fill:url(#SVGID_28_);}
	.st30{fill:url(#SVGID_29_);}
	.st31{fill:url(#SVGID_30_);}
	.st32{fill:url(#SVGID_31_);}
	.st33{fill:url(#SVGID_32_);}
	.st34{fill:url(#SVGID_33_);}
	.st35{opacity:0.5;}
	.st36{fill:#FFFFFF;}
	.st37{opacity:0.36;fill:url(#SVGID_34_);enable-background:new    ;}
	.st38{fill:url(#SVGID_35_);}
	.st39{fill:url(#SVGID_36_);}
	.st40{fill:#FFDE83;}
	.st41{fill:#63BAE0;}
	.st42{fill:#00E7FF;}
	.st43{fill:#F0810F;}
	.st44{fill:url(#SVGID_37_);}
	.st45{fill:url(#SVGID_38_);}
	.st46{fill:url(#SVGID_39_);}
	.st47{fill:url(#SVGID_40_);}
	.st48{opacity:0.44;}
	.st49{fill:url(#SVGID_41_);}
	.st50{fill:url(#SVGID_42_);}
	.st51{fill:url(#SVGID_43_);}
	.st52{fill:url(#SVGID_44_);}
	.st53{fill:url(#SVGID_45_);}
	.st54{fill:url(#SVGID_46_);}
	.st55{fill:url(#SVGID_47_);}
	.st56{fill:#7F7DFC;}
	.st57{fill:url(#SVGID_48_);}
	.st58{fill:url(#SVGID_49_);}
	.st59{fill:url(#SVGID_50_);}
	.st60{fill:url(#SVGID_51_);}
	.st61{opacity:0.2;fill:#9FA8DA;enable-background:new    ;}
	.st62{opacity:0.5;fill:#9FA8DA;enable-background:new    ;}
	.st63{opacity:0.81;fill:#9FA8DA;enable-background:new    ;}
	.st64{fill:#FAFAFA;}
	.st65{fill:url(#SVGID_52_);}
	.st66{fill:url(#SVGID_53_);}
	.st67{fill:#F6CBBA;}
	.st68{fill:#D800CE;}
	.st69{fill:url(#SVGID_54_);}
	.st70{fill:#EA00C9;}
</style>
<g id="OBJECTS">
	<g>
		<g>
			<g>
				<g>
					<g>
						<g class="st0">
							<g>
								
									<linearGradient id="SVGID_1_" gradientUnits="userSpaceOnUse" x1="165.0469" y1="48.5475" x2="165.0693" y2="48.5475" gradientTransform="matrix(1 0 0 -1 0 240)">
									<stop  offset="0" style="stop-color:#6A67EA"/>
									<stop  offset="1" style="stop-color:#342B94"/>
								</linearGradient>
								<polygon class="st1" points="165.1,190.1 165.1,188.9 165,192.8 165.1,194 								"/>
								<path class="st2" d="M153.7,197.3l1.5,0.8c0.3,0.2,0.5,0.4,0.6,0.7c0,0.1,0,0.2,0,0.3l0,0l0,0l0-3.9c0-0.3-0.2-0.7-0.7-0.9
									l-1.5-0.8c-0.5-0.3-0.7-0.6-0.7-0.9l0,3.9C153,196.6,153.2,197,153.7,197.3z"/>
								<path class="st2" d="M181.6,198.8c0-0.1,0.1-0.1,0.1-0.2c0,0,0,0,0,0c0-0.1,0.1-0.1,0.2-0.2c0,0,0.1-0.1,0.2-0.1
									c0,0,0.1-0.1,0.1-0.1l1.4-0.8c0,0,0,0,0,0c0,0,0.1-0.1,0.1-0.1c0.1,0,0.1-0.1,0.2-0.1c0,0,0,0,0,0c0.1,0,0.1-0.1,0.1-0.2
									c0,0,0,0,0,0s0,0,0,0c0,0,0,0,0-0.1c0,0,0-0.1,0.1-0.1c0,0,0,0,0,0c0,0,0,0,0,0c0,0,0-0.1,0-0.1c0,0,0-0.1,0-0.1
									c0,0,0,0,0,0l0-3.9c0,0.1,0,0.2,0,0.2c0,0,0,0,0,0c0,0.1-0.1,0.1-0.1,0.2c0,0,0,0,0,0c-0.1,0.1-0.1,0.1-0.2,0.2
									c0,0-0.1,0.1-0.2,0.1c0,0-0.1,0.1-0.1,0.1l-1.4,0.8c0,0,0,0,0,0c0,0-0.1,0.1-0.1,0.1c-0.1,0-0.1,0.1-0.2,0.1c0,0,0,0,0,0
									c-0.1,0-0.1,0.1-0.1,0.2c0,0,0,0,0,0s0,0,0,0c0,0,0,0,0,0.1c0,0,0,0.1-0.1,0.1c0,0,0,0,0,0c0,0,0,0,0,0c0,0,0,0.1,0,0.1
									c0,0,0,0.1,0,0.1c0,0,0,0,0,0l0,3.9C181.5,198.9,181.6,198.9,181.6,198.8C181.6,198.8,181.6,198.8,181.6,198.8z"/>
								<path class="st2" d="M188.6,200.1C188.6,200.1,188.6,200.1,188.6,200.1c0,0.1-0.1,0.2-0.1,0.2c0,0,0,0,0,0
									c-0.1,0.1-0.1,0.1-0.2,0.2c-0.1,0-0.1,0.1-0.2,0.1c0,0-0.1,0-0.1,0.1c-0.1,0.1-0.3,0.2-0.5,0.2c-0.1,0-0.1,0-0.2,0.1
									c-0.1,0-0.2,0-0.2,0.1c-0.1,0-0.2,0-0.3,0c0,0-0.1,0-0.1,0c-0.1,0-0.3,0-0.4,0h-2c0,0-0.1,0-0.1,0c-0.1,0-0.2,0-0.3,0
									c-0.1,0-0.2,0-0.3,0c0,0,0,0,0,0c0,0,0,0,0,0c-0.1,0-0.3,0.1-0.4,0.1c0,0-0.1,0-0.1,0c-0.1,0-0.2,0.1-0.3,0.1
									c-0.1,0-0.1,0-0.2,0.1c0,0-0.1,0.1-0.1,0.1s-0.1,0-0.1,0.1c0,0-0.1,0-0.1,0.1l0,0l0,0l0,0c-0.1,0.1-0.1,0.1-0.1,0.2
									c0,0,0,0.1-0.1,0.1c-0.1,0.2-0.2,0.3-0.3,0.5c0,0-0.1,0.1-0.1,0.1c0,0,0,0.1-0.1,0.1c0,0,0,0,0,0c0,0,0,0,0,0
									c0,0,0,0.1,0,0.1c0,0,0,0.1,0,0.1c0,0,0,0,0,0l0,3.9c0-0.1,0-0.2,0-0.3c0,0,0,0,0,0c0-0.1,0.1-0.2,0.1-0.3
									c0.1-0.1,0.2-0.3,0.3-0.5c0.1-0.1,0.2-0.2,0.3-0.3c0,0,0.1-0.1,0.1-0.1c0.1-0.1,0.2-0.1,0.3-0.2c0.1,0,0.2-0.1,0.3-0.1
									c0.1-0.1,0.3-0.1,0.5-0.1c0,0,0,0,0,0c0.2,0,0.5-0.1,0.7-0.1h2c0,0,0.1,0,0.1,0c0.1,0,0.2,0,0.3,0c0,0,0,0,0,0
									c0,0,0.1,0,0.1,0c0.1,0,0.1,0,0.2,0c0,0,0.1,0,0.1,0c0.1,0,0.2,0,0.2-0.1c0,0,0.1,0,0.1,0c0,0,0,0,0.1,0
									c0.2-0.1,0.3-0.1,0.5-0.2c0,0,0,0,0,0c0,0,0.1,0,0.1-0.1c0.1,0,0.1-0.1,0.2-0.1c0,0,0,0,0,0c0.1,0,0.1-0.1,0.1-0.2
									c0,0,0,0,0,0c0,0,0,0,0,0c0,0,0-0.1,0.1-0.1c0,0,0-0.1,0.1-0.1c0,0,0,0,0,0c0,0,0,0,0,0c0,0,0-0.1,0-0.1c0,0,0-0.1,0-0.1
									c0,0,0,0,0,0l0-3.9C188.6,200,188.6,200,188.6,200.1z"/>
								
									<linearGradient id="SVGID_2_" gradientUnits="userSpaceOnUse" x1="182.344" y1="38.166" x2="182.344" y2="38.166" gradientTransform="matrix(1 0 0 -1 0 240)">
									<stop  offset="0" style="stop-color:#6A67EA"/>
									<stop  offset="1" style="stop-color:#342B94"/>
								</linearGradient>
								<path class="st3" d="M182.3,201.8L182.3,201.8L182.3,201.8z"/>
								<path class="st2" d="M153.6,205.1C153.6,205.1,153.6,205.1,153.6,205.1c0.2,0,0.3,0,0.4,0.1c0,0,0,0,0.1,0
									c0.1,0,0.2,0.1,0.3,0.1c0,0,0,0,0,0c0.1,0,0.2,0.1,0.3,0.2c0.2,0.1,0.4,0.3,0.5,0.5c0.1,0.2,0.2,0.3,0.3,0.5
									c0.1,0.2,0.2,0.4,0.2,0.6l0-3.9c0-0.2-0.1-0.4-0.2-0.6c-0.1-0.1-0.2-0.3-0.3-0.5c-0.1-0.2-0.3-0.4-0.5-0.5
									c-0.1-0.1-0.2-0.1-0.3-0.2c0,0,0,0,0,0c0,0,0,0,0,0c-0.1,0-0.2-0.1-0.3-0.1c0,0-0.1,0-0.1,0c0,0,0,0-0.1,0c0,0-0.1,0-0.1,0
									c-0.1,0-0.1,0-0.2,0c0,0,0,0-0.1,0c0,0,0,0-0.1,0c0,0-0.1,0-0.1,0c-0.1,0-0.1,0-0.2,0c0,0-0.1,0-0.1,0h-2
									c-0.1,0-0.3,0-0.4,0c0,0,0,0-0.1,0c-0.1,0-0.3,0-0.4-0.1c0,0,0,0-0.1,0c-0.1,0-0.2-0.1-0.3-0.1c0,0,0,0,0,0
									c-0.1,0-0.2-0.1-0.3-0.2c-0.2-0.1-0.4-0.3-0.5-0.4c-0.1-0.2-0.2-0.3-0.2-0.5l0,3.9c0,0.4,0.3,0.7,0.7,0.9
									c0.1,0.1,0.2,0.1,0.3,0.2c0,0,0,0,0,0c0,0,0,0,0,0c0.1,0,0.2,0.1,0.3,0.1c0,0,0.1,0,0.1,0c0,0,0,0,0.1,0c0,0,0.1,0,0.1,0
									c0.1,0,0.2,0,0.2,0c0,0,0,0,0.1,0c0,0,0,0,0.1,0c0,0,0.1,0,0.1,0c0.1,0,0.1,0,0.2,0c0,0,0.1,0,0.1,0h2
									C153.3,205.1,153.4,205.1,153.6,205.1z"/>
								<path class="st2" d="M184.4,206.1c0,0.1-0.1,0.1-0.1,0.2c0,0,0,0,0,0c-0.1,0.1-0.1,0.1-0.2,0.2c0,0-0.1,0.1-0.2,0.1
									c0,0-0.1,0.1-0.1,0.1l-1.8,1.1c-0.2,0.1-0.5,0.2-0.7,0.3c0,0-0.1,0-0.1,0c-0.3,0.1-0.5,0.1-0.8,0.1c0,0,0,0,0,0
									c-0.3,0-0.6,0-0.8-0.1c0,0,0,0,0,0c-0.3-0.1-0.5-0.2-0.7-0.3l-1.5-0.8c-0.1-0.1-0.2-0.1-0.3-0.2c-0.1,0-0.1-0.1-0.2-0.1
									c0,0,0,0,0,0c0,0,0,0,0,0c-0.1,0-0.2,0-0.2-0.1c-0.1,0-0.2,0-0.2,0c0,0-0.1,0-0.1,0c0,0,0,0,0,0c0,0,0,0-0.1,0
									c-0.1,0-0.2,0-0.2,0c-0.1,0-0.2,0-0.2,0c0,0-0.1,0-0.1,0c0,0,0,0,0,0c0,0-0.1,0-0.1,0c-0.1,0-0.2,0-0.3,0
									c-0.1,0-0.2,0-0.3,0.1c-0.3,0.1-0.5,0.1-0.8,0.2c-0.1,0-0.2,0.1-0.3,0.1c0,0,0,0,0,0c-0.2,0.1-0.4,0.1-0.5,0.2c0,0,0,0,0,0
									c0,0,0,0,0,0c-0.1,0.1-0.2,0.1-0.3,0.2c0,0,0,0,0,0c0,0,0,0-0.1,0.1c0,0,0,0-0.1,0.1c0,0,0,0,0,0c0,0-0.1,0.1-0.1,0.1
									c0,0,0,0,0,0c0,0,0,0,0,0c0,0,0,0.1,0,0.1c0,0,0,0,0,0.1c0,0,0,0,0,0c0,0,0,0,0,0c0,0,0,0.1,0,0.1c0,0,0,0,0,0l0,1.2
									c0,0.1,0,0.1,0,0.2c0,0,0,0,0,0c0,0.1-0.1,0.2-0.1,0.2c0,0,0,0,0,0c-0.1,0.1-0.1,0.1-0.2,0.2c-0.1,0-0.1,0.1-0.2,0.1
									c0,0-0.1,0-0.1,0.1c-0.1,0.1-0.3,0.1-0.5,0.2c-0.1,0-0.1,0-0.2,0.1c-0.1,0-0.1,0-0.2,0.1c-0.1,0-0.2,0-0.3,0
									c0,0-0.1,0-0.1,0c-0.1,0-0.3,0-0.4,0h-2.6c-0.1,0-0.3,0-0.4,0c0,0,0,0-0.1,0c-0.1,0-0.3,0-0.4-0.1c0,0,0,0-0.1,0
									c-0.1,0-0.2-0.1-0.3-0.1c0,0,0,0,0,0c-0.1,0-0.2-0.1-0.3-0.2c-0.3-0.2-0.5-0.4-0.6-0.7c0-0.1,0-0.2,0-0.3l0-1.2
									c0-0.4-0.3-0.7-0.7-0.9c-0.1-0.1-0.2-0.1-0.3-0.2c0,0,0,0,0,0c0,0,0,0-0.1,0c-0.1,0-0.1,0-0.2-0.1c-0.1,0-0.1,0-0.2-0.1
									c-0.3-0.1-0.5-0.1-0.8-0.2c-0.1,0-0.1,0-0.2,0c-0.1,0-0.2,0-0.2,0c-0.1,0-0.2,0-0.2,0c0,0,0,0,0,0c0,0,0,0,0,0
									c-0.1,0-0.1,0-0.2,0c-0.1,0-0.2,0-0.2,0c-0.1,0-0.2,0-0.3,0c0,0,0,0,0,0c0,0,0,0,0,0c-0.1,0-0.2,0-0.3,0
									c-0.1,0-0.2,0-0.3,0.1c0,0-0.1,0-0.1,0c0,0,0,0,0,0c-0.2,0.1-0.3,0.1-0.5,0.2l-1.4,0.8c-0.2,0.1-0.4,0.2-0.7,0.3
									c0,0-0.1,0-0.1,0c-0.3,0.1-0.5,0.1-0.8,0.1c0,0,0,0,0,0c-0.3,0-0.6,0-0.8-0.1c0,0,0,0,0,0c-0.3-0.1-0.5-0.2-0.7-0.3
									l-1.8-1.1c-0.2-0.1-0.4-0.3-0.5-0.4s-0.2-0.3-0.2-0.5l0,3.9c0,0.3,0.2,0.7,0.7,1l1.8,1.1c0.1,0.1,0.2,0.1,0.3,0.2
									c0.1,0,0.2,0.1,0.3,0.1c0,0,0.1,0,0.1,0c0,0,0,0,0,0c0,0,0,0,0.1,0c0.1,0,0.2,0,0.2,0c0.1,0,0.1,0,0.2,0c0.1,0,0.2,0,0.2,0
									c0,0,0.1,0,0.1,0c0,0,0,0,0,0c0,0,0.1,0,0.1,0c0.1,0,0.2,0,0.3,0c0.1,0,0.2,0,0.3,0c0,0,0.1,0,0.1,0c0,0,0.1,0,0.1,0
									c0.1,0,0.1,0,0.2,0c0.2-0.1,0.4-0.1,0.5-0.2l1.4-0.8c0.2-0.1,0.3-0.2,0.5-0.2c0,0,0.1,0,0.1,0c0.2,0,0.4-0.1,0.6-0.1
									c0,0,0,0,0,0c0.2,0,0.4,0,0.7,0c0,0,0,0,0,0c0.2,0,0.5,0.1,0.7,0.1c0.3,0.1,0.5,0.1,0.8,0.2c0.1,0,0.3,0.1,0.4,0.1
									c0,0,0,0,0.1,0c0.1,0.1,0.3,0.1,0.4,0.2c0.3,0.2,0.5,0.4,0.6,0.7c0,0.1,0,0.2,0,0.3v0v0l0,1.2c0,0.4,0.3,0.7,0.7,0.9
									c0.1,0.1,0.2,0.1,0.3,0.2c0,0,0,0,0,0c0,0,0,0,0,0c0.1,0,0.2,0.1,0.3,0.1c0,0,0.1,0,0.1,0c0,0,0,0,0.1,0c0,0,0.1,0,0.1,0
									c0.1,0,0.1,0,0.2,0c0,0,0,0,0.1,0c0,0,0,0,0.1,0c0,0,0.1,0,0.1,0c0.1,0,0.2,0,0.2,0c0,0,0.1,0,0.1,0h2.6c0,0,0.1,0,0.1,0
									c0.1,0,0.2,0,0.3,0c0,0,0,0,0,0c0,0,0.1,0,0.1,0c0.1,0,0.1,0,0.2,0c0,0,0.1,0,0.1,0c0.1,0,0.2,0,0.2-0.1c0,0,0.1,0,0.1,0
									c0,0,0,0,0.1,0c0.2-0.1,0.3-0.1,0.5-0.2c0,0,0,0,0,0c0,0,0.1,0,0.1-0.1c0.1,0,0.1-0.1,0.2-0.1c0,0,0,0,0,0
									c0.1,0,0.1-0.1,0.1-0.2c0,0,0,0,0,0c0,0,0,0,0,0c0,0,0-0.1,0.1-0.1c0,0,0-0.1,0.1-0.1c0,0,0,0,0,0c0,0,0,0,0,0
									c0,0,0-0.1,0-0.1c0,0,0-0.1,0-0.1c0,0,0,0,0,0l0,0l0-1.2c0,0,0-0.1,0-0.1c0,0,0,0,0,0c0-0.1,0-0.1,0.1-0.2c0,0,0,0,0,0
									c0-0.1,0.1-0.1,0.1-0.2c0,0,0,0,0.1-0.1c0,0,0.1-0.1,0.1-0.1c0.1-0.1,0.2-0.1,0.3-0.2c0,0,0,0,0,0c0.2-0.1,0.3-0.2,0.5-0.2
									c0.1,0,0.2-0.1,0.3-0.1c0.3-0.1,0.5-0.1,0.8-0.2c0.2-0.1,0.4-0.1,0.7-0.1c0,0,0,0,0,0c0.2,0,0.4,0,0.6,0c0,0,0,0,0,0
									c0.2,0,0.4,0.1,0.6,0.1c0,0,0,0,0,0c0.2,0.1,0.4,0.1,0.6,0.2l1.5,0.8c0.1,0.1,0.2,0.1,0.3,0.2c0.1,0,0.2,0.1,0.3,0.1
									c0,0,0.1,0,0.1,0c0,0,0,0,0,0c0,0,0,0,0.1,0c0.1,0,0.2,0,0.2,0c0.1,0,0.1,0,0.2,0c0.1,0,0.2,0,0.2,0c0,0,0.1,0,0.1,0
									c0,0,0,0,0,0c0,0,0.1,0,0.1,0c0.1,0,0.2,0,0.3,0c0.1,0,0.2,0,0.3,0c0,0,0.1,0,0.1,0c0,0,0.1,0,0.1,0c0.1,0,0.1,0,0.2,0
									c0.2-0.1,0.4-0.1,0.5-0.2l1.8-1.1c0,0,0,0,0,0c0,0,0.1-0.1,0.1-0.1c0.1,0,0.1-0.1,0.2-0.1c0,0,0,0,0,0
									c0.1,0,0.1-0.1,0.1-0.2c0,0,0,0,0,0s0,0,0,0c0,0,0,0,0-0.1c0,0,0-0.1,0.1-0.1c0,0,0,0,0,0c0,0,0,0,0,0c0,0,0-0.1,0-0.1
									c0,0,0-0.1,0-0.1c0,0,0,0,0,0l0-3.9C184.4,205.9,184.4,206,184.4,206.1C184.4,206.1,184.4,206.1,184.4,206.1z"/>
							</g>
							<path class="st2" d="M174,196c-0.3-0.2-0.7-0.4-1.1-0.5c0,0,0,0-0.1,0c-0.1,0-0.1,0-0.2-0.1c-0.2-0.1-0.4-0.2-0.7-0.2
								c-0.1,0-0.3-0.1-0.4-0.1c-0.1,0-0.1,0-0.2-0.1c-0.1,0-0.1,0-0.2,0c-0.2-0.1-0.5-0.1-0.8-0.1c-0.1,0-0.2,0-0.3,0
								c-0.1,0-0.1,0-0.2,0c-0.1,0-0.2,0-0.3,0c-0.2,0-0.5,0-0.7,0c-0.1,0-0.2,0-0.2,0c-0.1,0-0.1,0-0.2,0c-0.1,0-0.2,0-0.3,0
								c-0.3,0-0.6,0-0.8,0.1c0,0-0.1,0-0.1,0c-0.1,0-0.1,0-0.2,0c-0.2,0-0.4,0.1-0.6,0.1c-0.1,0-0.2,0-0.3,0.1
								c-0.3,0.1-0.5,0.1-0.8,0.2c-0.1,0-0.3,0.1-0.4,0.1c-0.1,0-0.2,0.1-0.3,0.1c-0.1,0-0.2,0.1-0.3,0.1c-0.4,0.1-0.7,0.3-1.1,0.5
								c0,0-0.1,0-0.1,0.1c-0.1,0-0.1,0.1-0.2,0.1c-0.1,0.1-0.2,0.1-0.3,0.2c-0.1,0.1-0.1,0.1-0.2,0.2c-0.1,0.1-0.2,0.1-0.2,0.2
								c0,0,0,0,0,0c0,0,0,0.1-0.1,0.1c-0.1,0.1-0.2,0.2-0.3,0.3c0,0,0,0-0.1,0.1c0,0,0,0.1-0.1,0.1c-0.1,0.1-0.1,0.2-0.2,0.3
								c0,0-0.1,0.1-0.1,0.1c0,0,0,0,0,0.1c0,0.1-0.1,0.2-0.1,0.2c0,0,0,0.1-0.1,0.1c0,0,0,0,0,0c0,0.1,0,0.2-0.1,0.2
								c0,0.1,0,0.1,0,0.2c0,0,0,0,0,0c0,0.1,0,0.2,0,0.2c0,0.1,0,0.1,0,0.2c0,0,0,0,0,0.1l0,3.9c0-0.1,0-0.1,0-0.2
								c0-0.1,0-0.2,0-0.2c0-0.1,0-0.1,0-0.2c0-0.1,0-0.2,0.1-0.2c0-0.1,0.1-0.1,0.1-0.2c0-0.1,0.1-0.2,0.1-0.2
								c0-0.1,0.1-0.1,0.1-0.2c0.1-0.1,0.1-0.2,0.2-0.3c0-0.1,0.1-0.1,0.1-0.2c0.1-0.1,0.2-0.2,0.3-0.3c0,0,0.1-0.1,0.1-0.1
								c0.1-0.1,0.2-0.1,0.2-0.2c0.1-0.1,0.1-0.1,0.2-0.2c0.1-0.1,0.2-0.1,0.3-0.2c0.1-0.1,0.2-0.1,0.3-0.2c0.3-0.2,0.7-0.4,1.1-0.5
								c0.1,0,0.2-0.1,0.3-0.1c0.2-0.1,0.5-0.1,0.7-0.2c0.3-0.1,0.5-0.1,0.8-0.2c0.3-0.1,0.6-0.1,0.9-0.2c0.1,0,0.1,0,0.2,0
								c0.4,0,0.8-0.1,1.3-0.1c0.1,0,0.1,0,0.2,0c0.4,0,0.8,0,1.3,0.1c0.1,0,0.1,0,0.2,0c0.4,0,0.8,0.1,1.2,0.2c0.1,0,0.1,0,0.2,0.1
								c0.4,0.1,0.7,0.2,1,0.3c0.1,0,0.1,0,0.2,0.1c0.4,0.2,0.8,0.3,1.2,0.5c1.3,0.8,2,1.7,2.2,2.7c0,0.1,0,0.3,0,0.4l0-3.9
								C176.3,198,175.5,196.9,174,196z"/>
							<g>
								
									<linearGradient id="SVGID_3_" gradientUnits="userSpaceOnUse" x1="148.7627" y1="38.9345" x2="148.7813" y2="38.9345" gradientTransform="matrix(1 0 0 -1 0 240)">
									<stop  offset="0" style="stop-color:#6A67EA"/>
									<stop  offset="1" style="stop-color:#342B94"/>
								</linearGradient>
								<polygon class="st4" points="148.8,199.9 148.8,203.7 148.8,202.3 148.8,198.4 								"/>
							</g>
							<path class="st2" d="M173,199.6C173,199.6,173,199.6,173,199.6c-0.1,0.2-0.1,0.3-0.2,0.5c0,0,0,0,0,0.1
								c-0.1,0.1-0.2,0.3-0.3,0.4c-0.1,0.1-0.2,0.2-0.3,0.2c-0.1,0.1-0.2,0.1-0.3,0.2c-0.3,0.2-0.6,0.3-0.9,0.4
								c-0.1,0-0.2,0.1-0.3,0.1c-0.1,0-0.3,0.1-0.4,0.1c-0.2,0-0.4,0.1-0.5,0.1c0,0-0.1,0-0.1,0c-0.2,0-0.5,0-0.7,0c0,0-0.1,0-0.1,0
								c-0.2,0-0.5,0-0.7,0c0,0-0.1,0-0.1,0c-0.2,0-0.5-0.1-0.7-0.1c0,0-0.1,0-0.1,0c-0.2-0.1-0.4-0.1-0.6-0.2c0,0-0.1,0-0.1,0
								c-0.2-0.1-0.5-0.2-0.7-0.3c-0.9-0.5-1.3-1.1-1.3-1.8l0,3.9c0,0.6,0.4,1.3,1.3,1.8c0.2,0.1,0.4,0.2,0.6,0.3c0,0,0,0,0,0
								c0,0,0.1,0,0.1,0c0.1,0,0.3,0.1,0.4,0.1c0.1,0,0.1,0,0.2,0.1c0,0,0.1,0,0.1,0c0,0,0.1,0,0.1,0c0.1,0,0.3,0.1,0.4,0.1
								c0.1,0,0.1,0,0.2,0c0,0,0.1,0,0.1,0c0.1,0,0.1,0,0.2,0c0.1,0,0.3,0,0.4,0c0,0,0.1,0,0.1,0c0,0,0.1,0,0.1,0c0.1,0,0.1,0,0.2,0
								c0.2,0,0.3,0,0.5,0c0,0,0,0,0.1,0c0,0,0.1,0,0.1,0c0.1,0,0.3,0,0.4-0.1c0.1,0,0.1,0,0.2,0c0.1,0,0.3-0.1,0.4-0.1
								c0.1,0,0.2,0,0.2-0.1c0,0,0.1,0,0.1,0c0.3-0.1,0.6-0.2,0.9-0.4c0,0,0,0,0.1,0c0.1,0,0.1-0.1,0.2-0.2c0.1-0.1,0.2-0.1,0.3-0.2
								c0,0,0,0,0,0c0.1-0.1,0.2-0.2,0.3-0.3c0,0,0,0,0-0.1c0,0,0,0,0-0.1c0,0,0.1-0.1,0.1-0.1c0-0.1,0.1-0.2,0.1-0.2c0,0,0,0,0,0
								c0,0,0,0,0,0c0-0.1,0-0.1,0-0.2c0-0.1,0-0.2,0-0.3c0,0,0,0,0,0l0-3.9C173.1,199.3,173,199.4,173,199.6z"/>
							<g>
								<g>
									
										<linearGradient id="SVGID_4_" gradientUnits="userSpaceOnUse" x1="164.345" y1="40.8721" x2="173.0642" y2="40.8721" gradientTransform="matrix(1 0 0 -1 0 240)">
										<stop  offset="0" style="stop-color:#6A67EA"/>
										<stop  offset="1" style="stop-color:#342B94"/>
									</linearGradient>
									<path class="st5" d="M171.8,197.3c1.7,1,1.7,2.6,0,3.6c-1.7,1-4.5,1-6.2,0c-1.7-1-1.7-2.6,0-3.6
										C167.3,196.4,170.1,196.4,171.8,197.3z"/>
								</g>
								<g>
									
										<linearGradient id="SVGID_5_" gradientUnits="userSpaceOnUse" x1="148.7709" y1="40.874" x2="188.635" y2="40.874" gradientTransform="matrix(1 0 0 -1 0 240)">
										<stop  offset="0" style="stop-color:#6A67EA"/>
										<stop  offset="1" style="stop-color:#342B94"/>
									</linearGradient>
									<path class="st6" d="M183.7,204.9c0.9,0.5,0.9,1.4,0,1.9l-1.8,1.1c-0.9,0.5-2.4,0.5-3.3,0l-1.5-0.8
										c-0.7-0.4-1.7-0.5-2.6-0.3c-0.3,0.1-0.5,0.1-0.8,0.2c-0.9,0.2-1.5,0.7-1.5,1.3l0,1.2c0,0.7-1,1.3-2.3,1.3h-2.6
										c-0.6,0-1.2-0.1-1.6-0.4c-0.4-0.2-0.7-0.6-0.7-0.9l0-1.2c0-0.4-0.3-0.7-0.7-0.9c-0.2-0.1-0.5-0.2-0.8-0.3
										c-0.3-0.1-0.5-0.1-0.8-0.2c-0.9-0.2-1.9-0.1-2.6,0.3l-1.4,0.8c-0.9,0.5-2.3,0.5-3.3,0l-1.8-1.1c-0.9-0.5-0.9-1.4,0-1.9
										l1.4-0.8c0.7-0.4,0.9-1,0.5-1.5c-0.1-0.1-0.2-0.3-0.3-0.5c-0.1-0.2-0.3-0.4-0.5-0.5c-0.4-0.2-1-0.4-1.6-0.4h-2
										c-0.6,0-1.2-0.1-1.6-0.4s-0.7-0.6-0.7-0.9l0-1.5c0-0.7,1-1.3,2.3-1.3h2.1c1,0,1.8-0.4,2.2-0.9c0.1-0.2,0.2-0.3,0.3-0.5
										c0.4-0.5,0.2-1.1-0.5-1.5l-1.5-0.8c-0.9-0.5-0.9-1.4,0-1.9l1.8-1.1c0.9-0.5,2.4-0.5,3.3,0l1.5,0.8c0.7,0.4,1.7,0.5,2.6,0.3
										c0.3-0.1,0.5-0.1,0.8-0.2c0.9-0.2,1.5-0.7,1.5-1.3l0-1.2c0-0.7,1-1.3,2.3-1.3h2.6c0.6,0,1.2,0.1,1.6,0.4
										c0.4,0.2,0.7,0.6,0.7,0.9l0,1.2c0,0.4,0.3,0.7,0.7,0.9c0.2,0.1,0.5,0.2,0.8,0.3c0.3,0.1,0.5,0.1,0.8,0.2
										c0.9,0.2,1.9,0.1,2.6-0.3l1.4-0.8c0.9-0.5,2.4-0.5,3.3,0l1.8,1.1c0.9,0.5,0.9,1.4,0,1.9l-1.4,0.8c-0.7,0.4-0.9,1-0.5,1.5
										c0.1,0.2,0.2,0.3,0.3,0.5c0.1,0.2,0.3,0.4,0.5,0.5c0.4,0.2,1,0.4,1.6,0.4h2.1c0.6,0,1.2,0.1,1.6,0.4
										c0.4,0.2,0.7,0.6,0.7,0.9l0,1.5c0,0.7-1,1.3-2.3,1.3h-2c-1,0-1.8,0.4-2.2,0.9c-0.1,0.2-0.2,0.3-0.3,0.5
										c-0.4,0.5-0.2,1.1,0.5,1.5L183.7,204.9z M163.4,202.2c3,1.7,7.8,1.7,10.7,0c2.9-1.7,2.9-4.5,0-6.2c-3-1.7-7.8-1.7-10.7,0
										C160.4,197.7,160.4,200.5,163.4,202.2"/>
								</g>
							</g>
						</g>
					</g>
					
						<linearGradient id="SVGID_6_" gradientUnits="userSpaceOnUse" x1="168.7368" y1="35.7881" x2="168.7368" y2="68.4214" gradientTransform="matrix(1 0 0 -1 0 240)">
						<stop  offset="0" style="stop-color:#6AE5EA"/>
						<stop  offset="1" style="stop-color:#7C4DFF;stop-opacity:0"/>
					</linearGradient>
					<path class="st7" d="M176.3,171.1c0.1-1.2-0.7-2.4-2.2-3.2c-3-1.7-7.8-1.7-10.7,0c-1.5,0.9-2.2,2-2.2,3.1h0v28h0
						c0,1.2,0.7,2.3,2.2,3.2c3,1.7,7.8,1.7,10.7,0c1.5-0.9,2.3-2.1,2.2-3.2V171.1z"/>
				</g>
				<g>
					<g>
						<g>
							<g class="st0">
								<g>
									
										<linearGradient id="SVGID_7_" gradientUnits="userSpaceOnUse" x1="51.3633" y1="61.403" x2="51.3779" y2="61.403" gradientTransform="matrix(1 0 0 -1 0 240)">
										<stop  offset="0" style="stop-color:#ACB1D7"/>
										<stop  offset="1" style="stop-color:#D0D4F9"/>
									</linearGradient>
									<polygon class="st8" points="51.4,177.7 51.4,176.9 51.4,179.5 51.4,180.3 									"/>
									<path class="st2" d="M43.9,182.4l1,0.6c0.2,0.1,0.4,0.3,0.4,0.5c0,0.1,0,0.1,0,0.2l0,0l0,0l0-2.6c0-0.2-0.2-0.5-0.4-0.6
										l-1-0.6c-0.3-0.2-0.4-0.4-0.4-0.6l0,2.6C43.4,182,43.6,182.2,43.9,182.4z"/>
									<path class="st2" d="M62.3,183.4c0,0,0-0.1,0.1-0.1c0,0,0,0,0,0c0,0,0.1-0.1,0.1-0.1c0,0,0.1-0.1,0.1-0.1
										c0,0,0.1,0,0.1-0.1l1-0.6c0,0,0,0,0,0c0,0,0,0,0.1-0.1c0,0,0.1-0.1,0.1-0.1c0,0,0,0,0,0c0,0,0.1-0.1,0.1-0.1c0,0,0,0,0,0
										c0,0,0,0,0,0c0,0,0,0,0,0c0,0,0-0.1,0-0.1c0,0,0,0,0,0c0,0,0,0,0,0c0,0,0,0,0-0.1c0,0,0-0.1,0-0.1c0,0,0,0,0,0l0-2.6
										c0,0.1,0,0.1,0,0.2c0,0,0,0,0,0c0,0,0,0.1-0.1,0.1c0,0,0,0,0,0c0,0-0.1,0.1-0.1,0.1c0,0-0.1,0.1-0.1,0.1c0,0-0.1,0-0.1,0.1
										l-1,0.6c0,0,0,0,0,0c0,0,0,0-0.1,0.1c0,0-0.1,0-0.1,0.1c0,0,0,0,0,0c0,0-0.1,0.1-0.1,0.1c0,0,0,0,0,0c0,0,0,0,0,0
										c0,0,0,0,0,0c0,0,0,0.1,0,0.1c0,0,0,0,0,0c0,0,0,0,0,0c0,0,0,0,0,0.1c0,0,0,0.1,0,0.1c0,0,0,0,0,0l0,2.6
										C62.2,183.5,62.2,183.5,62.3,183.4C62.3,183.4,62.3,183.4,62.3,183.4z"/>
									<path class="st2" d="M66.9,184.3C66.9,184.3,66.9,184.3,66.9,184.3c0,0.1,0,0.1-0.1,0.2c0,0,0,0,0,0c0,0-0.1,0.1-0.1,0.1
										c0,0-0.1,0.1-0.1,0.1c0,0,0,0-0.1,0c-0.1,0.1-0.2,0.1-0.3,0.1c0,0-0.1,0-0.1,0c0,0-0.1,0-0.2,0c-0.1,0-0.1,0-0.2,0
										c0,0,0,0-0.1,0c-0.1,0-0.2,0-0.3,0H64c0,0-0.1,0-0.1,0c-0.1,0-0.1,0-0.2,0c-0.1,0-0.1,0-0.2,0c0,0,0,0,0,0c0,0,0,0,0,0
										c-0.1,0-0.2,0-0.2,0.1c0,0,0,0-0.1,0c-0.1,0-0.1,0.1-0.2,0.1c0,0-0.1,0-0.1,0.1c0,0,0,0-0.1,0c0,0,0,0-0.1,0c0,0,0,0-0.1,0
										v0l0,0v0c0,0-0.1,0.1-0.1,0.1c0,0,0,0,0,0.1c-0.1,0.1-0.1,0.2-0.2,0.3c0,0,0,0.1-0.1,0.1c0,0,0,0.1,0,0.1c0,0,0,0,0,0
										s0,0,0,0c0,0,0,0.1,0,0.1c0,0,0,0.1,0,0.1c0,0,0,0,0,0l0,2.6c0-0.1,0-0.1,0-0.2c0,0,0,0,0,0c0-0.1,0.1-0.1,0.1-0.2
										c0.1-0.1,0.1-0.2,0.2-0.3c0-0.1,0.1-0.1,0.2-0.2c0,0,0,0,0.1,0c0.1,0,0.1-0.1,0.2-0.1c0.1,0,0.1-0.1,0.2-0.1
										c0.1,0,0.2-0.1,0.3-0.1c0,0,0,0,0,0c0.1,0,0.3,0,0.5,0h1.4c0,0,0.1,0,0.1,0c0.1,0,0.1,0,0.2,0c0,0,0,0,0,0c0,0,0,0,0.1,0
										c0,0,0.1,0,0.1,0c0,0,0,0,0.1,0c0.1,0,0.1,0,0.2,0c0,0,0,0,0.1,0c0,0,0,0,0,0c0.1,0,0.2-0.1,0.3-0.1c0,0,0,0,0,0
										c0,0,0,0,0.1,0c0,0,0.1-0.1,0.1-0.1c0,0,0,0,0,0c0,0,0.1-0.1,0.1-0.1c0,0,0,0,0,0c0,0,0,0,0,0c0,0,0,0,0-0.1
										c0,0,0-0.1,0-0.1c0,0,0,0,0,0c0,0,0,0,0,0c0,0,0,0,0-0.1c0,0,0-0.1,0-0.1c0,0,0,0,0,0l0-2.6
										C66.9,184.2,66.9,184.3,66.9,184.3z"/>
									
										<linearGradient id="SVGID_8_" gradientUnits="userSpaceOnUse" x1="62.751" y1="54.568" x2="62.751" y2="54.568" gradientTransform="matrix(1 0 0 -1 0 240)">
										<stop  offset="0" style="stop-color:#ACB1D7"/>
										<stop  offset="1" style="stop-color:#D0D4F9"/>
									</linearGradient>
									<path class="st9" d="M62.8,185.4L62.8,185.4L62.8,185.4z"/>
									<path class="st2" d="M43.8,187.6C43.8,187.6,43.8,187.6,43.8,187.6c0.1,0,0.2,0,0.3,0c0,0,0,0,0,0c0.1,0,0.2,0,0.2,0.1
										c0,0,0,0,0,0c0.1,0,0.2,0.1,0.2,0.1c0.2,0.1,0.3,0.2,0.4,0.3c0.1,0.1,0.1,0.2,0.2,0.3c0.1,0.1,0.1,0.2,0.1,0.4l0-2.6
										c0-0.1,0-0.3-0.1-0.4c-0.1-0.1-0.1-0.2-0.2-0.3c-0.1-0.1-0.2-0.2-0.4-0.3c-0.1,0-0.1-0.1-0.2-0.1c0,0,0,0,0,0c0,0,0,0,0,0
										c-0.1,0-0.1,0-0.2-0.1c0,0,0,0-0.1,0c0,0,0,0,0,0c0,0,0,0-0.1,0c0,0-0.1,0-0.1,0c0,0,0,0,0,0c0,0,0,0,0,0c0,0,0,0-0.1,0
										c0,0-0.1,0-0.1,0c0,0,0,0-0.1,0h-1.4c-0.1,0-0.2,0-0.3,0c0,0,0,0,0,0c-0.1,0-0.2,0-0.2,0c0,0,0,0,0,0c-0.1,0-0.2,0-0.2-0.1
										c0,0,0,0,0,0c-0.1,0-0.2-0.1-0.2-0.1c-0.1-0.1-0.3-0.2-0.3-0.3c-0.1-0.1-0.1-0.2-0.1-0.3l0,2.6c0,0.2,0.2,0.5,0.4,0.6
										c0.1,0,0.1,0.1,0.2,0.1c0,0,0,0,0,0c0,0,0,0,0,0c0.1,0,0.1,0,0.2,0.1c0,0,0,0,0.1,0c0,0,0,0,0,0c0,0,0,0,0.1,0
										c0,0,0.1,0,0.1,0c0,0,0,0,0,0c0,0,0,0,0,0c0,0,0,0,0.1,0c0,0,0.1,0,0.1,0c0,0,0,0,0.1,0h1.4
										C43.6,187.6,43.7,187.6,43.8,187.6z"/>
									<path class="st2" d="M64.1,188.2c0,0,0,0.1-0.1,0.1c0,0,0,0,0,0c0,0-0.1,0.1-0.1,0.1c0,0-0.1,0.1-0.1,0.1
										c0,0-0.1,0-0.1,0.1l-1.2,0.7c-0.1,0.1-0.3,0.1-0.5,0.2c0,0,0,0-0.1,0c-0.2,0-0.3,0.1-0.5,0.1c0,0,0,0,0,0
										c-0.2,0-0.4,0-0.5-0.1c0,0,0,0,0,0c-0.2,0-0.3-0.1-0.5-0.2l-1-0.6c-0.1,0-0.1-0.1-0.2-0.1c0,0-0.1,0-0.1,0c0,0,0,0,0,0
										c0,0,0,0,0,0c-0.1,0-0.1,0-0.2,0c0,0-0.1,0-0.1,0c0,0-0.1,0-0.1,0c0,0,0,0,0,0c0,0,0,0,0,0c-0.1,0-0.1,0-0.2,0
										c-0.1,0-0.1,0-0.2,0c0,0-0.1,0-0.1,0c0,0,0,0,0,0c0,0,0,0-0.1,0c-0.1,0-0.1,0-0.2,0c-0.1,0-0.1,0-0.2,0
										c-0.2,0-0.3,0.1-0.5,0.1c-0.1,0-0.1,0-0.2,0.1c0,0,0,0,0,0c-0.1,0-0.3,0.1-0.4,0.2c0,0,0,0,0,0c0,0,0,0,0,0
										c-0.1,0-0.1,0.1-0.2,0.1c0,0,0,0,0,0c0,0,0,0,0,0c0,0,0,0,0,0c0,0,0,0,0,0c0,0,0,0.1-0.1,0.1c0,0,0,0,0,0c0,0,0,0,0,0
										c0,0,0,0,0,0.1c0,0,0,0,0,0c0,0,0,0,0,0c0,0,0,0,0,0c0,0,0,0.1,0,0.1c0,0,0,0,0,0l0,0.8c0,0,0,0.1,0,0.1c0,0,0,0,0,0
										c0,0.1,0,0.1-0.1,0.1c0,0,0,0,0,0c0,0-0.1,0.1-0.1,0.1c0,0-0.1,0.1-0.1,0.1c0,0,0,0-0.1,0c-0.1,0.1-0.2,0.1-0.3,0.1
										c0,0-0.1,0-0.1,0c0,0-0.1,0-0.1,0c-0.1,0-0.1,0-0.2,0c0,0,0,0-0.1,0c-0.1,0-0.2,0-0.3,0H53c-0.1,0-0.2,0-0.3,0c0,0,0,0,0,0
										c-0.1,0-0.2,0-0.2,0c0,0,0,0,0,0c-0.1,0-0.2,0-0.2-0.1c0,0,0,0,0,0c-0.1,0-0.2-0.1-0.2-0.1c-0.2-0.1-0.4-0.3-0.4-0.4
										c0-0.1,0-0.1,0-0.2l0-0.8c0-0.2-0.2-0.5-0.4-0.6c-0.1,0-0.1-0.1-0.2-0.1c0,0,0,0,0,0c0,0,0,0,0,0c0,0-0.1,0-0.1,0
										c0,0-0.1,0-0.1,0c-0.2,0-0.3-0.1-0.5-0.1c0,0-0.1,0-0.1,0c-0.1,0-0.1,0-0.2,0c0,0-0.1,0-0.1,0c0,0,0,0,0,0c0,0,0,0,0,0
										c0,0-0.1,0-0.1,0c-0.1,0-0.1,0-0.2,0c-0.1,0-0.1,0-0.2,0c0,0,0,0,0,0c0,0,0,0,0,0c-0.1,0-0.1,0-0.2,0c-0.1,0-0.1,0-0.2,0
										c0,0,0,0-0.1,0c0,0,0,0,0,0c-0.1,0-0.2,0.1-0.3,0.1l-1,0.6c-0.1,0.1-0.3,0.1-0.5,0.2c0,0,0,0-0.1,0c-0.2,0-0.3,0.1-0.5,0.1
										c0,0,0,0,0,0c-0.2,0-0.4,0-0.5-0.1c0,0,0,0,0,0c-0.2,0-0.3-0.1-0.5-0.2l-1.2-0.7c-0.1-0.1-0.3-0.2-0.3-0.3
										c-0.1-0.1-0.1-0.2-0.1-0.3l0,2.6c0,0.2,0.1,0.5,0.4,0.6l1.2,0.7c0.1,0,0.1,0.1,0.2,0.1c0.1,0,0.1,0,0.2,0.1
										c0,0,0.1,0,0.1,0c0,0,0,0,0,0c0,0,0,0,0,0c0,0,0.1,0,0.1,0c0,0,0.1,0,0.1,0c0,0,0.1,0,0.1,0c0,0,0,0,0.1,0c0,0,0,0,0,0
										c0,0,0.1,0,0.1,0c0.1,0,0.1,0,0.2,0c0.1,0,0.1,0,0.2,0c0,0,0.1,0,0.1,0c0,0,0,0,0.1,0c0,0,0.1,0,0.1,0
										c0.1,0,0.2-0.1,0.3-0.1l1-0.6c0.1-0.1,0.2-0.1,0.4-0.2c0,0,0,0,0.1,0c0.1,0,0.2-0.1,0.4-0.1c0,0,0,0,0,0c0.1,0,0.3,0,0.4,0
										c0,0,0,0,0,0c0.1,0,0.3,0,0.4,0.1c0.2,0,0.3,0.1,0.5,0.1c0.1,0,0.2,0,0.3,0.1c0,0,0,0,0,0c0.1,0,0.2,0.1,0.2,0.1
										c0.2,0.1,0.4,0.3,0.4,0.4c0,0.1,0,0.1,0,0.2l0,0l0,0l0,0.8c0,0.2,0.2,0.5,0.4,0.6c0.1,0,0.1,0.1,0.2,0.1c0,0,0,0,0,0
										c0,0,0,0,0,0c0.1,0,0.1,0,0.2,0.1c0,0,0,0,0.1,0c0,0,0,0,0,0c0,0,0,0,0.1,0c0,0,0.1,0,0.1,0c0,0,0,0,0,0c0,0,0,0,0,0
										c0,0,0,0,0.1,0c0,0,0.1,0,0.1,0c0,0,0,0,0.1,0h1.7c0,0,0.1,0,0.1,0c0.1,0,0.1,0,0.2,0c0,0,0,0,0,0c0,0,0,0,0.1,0
										c0,0,0.1,0,0.1,0c0,0,0,0,0.1,0c0.1,0,0.1,0,0.1,0c0,0,0,0,0.1,0c0,0,0,0,0,0c0.1,0,0.2-0.1,0.3-0.1c0,0,0,0,0,0
										c0,0,0,0,0.1,0c0,0,0.1-0.1,0.1-0.1c0,0,0,0,0,0c0,0,0.1-0.1,0.1-0.1c0,0,0,0,0,0c0,0,0,0,0,0c0,0,0,0,0-0.1
										c0,0,0-0.1,0-0.1c0,0,0,0,0,0c0,0,0,0,0,0c0,0,0,0,0-0.1c0,0,0-0.1,0-0.1c0,0,0,0,0,0l0,0l0-0.8c0,0,0-0.1,0-0.1
										c0,0,0,0,0,0c0,0,0-0.1,0-0.1c0,0,0,0,0,0c0,0,0-0.1,0.1-0.1c0,0,0,0,0,0c0,0,0,0,0.1-0.1c0.1,0,0.1-0.1,0.2-0.1
										c0,0,0,0,0,0c0.1-0.1,0.2-0.1,0.4-0.2c0.1,0,0.1,0,0.2-0.1c0.2,0,0.3-0.1,0.5-0.1c0.1,0,0.3-0.1,0.4-0.1c0,0,0,0,0,0
										c0.1,0,0.3,0,0.4,0c0,0,0,0,0,0c0.1,0,0.3,0,0.4,0.1c0,0,0,0,0,0c0.1,0,0.3,0.1,0.4,0.2l1,0.6c0.1,0,0.1,0.1,0.2,0.1
										c0.1,0,0.1,0,0.2,0.1c0,0,0.1,0,0.1,0c0,0,0,0,0,0c0,0,0,0,0,0c0,0,0.1,0,0.1,0c0,0,0.1,0,0.1,0s0.1,0,0.1,0c0,0,0,0,0.1,0
										c0,0,0,0,0,0c0,0,0.1,0,0.1,0c0.1,0,0.1,0,0.2,0c0.1,0,0.1,0,0.2,0c0,0,0.1,0,0.1,0c0,0,0,0,0.1,0c0,0,0.1,0,0.1,0
										c0.1,0,0.2-0.1,0.3-0.1l1.2-0.7c0,0,0,0,0,0c0,0,0.1,0,0.1-0.1c0,0,0.1-0.1,0.1-0.1c0,0,0,0,0,0c0,0,0.1-0.1,0.1-0.1
										c0,0,0,0,0,0s0,0,0,0c0,0,0,0,0,0c0,0,0-0.1,0-0.1c0,0,0,0,0,0c0,0,0,0,0,0c0,0,0,0,0-0.1c0,0,0-0.1,0-0.1c0,0,0,0,0,0
										l0-2.6C64.1,188.1,64.1,188.2,64.1,188.2C64.1,188.2,64.1,188.2,64.1,188.2z"/>
								</g>
								<path class="st2" d="M57.3,181.6c-0.2-0.1-0.5-0.2-0.7-0.3c0,0,0,0,0,0c0,0-0.1,0-0.1,0c-0.1-0.1-0.3-0.1-0.4-0.1
									c-0.1,0-0.2,0-0.2-0.1c0,0-0.1,0-0.1,0c0,0-0.1,0-0.1,0c-0.2,0-0.3-0.1-0.5-0.1c-0.1,0-0.1,0-0.2,0c0,0-0.1,0-0.1,0
									c-0.1,0-0.1,0-0.2,0c-0.2,0-0.3,0-0.5,0c-0.1,0-0.1,0-0.2,0c0,0-0.1,0-0.1,0c-0.1,0-0.1,0-0.2,0c-0.2,0-0.4,0-0.6,0
									c0,0,0,0-0.1,0c0,0-0.1,0-0.1,0c-0.1,0-0.3,0-0.4,0.1c-0.1,0-0.1,0-0.2,0c-0.2,0-0.3,0.1-0.5,0.1c-0.1,0-0.2,0-0.3,0.1
									c-0.1,0-0.1,0.1-0.2,0.1c-0.1,0-0.1,0-0.2,0.1c-0.2,0.1-0.5,0.2-0.7,0.3c0,0,0,0-0.1,0c0,0-0.1,0.1-0.1,0.1
									c-0.1,0-0.1,0.1-0.2,0.1c0,0-0.1,0.1-0.1,0.1c-0.1,0-0.1,0.1-0.2,0.1c0,0,0,0,0,0c0,0,0,0-0.1,0.1c-0.1,0.1-0.1,0.1-0.2,0.2
									c0,0,0,0,0,0c0,0,0,0,0,0.1c0,0.1-0.1,0.1-0.1,0.2c0,0,0,0,0,0.1c0,0,0,0,0,0c0,0.1,0,0.1-0.1,0.2c0,0,0,0.1,0,0.1
									c0,0,0,0,0,0c0,0,0,0.1,0,0.1c0,0,0,0.1,0,0.1c0,0,0,0,0,0c0,0.1,0,0.1,0,0.2c0,0,0,0.1,0,0.1c0,0,0,0,0,0l0,2.6
									c0,0,0-0.1,0-0.1c0-0.1,0-0.1,0-0.2c0,0,0-0.1,0-0.1c0,0,0-0.1,0-0.1c0,0,0-0.1,0.1-0.1c0-0.1,0-0.1,0.1-0.2
									c0,0,0-0.1,0.1-0.1c0-0.1,0.1-0.1,0.1-0.2c0,0,0.1-0.1,0.1-0.1c0.1-0.1,0.1-0.2,0.2-0.2c0,0,0.1-0.1,0.1-0.1
									c0,0,0.1-0.1,0.2-0.1c0,0,0.1-0.1,0.1-0.1c0.1,0,0.1-0.1,0.2-0.1c0.1,0,0.1-0.1,0.2-0.1c0.2-0.1,0.5-0.2,0.7-0.3
									c0.1,0,0.1,0,0.2-0.1c0.2-0.1,0.3-0.1,0.5-0.1c0.2,0,0.3-0.1,0.5-0.1c0.2,0,0.4-0.1,0.6-0.1c0,0,0.1,0,0.1,0
									c0.3,0,0.6,0,0.8,0c0,0,0.1,0,0.1,0c0.3,0,0.6,0,0.8,0c0,0,0.1,0,0.1,0c0.3,0,0.5,0.1,0.8,0.1c0,0,0.1,0,0.1,0
									c0.2,0.1,0.5,0.1,0.7,0.2c0,0,0.1,0,0.1,0c0.3,0.1,0.5,0.2,0.8,0.4c0.9,0.5,1.3,1.1,1.5,1.8c0,0.1,0,0.2,0,0.3l0-2.6
									C58.8,182.9,58.3,182.2,57.3,181.6z"/>
								<g>
									
										<linearGradient id="SVGID_9_" gradientUnits="userSpaceOnUse" x1="40.6406" y1="55.074" x2="40.6533" y2="55.074" gradientTransform="matrix(1 0 0 -1 0 240)">
										<stop  offset="0" style="stop-color:#ACB1D7"/>
										<stop  offset="1" style="stop-color:#D0D4F9"/>
									</linearGradient>
									<polygon class="st10" points="40.7,184.1 40.6,186.7 40.6,185.7 40.6,183.2 									"/>
								</g>
								<path class="st2" d="M56.6,184C56.6,184,56.6,184,56.6,184c0,0.1-0.1,0.2-0.1,0.3c0,0,0,0,0,0c-0.1,0.1-0.1,0.2-0.2,0.3
									c-0.1,0.1-0.1,0.1-0.2,0.1c-0.1,0-0.1,0.1-0.2,0.1c-0.2,0.1-0.4,0.2-0.6,0.2c-0.1,0-0.1,0-0.2,0.1c-0.1,0-0.2,0.1-0.3,0.1
									c-0.1,0-0.2,0-0.4,0.1c0,0-0.1,0-0.1,0c-0.2,0-0.3,0-0.5,0c0,0-0.1,0-0.1,0c-0.2,0-0.3,0-0.5,0c0,0,0,0-0.1,0
									c-0.2,0-0.3,0-0.5-0.1c0,0-0.1,0-0.1,0c-0.1,0-0.3-0.1-0.4-0.1c0,0,0,0-0.1,0c-0.2-0.1-0.3-0.1-0.4-0.2
									c-0.6-0.3-0.8-0.8-0.8-1.2l0,2.6c0,0.4,0.3,0.9,0.8,1.2c0.1,0.1,0.3,0.1,0.4,0.2c0,0,0,0,0,0c0,0,0,0,0.1,0
									c0.1,0,0.2,0.1,0.3,0.1c0,0,0.1,0,0.1,0c0,0,0.1,0,0.1,0c0,0,0,0,0.1,0c0.1,0,0.2,0,0.3,0c0,0,0.1,0,0.1,0c0,0,0,0,0.1,0
									c0,0,0.1,0,0.1,0c0.1,0,0.2,0,0.3,0c0,0,0.1,0,0.1,0c0,0,0.1,0,0.1,0c0,0,0.1,0,0.1,0c0.1,0,0.2,0,0.3,0c0,0,0,0,0,0
									c0,0,0.1,0,0.1,0c0.1,0,0.2,0,0.2,0c0,0,0.1,0,0.1,0c0.1,0,0.2,0,0.3-0.1c0.1,0,0.1,0,0.2,0c0,0,0,0,0.1,0
									c0.2-0.1,0.4-0.1,0.6-0.2c0,0,0,0,0,0c0.1,0,0.1-0.1,0.1-0.1c0.1,0,0.1-0.1,0.2-0.1c0,0,0,0,0,0c0.1-0.1,0.1-0.1,0.2-0.2
									c0,0,0,0,0,0c0,0,0,0,0,0c0,0,0-0.1,0.1-0.1c0-0.1,0.1-0.1,0.1-0.2c0,0,0,0,0,0c0,0,0,0,0,0c0,0,0-0.1,0-0.1
									c0-0.1,0-0.1,0-0.2c0,0,0,0,0,0l0-2.6C56.6,183.8,56.6,183.9,56.6,184z"/>
								<g>
									<g>
										
											<linearGradient id="SVGID_10_" gradientUnits="userSpaceOnUse" x1="50.9006" y1="56.3491" x2="56.6419" y2="56.3491" gradientTransform="matrix(1 0 0 -1 0 240)">
											<stop  offset="0" style="stop-color:#6A67EA"/>
											<stop  offset="1" style="stop-color:#342B94"/>
										</linearGradient>
										<path class="st11" d="M55.8,182.5c1.1,0.6,1.1,1.7,0,2.4c-1.1,0.6-2.9,0.6-4.1,0c-1.1-0.6-1.1-1.7,0-2.4
											C52.9,181.8,54.7,181.8,55.8,182.5z"/>
									</g>
									<g>
										
											<linearGradient id="SVGID_11_" gradientUnits="userSpaceOnUse" x1="40.649" y1="56.35" x2="66.893" y2="56.35" gradientTransform="matrix(1 0 0 -1 0 240)">
											<stop  offset="0" style="stop-color:#6A67EA"/>
											<stop  offset="1" style="stop-color:#342B94"/>
										</linearGradient>
										<path class="st12" d="M63.7,187.4c0.6,0.3,0.6,0.9,0,1.2l-1.2,0.7c-0.6,0.3-1.5,0.3-2.1,0l-1-0.6
											c-0.4-0.3-1.1-0.3-1.7-0.2c-0.2,0-0.3,0.1-0.5,0.1c-0.6,0.1-1,0.5-1,0.8l0,0.8c0,0.5-0.7,0.9-1.5,0.9H53
											c-0.4,0-0.8-0.1-1.1-0.3c-0.3-0.2-0.4-0.4-0.4-0.6l0-0.8c0-0.2-0.2-0.5-0.4-0.6c-0.2-0.1-0.3-0.2-0.6-0.2
											c-0.2,0-0.3-0.1-0.5-0.1c-0.6-0.1-1.3-0.1-1.7,0.2l-1,0.6c-0.6,0.3-1.5,0.3-2.1,0l-1.2-0.7c-0.6-0.3-0.6-0.9,0-1.2l1-0.6
											c0.4-0.3,0.6-0.7,0.3-1c-0.1-0.1-0.1-0.2-0.2-0.3c-0.1-0.1-0.2-0.2-0.4-0.3c-0.3-0.2-0.7-0.3-1.1-0.3h-1.4
											c-0.4,0-0.8-0.1-1.1-0.3c-0.3-0.2-0.4-0.4-0.4-0.6l0-1c0-0.5,0.7-0.9,1.5-0.9h1.4c0.6,0,1.2-0.2,1.4-0.6
											c0.1-0.1,0.1-0.2,0.2-0.3c0.3-0.3,0.1-0.7-0.3-1l-1-0.6c-0.6-0.3-0.6-0.9,0-1.2l1.2-0.7c0.6-0.3,1.5-0.3,2.1,0l1,0.6
											c0.5,0.3,1.1,0.3,1.7,0.2c0.2,0,0.3-0.1,0.5-0.1c0.6-0.1,1-0.5,1-0.8l0-0.8c0-0.5,0.7-0.9,1.5-0.9h1.7
											c0.4,0,0.8,0.1,1.1,0.3s0.4,0.4,0.4,0.6l0,0.8c0,0.2,0.2,0.5,0.4,0.6c0.2,0.1,0.3,0.2,0.6,0.2c0.2,0,0.3,0.1,0.5,0.1
											c0.6,0.2,1.3,0.1,1.7-0.2l1-0.6c0.6-0.3,1.6-0.3,2.1,0l1.2,0.7c0.6,0.3,0.6,0.9,0,1.2l-1,0.6c-0.4,0.3-0.6,0.7-0.3,1
											c0.1,0.1,0.2,0.2,0.2,0.3c0.1,0.1,0.2,0.2,0.4,0.3c0.3,0.2,0.7,0.3,1.1,0.3h1.4c0.4,0,0.8,0.1,1.1,0.3
											c0.3,0.2,0.4,0.4,0.4,0.6l0,1c0,0.5-0.7,0.9-1.5,0.9H64c-0.6,0-1.2,0.2-1.4,0.6c-0.1,0.1-0.1,0.2-0.2,0.3
											c-0.3,0.3-0.1,0.7,0.3,1L63.7,187.4z M50.3,185.7c2,1.1,5.1,1.1,7,0c1.9-1.1,1.9-3,0-4.1c-2-1.1-5.1-1.1-7,0
											C48.3,182.7,48.3,184.6,50.3,185.7"/>
									</g>
								</g>
							</g>
						</g>
					</g>
					<g>
						<g>
							<g class="st0">
								<g>
									
										<linearGradient id="SVGID_12_" gradientUnits="userSpaceOnUse" x1="73.4639" y1="53.4315" x2="73.4736" y2="53.4315" gradientTransform="matrix(1 0 0 -1 0 240)">
										<stop  offset="0" style="stop-color:#ACB1D7"/>
										<stop  offset="1" style="stop-color:#D0D4F9"/>
									</linearGradient>
									<polygon class="st13" points="73.5,186 73.5,185.5 73.5,187.2 73.5,187.7 									"/>
									<path class="st2" d="M68.5,189.1l0.6,0.4c0.1,0.1,0.2,0.2,0.3,0.3c0,0,0,0.1,0,0.1v0v0l0-1.7c0-0.1-0.1-0.3-0.3-0.4
										l-0.6-0.4c-0.2-0.1-0.3-0.3-0.3-0.4l0,1.7C68.2,188.8,68.3,189,68.5,189.1z"/>
									<path class="st2" d="M80.6,189.7C80.7,189.7,80.7,189.7,80.6,189.7c0.1-0.1,0.1-0.1,0.1-0.1c0,0,0-0.1,0.1-0.1
										c0,0,0,0,0.1-0.1c0,0,0,0,0.1,0l0.6-0.4c0,0,0,0,0,0c0,0,0,0,0,0c0,0,0,0,0.1-0.1c0,0,0,0,0,0c0,0,0,0,0.1-0.1c0,0,0,0,0,0
										s0,0,0,0c0,0,0,0,0,0c0,0,0,0,0-0.1c0,0,0,0,0,0c0,0,0,0,0,0c0,0,0,0,0,0c0,0,0,0,0-0.1c0,0,0,0,0,0l0-1.7c0,0,0,0.1,0,0.1
										c0,0,0,0,0,0c0,0,0,0.1,0,0.1c0,0,0,0,0,0c0,0,0,0.1-0.1,0.1c0,0,0,0-0.1,0.1c0,0,0,0-0.1,0l-0.6,0.4c0,0,0,0,0,0
										c0,0,0,0,0,0c0,0,0,0-0.1,0.1c0,0,0,0,0,0c0,0,0,0-0.1,0.1c0,0,0,0,0,0c0,0,0,0,0,0c0,0,0,0,0,0c0,0,0,0,0,0.1c0,0,0,0,0,0
										c0,0,0,0,0,0c0,0,0,0,0,0c0,0,0,0,0,0.1c0,0,0,0,0,0l0,1.7C80.6,189.8,80.6,189.8,80.6,189.7
										C80.6,189.7,80.6,189.7,80.6,189.7z"/>
									<path class="st2" d="M83.7,190.3C83.7,190.3,83.7,190.3,83.7,190.3c0,0,0,0.1-0.1,0.1c0,0,0,0,0,0c0,0,0,0.1-0.1,0.1
										c0,0-0.1,0-0.1,0.1c0,0,0,0,0,0c-0.1,0-0.1,0.1-0.2,0.1c0,0,0,0-0.1,0c0,0-0.1,0-0.1,0c0,0-0.1,0-0.1,0c0,0,0,0,0,0
										c-0.1,0-0.1,0-0.2,0h-0.9c0,0,0,0-0.1,0c0,0-0.1,0-0.1,0c0,0-0.1,0-0.1,0c0,0,0,0,0,0c0,0,0,0,0,0c-0.1,0-0.1,0-0.2,0
										c0,0,0,0,0,0c0,0-0.1,0-0.1,0.1c0,0-0.1,0-0.1,0c0,0,0,0,0,0c0,0,0,0,0,0c0,0,0,0,0,0v0l0,0v0c0,0,0,0-0.1,0.1c0,0,0,0,0,0
										c0,0.1-0.1,0.1-0.1,0.2c0,0,0,0,0,0.1c0,0,0,0,0,0.1c0,0,0,0,0,0c0,0,0,0,0,0c0,0,0,0,0,0c0,0,0,0,0,0.1c0,0,0,0,0,0l0,1.7
										c0,0,0-0.1,0-0.1c0,0,0,0,0,0c0,0,0-0.1,0.1-0.1c0.1-0.1,0.1-0.1,0.1-0.2c0-0.1,0.1-0.1,0.1-0.1c0,0,0,0,0,0
										c0,0,0.1,0,0.1-0.1c0,0,0.1,0,0.1-0.1c0.1,0,0.1,0,0.2-0.1c0,0,0,0,0,0c0.1,0,0.2,0,0.3,0h0.9c0,0,0,0,0.1,0
										c0,0,0.1,0,0.1,0c0,0,0,0,0,0c0,0,0,0,0,0c0,0,0,0,0.1,0c0,0,0,0,0,0c0,0,0.1,0,0.1,0c0,0,0,0,0,0c0,0,0,0,0,0
										c0.1,0,0.1-0.1,0.2-0.1c0,0,0,0,0,0c0,0,0,0,0,0c0,0,0.1,0,0.1-0.1c0,0,0,0,0,0c0,0,0,0,0.1-0.1c0,0,0,0,0,0c0,0,0,0,0,0
										c0,0,0,0,0,0c0,0,0,0,0-0.1c0,0,0,0,0,0c0,0,0,0,0,0c0,0,0,0,0,0c0,0,0,0,0-0.1c0,0,0,0,0,0l0-1.7
										C83.7,190.3,83.7,190.3,83.7,190.3z"/>
									
										<linearGradient id="SVGID_13_" gradientUnits="userSpaceOnUse" x1="80.971" y1="48.927" x2="80.971" y2="48.927" gradientTransform="matrix(1 0 0 -1 0 240)">
										<stop  offset="0" style="stop-color:#ACB1D7"/>
										<stop  offset="1" style="stop-color:#D0D4F9"/>
									</linearGradient>
									<path class="st14" d="M81,191.1L81,191.1L81,191.1z"/>
									<path class="st2" d="M68.5,192.5C68.5,192.5,68.5,192.5,68.5,192.5c0.1,0,0.1,0,0.2,0c0,0,0,0,0,0c0.1,0,0.1,0,0.1,0
										c0,0,0,0,0,0c0.1,0,0.1,0,0.1,0.1c0.1,0.1,0.2,0.1,0.2,0.2c0,0.1,0.1,0.1,0.1,0.2c0.1,0.1,0.1,0.2,0.1,0.2l0-1.7
										c0-0.1,0-0.2-0.1-0.2c-0.1-0.1-0.1-0.1-0.1-0.2c-0.1-0.1-0.1-0.2-0.2-0.2c0,0-0.1,0-0.1-0.1h0c0,0,0,0,0,0c0,0-0.1,0-0.1,0
										c0,0,0,0,0,0c0,0,0,0,0,0c0,0,0,0,0,0c0,0-0.1,0-0.1,0c0,0,0,0,0,0c0,0,0,0,0,0c0,0,0,0,0,0c0,0-0.1,0-0.1,0c0,0,0,0,0,0
										h-0.9c-0.1,0-0.1,0-0.2,0c0,0,0,0,0,0c-0.1,0-0.1,0-0.2,0c0,0,0,0,0,0c-0.1,0-0.1,0-0.1,0c0,0,0,0,0,0
										c-0.1,0-0.1,0-0.1-0.1c-0.1-0.1-0.2-0.1-0.2-0.2c-0.1-0.1-0.1-0.1-0.1-0.2l0,1.7c0,0.2,0.1,0.3,0.3,0.4c0,0,0.1,0,0.1,0.1
										c0,0,0,0,0,0c0,0,0,0,0,0c0,0,0.1,0,0.1,0c0,0,0,0,0,0c0,0,0,0,0,0c0,0,0,0,0,0c0,0,0.1,0,0.1,0c0,0,0,0,0,0c0,0,0,0,0,0
										c0,0,0,0,0,0c0,0,0.1,0,0.1,0c0,0,0,0,0,0h0.9C68.4,192.5,68.4,192.5,68.5,192.5z"/>
									<path class="st2" d="M81.9,192.9C81.8,193,81.8,193,81.9,192.9c-0.1,0.1-0.1,0.1-0.1,0.1c0,0,0,0.1-0.1,0.1
										c0,0,0,0-0.1,0.1c0,0,0,0-0.1,0l-0.8,0.5c-0.1,0.1-0.2,0.1-0.3,0.1c0,0,0,0,0,0c-0.1,0-0.2,0-0.3,0c0,0,0,0,0,0
										c-0.1,0-0.2,0-0.4,0c0,0,0,0,0,0c-0.1,0-0.2-0.1-0.3-0.1l-0.6-0.4c0,0-0.1,0-0.1-0.1c0,0-0.1,0-0.1,0c0,0,0,0,0,0
										c0,0,0,0,0,0c0,0-0.1,0-0.1,0c0,0-0.1,0-0.1,0c0,0,0,0-0.1,0c0,0,0,0,0,0c0,0,0,0,0,0c0,0-0.1,0-0.1,0c0,0-0.1,0-0.1,0
										c0,0,0,0-0.1,0c0,0,0,0,0,0c0,0,0,0,0,0c0,0-0.1,0-0.1,0c0,0-0.1,0-0.1,0c-0.1,0-0.2,0.1-0.3,0.1c0,0-0.1,0-0.1,0l0,0
										c-0.1,0-0.2,0.1-0.2,0.1c0,0,0,0,0,0c0,0,0,0,0,0c0,0-0.1,0.1-0.1,0.1c0,0,0,0,0,0c0,0,0,0,0,0c0,0,0,0,0,0c0,0,0,0,0,0
										c0,0,0,0,0,0.1c0,0,0,0,0,0c0,0,0,0,0,0c0,0,0,0,0,0c0,0,0,0,0,0c0,0,0,0,0,0c0,0,0,0,0,0c0,0,0,0,0,0.1c0,0,0,0,0,0l0,0.5
										c0,0,0,0.1,0,0.1c0,0,0,0,0,0c0,0,0,0.1-0.1,0.1c0,0,0,0,0,0c0,0,0,0.1-0.1,0.1c0,0-0.1,0-0.1,0.1c0,0,0,0,0,0
										c-0.1,0-0.1,0.1-0.2,0.1c0,0,0,0-0.1,0c0,0-0.1,0-0.1,0c0,0-0.1,0-0.1,0c0,0,0,0,0,0c-0.1,0-0.1,0-0.2,0h-1.1
										c-0.1,0-0.1,0-0.2,0c0,0,0,0,0,0c-0.1,0-0.1,0-0.2,0c0,0,0,0,0,0c-0.1,0-0.1,0-0.1,0c0,0,0,0,0,0c-0.1,0-0.1,0-0.1-0.1
										c-0.1-0.1-0.2-0.2-0.3-0.3c0,0,0-0.1,0-0.1l0-0.5c0-0.2-0.1-0.3-0.3-0.4c0,0-0.1,0-0.1-0.1c0,0,0,0,0,0c0,0,0,0,0,0
										c0,0-0.1,0-0.1,0c0,0-0.1,0-0.1,0c-0.1,0-0.2-0.1-0.3-0.1c0,0,0,0-0.1,0c0,0-0.1,0-0.1,0c0,0-0.1,0-0.1,0c0,0,0,0,0,0
										c0,0,0,0,0,0c0,0,0,0-0.1,0c0,0-0.1,0-0.1,0c0,0-0.1,0-0.1,0c0,0,0,0,0,0c0,0,0,0,0,0c0,0-0.1,0-0.1,0c0,0-0.1,0-0.1,0
										c0,0,0,0,0,0c0,0,0,0,0,0c-0.1,0-0.2,0.1-0.2,0.1l-0.6,0.4c-0.1,0.1-0.2,0.1-0.3,0.1c0,0,0,0,0,0c-0.1,0-0.2,0-0.3,0
										c0,0,0,0,0,0c-0.1,0-0.2,0-0.4,0c0,0,0,0,0,0c-0.1,0-0.2-0.1-0.3-0.1l-0.8-0.5c-0.1-0.1-0.2-0.1-0.2-0.2
										c0-0.1-0.1-0.1-0.1-0.2l0,1.7c0,0.1,0.1,0.3,0.3,0.4l0.8,0.5c0,0,0.1,0,0.1,0.1c0,0,0.1,0,0.1,0c0,0,0,0,0.1,0c0,0,0,0,0,0
										c0,0,0,0,0,0c0,0,0.1,0,0.1,0c0,0,0.1,0,0.1,0c0,0,0.1,0,0.1,0c0,0,0,0,0,0c0,0,0,0,0,0c0,0,0,0,0.1,0c0,0,0.1,0,0.1,0
										c0,0,0.1,0,0.1,0c0,0,0,0,0.1,0c0,0,0,0,0,0c0,0,0.1,0,0.1,0c0.1,0,0.2-0.1,0.2-0.1l0.6-0.4c0.1,0,0.1-0.1,0.2-0.1
										c0,0,0,0,0,0c0.1,0,0.2,0,0.2,0c0,0,0,0,0,0c0.1,0,0.2,0,0.3,0c0,0,0,0,0,0c0.1,0,0.2,0,0.3,0c0.1,0,0.2,0.1,0.3,0.1
										c0.1,0,0.1,0,0.2,0.1c0,0,0,0,0,0c0.1,0,0.1,0,0.2,0.1c0.1,0.1,0.2,0.2,0.3,0.3c0,0,0,0.1,0,0.1l0,0l0,0l0,0.5
										c0,0.2,0.1,0.3,0.3,0.4c0,0,0.1,0,0.1,0.1h0c0,0,0,0,0,0c0,0,0.1,0,0.1,0c0,0,0,0,0,0c0,0,0,0,0,0c0,0,0,0,0,0
										c0,0,0.1,0,0.1,0c0,0,0,0,0,0c0,0,0,0,0,0c0,0,0,0,0,0c0,0,0.1,0,0.1,0c0,0,0,0,0,0h1.1c0,0,0,0,0.1,0c0,0,0.1,0,0.1,0
										c0,0,0,0,0,0c0,0,0,0,0,0c0,0,0,0,0.1,0c0,0,0,0,0,0c0,0,0.1,0,0.1,0c0,0,0,0,0,0c0,0,0,0,0,0c0.1,0,0.1-0.1,0.2-0.1
										c0,0,0,0,0,0c0,0,0,0,0,0c0,0,0.1,0,0.1-0.1c0,0,0,0,0,0c0,0,0,0,0.1-0.1c0,0,0,0,0,0c0,0,0,0,0,0c0,0,0,0,0,0
										c0,0,0,0,0-0.1c0,0,0,0,0,0c0,0,0,0,0,0c0,0,0,0,0,0c0,0,0,0,0-0.1c0,0,0,0,0,0l0,0l0-0.5c0,0,0,0,0-0.1c0,0,0,0,0,0
										c0,0,0,0,0-0.1c0,0,0,0,0,0c0,0,0,0,0-0.1c0,0,0,0,0,0c0,0,0,0,0,0c0,0,0.1-0.1,0.1-0.1c0,0,0,0,0,0c0.1,0,0.1-0.1,0.2-0.1
										c0,0,0.1,0,0.1,0c0.1,0,0.2-0.1,0.3-0.1c0.1,0,0.2,0,0.3,0c0,0,0,0,0,0c0.1,0,0.2,0,0.3,0c0,0,0,0,0,0c0.1,0,0.2,0,0.3,0.1
										c0,0,0,0,0,0c0.1,0,0.2,0.1,0.2,0.1l0.6,0.4c0,0,0.1,0,0.1,0.1c0,0,0.1,0,0.1,0c0,0,0,0,0.1,0c0,0,0,0,0,0c0,0,0,0,0,0
										c0,0,0.1,0,0.1,0c0,0,0.1,0,0.1,0c0,0,0.1,0,0.1,0c0,0,0,0,0,0c0,0,0,0,0,0c0,0,0,0,0.1,0c0,0,0.1,0,0.1,0c0,0,0.1,0,0.1,0
										c0,0,0,0,0.1,0c0,0,0,0,0,0c0,0,0.1,0,0.1,0c0.1,0,0.2-0.1,0.2-0.1l0.8-0.5c0,0,0,0,0,0c0,0,0,0,0.1,0c0,0,0,0,0.1-0.1
										c0,0,0,0,0,0c0,0,0,0,0.1-0.1c0,0,0,0,0,0c0,0,0,0,0,0c0,0,0,0,0,0c0,0,0,0,0-0.1c0,0,0,0,0,0c0,0,0,0,0,0c0,0,0,0,0,0
										c0,0,0,0,0-0.1c0,0,0,0,0,0l0-1.7C81.9,192.8,81.9,192.9,81.9,192.9C81.9,192.9,81.9,192.9,81.9,192.9z"/>
								</g>
								<path class="st2" d="M77.4,188.6c-0.1-0.1-0.3-0.2-0.5-0.2c0,0,0,0,0,0c0,0-0.1,0-0.1,0c-0.1,0-0.2-0.1-0.3-0.1
									c-0.1,0-0.1,0-0.2,0c0,0-0.1,0-0.1,0c0,0-0.1,0-0.1,0c-0.1,0-0.2,0-0.3-0.1c0,0-0.1,0-0.1,0c0,0-0.1,0-0.1,0
									c0,0-0.1,0-0.1,0c-0.1,0-0.2,0-0.3,0c0,0-0.1,0-0.1,0c0,0-0.1,0-0.1,0c0,0-0.1,0-0.1,0c-0.1,0-0.2,0-0.4,0c0,0,0,0,0,0
									c0,0-0.1,0-0.1,0c-0.1,0-0.2,0-0.3,0c0,0-0.1,0-0.1,0c-0.1,0-0.2,0.1-0.3,0.1c-0.1,0-0.1,0-0.2,0c0,0-0.1,0-0.1,0.1
									c0,0-0.1,0-0.1,0c-0.2,0.1-0.3,0.1-0.5,0.2c0,0,0,0,0,0c0,0-0.1,0-0.1,0.1c0,0-0.1,0.1-0.1,0.1c0,0-0.1,0-0.1,0.1
									c0,0-0.1,0.1-0.1,0.1c0,0,0,0,0,0c0,0,0,0,0,0c0,0-0.1,0.1-0.1,0.1c0,0,0,0,0,0c0,0,0,0,0,0c0,0-0.1,0.1-0.1,0.1
									c0,0,0,0,0,0c0,0,0,0,0,0c0,0,0,0.1,0,0.1c0,0,0,0,0,0.1c0,0,0,0,0,0c0,0,0,0.1,0,0.1c0,0,0,0,0,0.1c0,0,0,0,0,0
									c0,0,0,0.1,0,0.1c0,0,0,0,0,0.1c0,0,0,0,0,0l0,1.7c0,0,0-0.1,0-0.1c0,0,0-0.1,0-0.1c0,0,0-0.1,0-0.1c0,0,0-0.1,0-0.1
									c0,0,0-0.1,0-0.1c0,0,0-0.1,0-0.1c0,0,0,0,0-0.1c0,0,0-0.1,0.1-0.1c0,0,0,0,0.1-0.1c0-0.1,0.1-0.1,0.1-0.1c0,0,0,0,0.1-0.1
									c0,0,0.1-0.1,0.1-0.1c0,0,0.1,0,0.1-0.1c0,0,0.1-0.1,0.1-0.1c0,0,0.1-0.1,0.1-0.1c0.1-0.1,0.3-0.2,0.5-0.2c0,0,0.1,0,0.1,0
									c0.1,0,0.2-0.1,0.3-0.1c0.1,0,0.2-0.1,0.3-0.1c0.1,0,0.3-0.1,0.4-0.1c0,0,0.1,0,0.1,0c0.2,0,0.4,0,0.6,0c0,0,0.1,0,0.1,0
									c0.2,0,0.4,0,0.5,0c0,0,0.1,0,0.1,0c0.2,0,0.4,0.1,0.5,0.1c0,0,0.1,0,0.1,0c0.2,0,0.3,0.1,0.5,0.1c0,0,0.1,0,0.1,0
									c0.2,0.1,0.3,0.1,0.5,0.2c0.6,0.3,0.9,0.7,1,1.2c0,0.1,0,0.1,0,0.2l0-1.7C78.3,189.4,78,188.9,77.4,188.6z"/>
								<g>
									
										<linearGradient id="SVGID_14_" gradientUnits="userSpaceOnUse" x1="66.3965" y1="49.26" x2="66.4053" y2="49.26" gradientTransform="matrix(1 0 0 -1 0 240)">
										<stop  offset="0" style="stop-color:#ACB1D7"/>
										<stop  offset="1" style="stop-color:#D0D4F9"/>
									</linearGradient>
									<polygon class="st15" points="66.4,190.2 66.4,191.9 66.4,191.3 66.4,189.6 									"/>
								</g>
								<path class="st2" d="M76.9,190.1C76.9,190.1,76.9,190.1,76.9,190.1c0,0.1-0.1,0.1-0.1,0.2c0,0,0,0,0,0
									c0,0.1-0.1,0.1-0.1,0.2c0,0-0.1,0.1-0.1,0.1c0,0-0.1,0.1-0.1,0.1c-0.1,0.1-0.2,0.1-0.4,0.2c0,0-0.1,0-0.1,0
									c-0.1,0-0.1,0-0.2,0c-0.1,0-0.2,0-0.2,0c0,0,0,0-0.1,0c-0.1,0-0.2,0-0.3,0c0,0,0,0,0,0c-0.1,0-0.2,0-0.3,0c0,0,0,0,0,0
									c-0.1,0-0.2,0-0.3-0.1c0,0,0,0-0.1,0c-0.1,0-0.2,0-0.3-0.1c0,0,0,0,0,0c-0.1,0-0.2-0.1-0.3-0.1c-0.4-0.2-0.6-0.5-0.6-0.8
									l0,1.7c0,0.3,0.2,0.6,0.6,0.8c0.1,0,0.2,0.1,0.3,0.1c0,0,0,0,0,0c0,0,0,0,0,0c0.1,0,0.1,0,0.2,0.1c0,0,0.1,0,0.1,0
									c0,0,0,0,0.1,0c0,0,0,0,0,0c0.1,0,0.1,0,0.2,0c0,0,0,0,0.1,0c0,0,0,0,0,0c0,0,0,0,0.1,0c0.1,0,0.1,0,0.2,0c0,0,0,0,0.1,0
									c0,0,0,0,0.1,0c0,0,0.1,0,0.1,0c0.1,0,0.1,0,0.2,0c0,0,0,0,0,0c0,0,0,0,0.1,0c0.1,0,0.1,0,0.2,0c0,0,0,0,0.1,0
									c0.1,0,0.1,0,0.2,0c0,0,0.1,0,0.1,0c0,0,0,0,0,0c0.1,0,0.3-0.1,0.4-0.2c0,0,0,0,0,0c0,0,0.1,0,0.1-0.1c0,0,0.1-0.1,0.1-0.1
									c0,0,0,0,0,0c0,0,0.1-0.1,0.1-0.1c0,0,0,0,0,0c0,0,0,0,0,0c0,0,0,0,0-0.1c0,0,0-0.1,0-0.1c0,0,0,0,0,0c0,0,0,0,0,0
									c0,0,0,0,0-0.1c0,0,0-0.1,0-0.1c0,0,0,0,0,0l0-1.7C76.9,190,76.9,190,76.9,190.1z"/>
								<g>
									<g>
										
											<linearGradient id="SVGID_15_" gradientUnits="userSpaceOnUse" x1="73.1596" y1="50.1005" x2="76.9444" y2="50.1005" gradientTransform="matrix(1 0 0 -1 0 240)">
											<stop  offset="0" style="stop-color:#6A67EA"/>
											<stop  offset="1" style="stop-color:#342B94"/>
										</linearGradient>
										<path class="st16" d="M76.4,189.1c0.7,0.4,0.7,1.1,0,1.6c-0.7,0.4-1.9,0.4-2.7,0c-0.7-0.4-0.7-1.1,0-1.6
											C74.4,188.7,75.6,188.7,76.4,189.1z"/>
									</g>
									<g>
										
											<linearGradient id="SVGID_16_" gradientUnits="userSpaceOnUse" x1="66.401" y1="50.1005" x2="83.7031" y2="50.1005" gradientTransform="matrix(1 0 0 -1 0 240)">
											<stop  offset="0" style="stop-color:#6A67EA"/>
											<stop  offset="1" style="stop-color:#342B94"/>
										</linearGradient>
										<path class="st17" d="M81.6,192.4c0.4,0.2,0.4,0.6,0,0.8l-0.8,0.5c-0.4,0.2-1,0.2-1.4,0l-0.6-0.4
											c-0.3-0.2-0.7-0.2-1.1-0.1c-0.1,0-0.2,0.1-0.3,0.1c-0.4,0.1-0.7,0.3-0.7,0.5l0,0.5c0,0.3-0.4,0.6-1,0.6h-1.1
											c-0.3,0-0.5-0.1-0.7-0.2c-0.2-0.1-0.3-0.3-0.3-0.4l0-0.5c0-0.2-0.1-0.3-0.3-0.4c-0.1-0.1-0.2-0.1-0.4-0.1
											c-0.1,0-0.2-0.1-0.3-0.1c-0.4-0.1-0.8-0.1-1.1,0.1l-0.6,0.4c-0.4,0.2-1,0.2-1.4,0l-0.8-0.5c-0.4-0.2-0.4-0.6,0-0.8
											l0.6-0.4c0.3-0.2,0.4-0.4,0.2-0.7c-0.1-0.1-0.1-0.1-0.1-0.2c-0.1-0.1-0.1-0.2-0.2-0.2c-0.2-0.1-0.4-0.2-0.7-0.2h-0.9
											c-0.3,0-0.5-0.1-0.7-0.2c-0.2-0.1-0.3-0.3-0.3-0.4l0-0.6c0-0.3,0.4-0.6,1-0.6h0.9c0.4,0,0.8-0.2,0.9-0.4
											c0-0.1,0.1-0.1,0.1-0.2c0.2-0.2,0.1-0.5-0.2-0.7l-0.6-0.4c-0.4-0.2-0.4-0.6,0-0.8l0.8-0.5c0.4-0.2,1-0.2,1.4,0l0.6,0.4
											c0.3,0.2,0.7,0.2,1.1,0.1c0.1,0,0.2-0.1,0.3-0.1c0.4-0.1,0.7-0.3,0.7-0.5l0-0.5c0-0.3,0.4-0.6,1-0.6h1.1
											c0.3,0,0.5,0.1,0.7,0.2s0.3,0.3,0.3,0.4l0,0.5c0,0.2,0.1,0.3,0.3,0.4c0.1,0.1,0.2,0.1,0.4,0.1c0.1,0,0.2,0.1,0.3,0.1
											c0.4,0.1,0.8,0.1,1.1-0.1l0.6-0.4c0.4-0.2,1-0.2,1.4,0l0.8,0.5c0.4,0.2,0.4,0.6,0,0.8l-0.6,0.4c-0.3,0.2-0.4,0.4-0.2,0.7
											c0.1,0.1,0.1,0.1,0.1,0.2c0.1,0.1,0.1,0.2,0.2,0.2c0.2,0.1,0.4,0.2,0.7,0.2h0.9c0.3,0,0.5,0.1,0.7,0.2
											c0.2,0.1,0.3,0.2,0.3,0.4l0,0.6c0,0.3-0.4,0.6-1,0.6h-0.9c-0.4,0-0.8,0.2-0.9,0.4c0,0.1-0.1,0.1-0.1,0.2
											c-0.2,0.2-0.1,0.5,0.2,0.7L81.6,192.4z M72.7,191.2c1.3,0.7,3.4,0.7,4.6,0c1.3-0.7,1.3-1.9,0-2.7c-1.3-0.7-3.4-0.7-4.6,0
											C71.4,189.3,71.4,190.5,72.7,191.2"/>
									</g>
								</g>
							</g>
						</g>
					</g>
				</g>
				<g>
					<g>
						<g>
							<g class="st0">
								<g>
									
										<linearGradient id="SVGID_17_" gradientUnits="userSpaceOnUse" x1="89.4653" y1="160.4887" x2="100.2987" y2="113.8218" gradientTransform="matrix(1 0 0 -1 0 240)">
										<stop  offset="0" style="stop-color:#6AE5EA"/>
										<stop  offset="1" style="stop-color:#342B94"/>
									</linearGradient>
									<polygon class="st18" points="101.5,65.8 101.3,131.6 88.2,139.3 88.3,73.4 									"/>
								</g>
								<g>
									
										<linearGradient id="SVGID_18_" gradientUnits="userSpaceOnUse" x1="71.8903" y1="166.4616" x2="88.3905" y2="117.4614" gradientTransform="matrix(1 0 0 -1 0 240)">
										<stop  offset="0" style="stop-color:#6A67EA"/>
										<stop  offset="1" style="stop-color:#342B94"/>
									</linearGradient>
									<polygon class="st19" points="88.3,73.4 88.2,139.3 75,131.6 75.1,65.8 									"/>
								</g>
								<g>
									
										<linearGradient id="SVGID_19_" gradientUnits="userSpaceOnUse" x1="82.3498" y1="178.0203" x2="95.6836" y2="169.52" gradientTransform="matrix(1 0 0 -1 0 240)">
										<stop  offset="0" style="stop-color:#8380FF"/>
										<stop  offset="0.9951" style="stop-color:#6AC5EA"/>
									</linearGradient>
									<polygon class="st20" points="101.5,65.8 88.3,73.4 75.1,65.8 88.3,58.2 									"/>
								</g>
							</g>
						</g>
						<g>
							<g class="st0">
								<g>
									
										<linearGradient id="SVGID_20_" gradientUnits="userSpaceOnUse" x1="70.1364" y1="138.6132" x2="82.6366" y2="100.946" gradientTransform="matrix(1 0 0 -1 0 240)">
										<stop  offset="4.900000e-03" style="stop-color:#6AE5EA"/>
										<stop  offset="1" style="stop-color:#342B94"/>
									</linearGradient>
									<polygon class="st21" points="83.3,92.6 83.2,142 70.1,149.7 70.2,100.3 									"/>
								</g>
								<g>
									
										<linearGradient id="SVGID_21_" gradientUnits="userSpaceOnUse" x1="56.7882" y1="133.4448" x2="70.1216" y2="104.6113" gradientTransform="matrix(1 0 0 -1 0 240)">
										<stop  offset="0" style="stop-color:#6A67EA"/>
										<stop  offset="1" style="stop-color:#342B94"/>
									</linearGradient>
									<polygon class="st22" points="70.2,100.3 70.1,149.7 56.9,142 57,92.6 									"/>
								</g>
								<g>
									
										<linearGradient id="SVGID_22_" gradientUnits="userSpaceOnUse" x1="63.5861" y1="151.6854" x2="75.7533" y2="143.685" gradientTransform="matrix(1 0 0 -1 0 240)">
										<stop  offset="0" style="stop-color:#8380FF"/>
										<stop  offset="1" style="stop-color:#6AC5EA"/>
									</linearGradient>
									<polygon class="st23" points="83.3,92.6 70.2,100.3 57,92.6 70.1,85 									"/>
								</g>
							</g>
						</g>
						<g>
							<g class="st0">
								<g>
									
										<linearGradient id="SVGID_23_" gradientUnits="userSpaceOnUse" x1="50.1045" y1="110.0498" x2="65.6049" y2="91.2993" gradientTransform="matrix(1 0 0 -1 0 240)">
										<stop  offset="0" style="stop-color:#FFA03D"/>
										<stop  offset="1" style="stop-color:#F0720F"/>
									</linearGradient>
									<polygon class="st24" points="65,119.7 64.9,152.6 51.8,160.3 51.9,127.3 									"/>
								</g>
								<g>
									
										<linearGradient id="SVGID_24_" gradientUnits="userSpaceOnUse" x1="38.0835" y1="113.8968" x2="51.7501" y2="87.3969" gradientTransform="matrix(1 0 0 -1 0 240)">
										<stop  offset="0" style="stop-color:#FFA03D"/>
										<stop  offset="1" style="stop-color:#F0720F"/>
									</linearGradient>
									<polygon class="st25" points="51.9,127.3 51.8,160.3 38.6,152.6 38.7,119.7 									"/>
								</g>
								<g>
									<g>
										
											<linearGradient id="SVGID_25_" gradientUnits="userSpaceOnUse" x1="44.9026" y1="126.8559" x2="58.6526" y2="113.8559" gradientTransform="matrix(1 0 0 -1 0 240)">
											<stop  offset="0" style="stop-color:#FFEFB6"/>
											<stop  offset="1" style="stop-color:#FFD440"/>
										</linearGradient>
										<polygon class="st26" points="65,119.7 51.9,127.3 38.7,119.7 51.8,112.1 										"/>
									</g>
								</g>
							</g>
						</g>
						<g>
							<g class="st0">
								<g>
									
										<linearGradient id="SVGID_26_" gradientUnits="userSpaceOnUse" x1="32.6524" y1="86.4465" x2="47.152" y2="78.1967" gradientTransform="matrix(1 0 0 -1 0 240)">
										<stop  offset="0" style="stop-color:#FFA03D"/>
										<stop  offset="1" style="stop-color:#F0720F"/>
									</linearGradient>
									<polygon class="st27" points="46.2,143.8 46.1,163.6 33,171.2 33.1,151.4 									"/>
								</g>
								<g>
									
										<linearGradient id="SVGID_27_" gradientUnits="userSpaceOnUse" x1="21.5052" y1="89.9162" x2="33.0048" y2="72.5834" gradientTransform="matrix(1 0 0 -1 0 240)">
										<stop  offset="0" style="stop-color:#FFA03D"/>
										<stop  offset="1" style="stop-color:#F0720F"/>
									</linearGradient>
									<polygon class="st28" points="33.1,151.4 33,171.2 19.8,163.6 19.9,143.8 									"/>
								</g>
								<g>
									<g>
										
											<linearGradient id="SVGID_28_" gradientUnits="userSpaceOnUse" x1="26.8754" y1="102.0503" x2="37.8758" y2="91.5499" gradientTransform="matrix(1 0 0 -1 0 240)">
											<stop  offset="0" style="stop-color:#FFEFB6"/>
											<stop  offset="1" style="stop-color:#FFD440"/>
										</linearGradient>
										<polygon class="st29" points="46.2,143.8 33.1,151.4 19.9,143.8 33,136.2 										"/>
									</g>
								</g>
							</g>
						</g>
					</g>
					
						<linearGradient id="SVGID_29_" gradientUnits="userSpaceOnUse" x1="46.2206" y1="233.3057" x2="47.9707" y2="159.0562" gradientTransform="matrix(1 0 0 -1 0 240)">
						<stop  offset="0" style="stop-color:#FFFF72"/>
						<stop  offset="1" style="stop-color:#F0810F"/>
					</linearGradient>
					<polygon class="st30" points="90.9,47.9 86.4,27.3 67.6,34.4 75.4,38.9 52.1,79.3 28.8,92.7 5.5,133.1 13.2,137.6 37.3,97.4 
						59.9,83.8 83.2,43.4 					"/>
				</g>
				<g>
					<g class="st0">
						<g>
							
								<linearGradient id="SVGID_30_" gradientUnits="userSpaceOnUse" x1="199.5527" y1="22.544" x2="226.4829" y2="22.544" gradientTransform="matrix(1 0 0 -1 0 240)">
								<stop  offset="0" style="stop-color:#6A67EA"/>
								<stop  offset="1" style="stop-color:#342B94"/>
							</linearGradient>
							<path class="st31" d="M199.6,223.3c0-0.1,0.1-0.2,0.1-0.3c0-0.1,0.1-0.3,0.1-0.4c0-0.1,0.1-0.2,0.1-0.3
								c0.1-0.1,0.1-0.3,0.2-0.4c0.1-0.2,0.2-0.4,0.3-0.6c0,0,0-0.1,0.1-0.1c0.1-0.2,0.3-0.4,0.4-0.6c0,0,0.1-0.1,0.1-0.1
								c0.2-0.2,0.4-0.4,0.6-0.6c0.1-0.1,0.3-0.2,0.4-0.3c0.1-0.1,0.2-0.2,0.4-0.3c0.2-0.1,0.3-0.2,0.5-0.3c0.2-0.1,0.3-0.2,0.5-0.3
								c0.4-0.2,0.8-0.4,1.3-0.6c0.1-0.1,0.3-0.1,0.4-0.2c0.3-0.1,0.7-0.3,1.1-0.4c0.1,0,0.3-0.1,0.4-0.1c0.2-0.1,0.5-0.1,0.7-0.2
								c0.2,0,0.3-0.1,0.5-0.1c0.2-0.1,0.5-0.1,0.7-0.2c0.2,0,0.3-0.1,0.5-0.1c0.5-0.1,1-0.2,1.5-0.2c0.2,0,0.3,0,0.5,0
								c0.3,0,0.6,0,0.9-0.1c0.2,0,0.4,0,0.6,0c0.2,0,0.5,0,0.7,0c0.2,0,0.4,0,0.6,0c0.2,0,0.5,0,0.7,0c0.2,0,0.4,0,0.6,0.1
								c0.2,0,0.4,0,0.7,0.1c0.2,0,0.4,0.1,0.6,0.1c0.2,0,0.5,0.1,0.7,0.1c0.2,0,0.4,0.1,0.6,0.1c0.3,0.1,0.6,0.1,0.8,0.2
								c0.2,0,0.3,0.1,0.5,0.1c0.5,0.1,1,0.3,1.4,0.5c0.2,0.1,0.5,0.2,0.7,0.3c0.1,0.1,0.2,0.1,0.4,0.2c0.3,0.2,0.7,0.3,1,0.5
								c2,1.1,3.2,2.6,3.7,4.1c0.2,0.5,0.2,1,0.2,1.5l0-5.6c0-2-1.3-4-4-5.6c-0.3-0.2-0.6-0.4-1-0.5c-0.1-0.1-0.2-0.1-0.3-0.2
								c-0.2-0.1-0.4-0.2-0.6-0.3c0,0,0,0-0.1,0c-0.5-0.2-0.9-0.3-1.4-0.5c0,0-0.1,0-0.1,0c-0.1,0-0.2-0.1-0.3-0.1
								c-0.3-0.1-0.6-0.1-0.8-0.2c-0.1,0-0.1,0-0.2-0.1c-0.1,0-0.2,0-0.3-0.1c-0.2,0-0.5-0.1-0.7-0.1c-0.1,0-0.2,0-0.3,0
								c-0.1,0-0.2,0-0.3,0c-0.2,0-0.4-0.1-0.7-0.1c-0.1,0-0.2,0-0.3,0c-0.1,0-0.2,0-0.3,0c-0.2,0-0.5,0-0.7,0c-0.1,0-0.2,0-0.3,0
								c-0.1,0-0.2,0-0.3,0c-0.2,0-0.5,0-0.7,0c-0.1,0-0.2,0-0.4,0c-0.1,0-0.1,0-0.2,0c-0.3,0-0.6,0-0.9,0.1c-0.1,0-0.2,0-0.4,0
								c0,0-0.1,0-0.1,0c-0.5,0.1-1,0.1-1.5,0.2c0,0-0.1,0-0.1,0c-0.1,0-0.3,0.1-0.4,0.1c-0.2,0-0.5,0.1-0.7,0.2
								c-0.2,0-0.4,0.1-0.5,0.1c-0.2,0.1-0.5,0.1-0.7,0.2c0,0-0.1,0-0.1,0c-0.1,0-0.2,0.1-0.2,0.1c-0.4,0.1-0.7,0.3-1.1,0.4
								c-0.1,0.1-0.3,0.1-0.4,0.2c-0.4,0.2-0.9,0.4-1.3,0.6c-0.1,0-0.1,0.1-0.2,0.1c-0.1,0.1-0.2,0.2-0.3,0.2
								c-0.2,0.1-0.3,0.2-0.5,0.3c-0.1,0.1-0.3,0.2-0.4,0.3c-0.1,0.1-0.3,0.2-0.4,0.3c0,0-0.1,0-0.1,0.1c-0.2,0.2-0.3,0.3-0.5,0.5
								c0,0-0.1,0.1-0.1,0.1c-0.1,0.1-0.2,0.2-0.3,0.3c-0.1,0.1-0.1,0.2-0.2,0.2c0,0,0,0.1-0.1,0.1c-0.1,0.2-0.2,0.3-0.3,0.5
								c0,0,0,0.1,0,0.1c-0.1,0.1-0.1,0.3-0.2,0.4c0,0.1-0.1,0.2-0.1,0.2c0,0,0,0.1,0,0.1c0,0.1-0.1,0.3-0.1,0.4
								c0,0.1-0.1,0.2-0.1,0.3c0,0,0,0,0,0.1c0,0.1,0,0.3,0,0.4c0,0.1,0,0.2,0,0.3c0,0,0,0.1,0,0.1l0,5.6c0-0.1,0-0.3,0-0.4
								C199.6,223.5,199.6,223.4,199.6,223.3z"/>
							
								<linearGradient id="SVGID_31_" gradientUnits="userSpaceOnUse" x1="189.85" y1="15.1965" x2="193.317" y2="15.1965" gradientTransform="matrix(1 0 0 -1 0 240)">
								<stop  offset="0" style="stop-color:#6A67EA"/>
								<stop  offset="1" style="stop-color:#342B94"/>
							</linearGradient>
							<path class="st32" d="M193.3,225.6c-0.9-0.8-1.6-1.7-2.1-2.5c-0.9-1.5-1.3-3-1.3-4.5l0,5.6c0,2.5,1.1,4.9,3.5,7.1
								L193.3,225.6z"/>
							
								<linearGradient id="SVGID_32_" gradientUnits="userSpaceOnUse" x1="173.0669" y1="7.035" x2="236.183" y2="7.035" gradientTransform="matrix(1 0 0 -1 0 240)">
								<stop  offset="0" style="stop-color:#6A67EA"/>
								<stop  offset="1" style="stop-color:#342B94"/>
							</linearGradient>
							<path class="st33" d="M236.2,219c0,0.1,0,0.2,0,0.4c0,0.1,0,0.2,0,0.3c0,0.1,0,0.2-0.1,0.3c0,0.1,0,0.2-0.1,0.3
								c0,0.1-0.1,0.2-0.1,0.3c0,0.1-0.1,0.2-0.1,0.3c0,0.1-0.1,0.2-0.1,0.3c0,0.1-0.1,0.2-0.1,0.3c0,0.1-0.1,0.2-0.1,0.4
								c0,0.1-0.1,0.2-0.1,0.3c-0.1,0.1-0.1,0.2-0.2,0.3c-0.1,0.1-0.1,0.2-0.2,0.3c-0.1,0.1-0.2,0.3-0.3,0.4
								c-0.1,0.1-0.1,0.2-0.2,0.2c-0.1,0.1-0.2,0.3-0.3,0.4c0,0.1-0.1,0.1-0.1,0.2c-0.2,0.2-0.4,0.5-0.6,0.7
								c-0.1,0.1-0.1,0.1-0.2,0.2c-0.2,0.2-0.3,0.4-0.5,0.5c-0.1,0.1-0.2,0.2-0.3,0.2c-0.1,0.1-0.2,0.2-0.3,0.3
								c-0.1,0.1-0.2,0.2-0.3,0.3c-0.1,0.1-0.2,0.2-0.4,0.3c-0.1,0.1-0.2,0.2-0.3,0.3c-0.1,0.1-0.3,0.2-0.4,0.3
								c-0.1,0.1-0.2,0.2-0.4,0.3c-0.1,0.1-0.3,0.2-0.4,0.3c-0.2,0.1-0.4,0.2-0.5,0.3c-0.4,0.3-0.9,0.5-1.4,0.7
								c-0.1,0.1-0.3,0.1-0.5,0.2c-0.3,0.2-0.7,0.3-1,0.4c-0.2,0.1-0.4,0.1-0.5,0.2c-0.3,0.1-0.7,0.3-1,0.4
								c-0.2,0.1-0.3,0.1-0.5,0.2c-0.2,0.1-0.5,0.1-0.7,0.2c-0.4,0.1-0.9,0.3-1.3,0.4c-0.2,0.1-0.5,0.1-0.7,0.2
								c-0.4,0.1-0.9,0.2-1.3,0.3c-0.3,0.1-0.5,0.1-0.8,0.2c-0.2,0-0.4,0.1-0.6,0.1c-0.4,0.1-0.8,0.1-1.2,0.2c-0.2,0-0.4,0-0.6,0.1
								c-0.5,0.1-1.1,0.1-1.6,0.1c0,0-0.1,0-0.1,0c-0.5,0-0.9,0-1.4,0.1c-0.6,0-1.1,0-1.7,0c-0.2,0-0.3,0-0.5,0
								c-0.7,0-1.4-0.1-2.1-0.1c-0.2,0-0.3,0-0.5-0.1c-0.5,0-1.1-0.1-1.6-0.2c-0.2,0-0.5-0.1-0.7-0.1c-0.5-0.1-1-0.2-1.4-0.2
								c-0.3-0.1-0.7-0.1-1-0.2c-0.1,0-0.3-0.1-0.4-0.1c-0.5-0.1-1-0.3-1.5-0.4c-0.6-0.2-1.2-0.4-1.8-0.6l-18.7,10.8
								c-0.2,0.1-0.5,0.3-0.8,0.4c-0.1,0-0.1,0.1-0.2,0.1c-0.2,0.1-0.3,0.1-0.5,0.2c-0.2,0-0.4,0.1-0.5,0.1c-0.2,0-0.4,0.1-0.7,0.1
								c-0.1,0-0.1,0-0.2,0c-0.3,0-0.6,0-0.9,0.1c0,0-0.1,0-0.1,0c-0.3,0-0.6,0-0.9,0c0,0-0.1,0-0.1,0c-0.3,0-0.6-0.1-0.9-0.1
								c-0.1,0-0.1,0-0.2,0c-0.3-0.1-0.5-0.1-0.8-0.2c0,0-0.1,0-0.1,0c-0.3-0.1-0.6-0.2-0.8-0.4c-1.1-0.6-1.6-1.4-1.6-2.2l0,5.6
								c0,0.8,0.5,1.6,1.6,2.2c0.2,0.1,0.5,0.3,0.8,0.4c0,0,0,0,0,0c0,0,0.1,0,0.1,0c0.2,0.1,0.3,0.1,0.5,0.2c0.1,0,0.2,0,0.3,0.1
								c0.1,0,0.1,0,0.2,0c0,0,0.1,0,0.1,0c0.2,0,0.4,0.1,0.5,0.1c0.1,0,0.1,0,0.2,0c0,0,0.1,0,0.1,0c0.1,0,0.1,0,0.2,0
								c0.2,0,0.4,0,0.5,0c0.1,0,0.1,0,0.2,0c0,0,0.1,0,0.1,0c0.1,0,0.2,0,0.2,0c0.2,0,0.4,0,0.6,0c0,0,0,0,0.1,0c0.1,0,0.1,0,0.2,0
								c0.2,0,0.3,0,0.5-0.1c0.1,0,0.1,0,0.2,0c0.2,0,0.4-0.1,0.5-0.1c0.1,0,0.2,0,0.3-0.1c0.1,0,0.1-0.1,0.2-0.1
								c0.1,0,0.1-0.1,0.2-0.1c0.3-0.1,0.5-0.2,0.8-0.4l18.7-10.8c0.6,0.2,1.2,0.4,1.8,0.6c0,0,0,0,0.1,0c0.5,0.1,1,0.3,1.5,0.4
								c0.1,0,0.3,0.1,0.4,0.1c0.2,0,0.4,0.1,0.6,0.1c0.1,0,0.3,0,0.4,0.1c0.5,0.1,1,0.2,1.4,0.2c0.2,0,0.3,0.1,0.5,0.1
								c0.1,0,0.2,0,0.2,0c0.5,0.1,1.1,0.1,1.6,0.2c0.1,0,0.3,0,0.4,0c0,0,0.1,0,0.1,0c0.7,0.1,1.4,0.1,2.1,0.1c0,0,0.1,0,0.1,0
								c0.1,0,0.3,0,0.4,0c0.6,0,1.1,0,1.7,0c0.1,0,0.2,0,0.3,0c0.4,0,0.7,0,1.1-0.1c0,0,0.1,0,0.1,0c0.4,0,0.9-0.1,1.3-0.1
								c0.1,0,0.2,0,0.3,0c0.2,0,0.4,0,0.6-0.1c0.4,0,0.8-0.1,1.2-0.2c0.2,0,0.4-0.1,0.6-0.1c0.1,0,0.2,0,0.3-0.1
								c0.2,0,0.3-0.1,0.5-0.1c0.5-0.1,0.9-0.2,1.3-0.3c0.2-0.1,0.5-0.1,0.7-0.2c0.4-0.1,0.9-0.2,1.3-0.4c0.2,0,0.3-0.1,0.5-0.1
								c0.1,0,0.2-0.1,0.2-0.1c0.2-0.1,0.4-0.1,0.5-0.2c0.3-0.1,0.7-0.2,1-0.4c0.2-0.1,0.4-0.1,0.5-0.2c0.3-0.1,0.7-0.3,1-0.4
								c0.2-0.1,0.3-0.1,0.5-0.2c0.5-0.2,0.9-0.5,1.4-0.7c0.1-0.1,0.2-0.1,0.3-0.2c0.1-0.1,0.2-0.1,0.3-0.2c0.1-0.1,0.3-0.2,0.4-0.3
								c0.1-0.1,0.2-0.2,0.4-0.2c0.1-0.1,0.3-0.2,0.4-0.3c0.1-0.1,0.2-0.2,0.3-0.3c0.1-0.1,0.2-0.2,0.4-0.3c0.1-0.1,0.2-0.2,0.3-0.3
								c0.1-0.1,0.2-0.2,0.3-0.3c0,0,0.1-0.1,0.1-0.1c0,0,0.1-0.1,0.1-0.1c0.2-0.2,0.4-0.3,0.5-0.5c0.1-0.1,0.1-0.1,0.2-0.2
								c0.2-0.2,0.4-0.5,0.6-0.7c0,0,0,0,0,0c0-0.1,0.1-0.1,0.1-0.2c0.1-0.1,0.2-0.3,0.3-0.4c0.1-0.1,0.1-0.2,0.2-0.2
								c0.1-0.1,0.2-0.3,0.3-0.4c0,0,0-0.1,0.1-0.1c0-0.1,0.1-0.1,0.1-0.2c0.1-0.1,0.1-0.2,0.2-0.3c0-0.1,0.1-0.2,0.1-0.3
								c0.1-0.1,0.1-0.2,0.1-0.4c0-0.1,0-0.1,0.1-0.2c0,0,0-0.1,0-0.1c0-0.1,0.1-0.2,0.1-0.3c0-0.1,0.1-0.2,0.1-0.3
								c0-0.1,0.1-0.2,0.1-0.3c0-0.1,0-0.1,0-0.2c0,0,0-0.1,0-0.1c0-0.1,0-0.2,0.1-0.3c0-0.1,0-0.2,0-0.3c0-0.1,0-0.2,0-0.3
								c0-0.1,0-0.1,0-0.2c0-0.1,0-0.1,0-0.2l0-5.6C236.2,218.8,236.2,218.9,236.2,219z"/>
						</g>
						<g>
							
								<linearGradient id="SVGID_33_" gradientUnits="userSpaceOnUse" x1="212.2965" y1="32.5567" x2="200.6298" y2="-0.4433" gradientTransform="matrix(1 0 0 -1 0 240)">
								<stop  offset="4.900000e-03" style="stop-color:#6AE5EA"/>
								<stop  offset="1" style="stop-color:#342B94"/>
							</linearGradient>
							<path class="st34" d="M229.3,209.1c9.1,5.2,9.1,13.7,0.1,19c-7.7,4.5-19.5,5.1-28.5,2l-18.7,10.8c-2.1,1.2-5.5,1.2-7.7,0
								s-2.1-3.2,0-4.4l18.7-10.8c-5.5-5.2-4.4-12,3.3-16.5C205.6,203.8,220.3,203.8,229.3,209.1z M203.5,224.1c5.3,3,13.8,3,19,0
								c5.2-3,5.2-8-0.1-11c-5.3-3-13.8-3-19,0C198.2,216.1,198.3,221,203.5,224.1"/>
						</g>
					</g>
					<g class="st35">
						<g class="st0">
							<g>
								<path class="st36" d="M222.5,213c-5.3-3-13.8-3-19,0s-5.2,8,0.1,11c5.3,3,13.8,3,19,0C227.8,221,227.8,216.1,222.5,213"/>
							</g>
						</g>
					</g>
					
						<linearGradient id="SVGID_34_" gradientUnits="userSpaceOnUse" x1="213.0175" y1="13.3203" x2="213.0175" y2="62.457" gradientTransform="matrix(1 0 0 -1 0 240)">
						<stop  offset="0" style="stop-color:#6AE5EA"/>
						<stop  offset="1" style="stop-color:#7C4DFF;stop-opacity:0"/>
					</linearGradient>
					<path class="st37" d="M226.5,174.9L226.5,174.9c0.2-2.2-1.1-4.4-4-6c-5.3-3-13.8-3-19,0c-2.8,1.7-4.1,3.9-3.9,6h-0.1v43.7h0
						c0,2,1.4,3.9,4,5.4c5.3,3,13.8,3,19,0c2.6-1.5,3.9-3.5,3.9-5.4h0V174.9z"/>
				</g>
				<g>
					<g>
						<g class="st0">
							
								<linearGradient id="SVGID_35_" gradientUnits="userSpaceOnUse" x1="119.453" y1="126.1139" x2="251.9084" y2="126.1139" gradientTransform="matrix(1 0 0 -1 0 240)">
								<stop  offset="0" style="stop-color:#6AE5EA"/>
								<stop  offset="1" style="stop-color:#342B94"/>
							</linearGradient>
							<path class="st38" d="M251.9,107c0-0.1,0-0.2,0-0.2c0,0,0-0.1,0-0.1c0,0,0,0,0,0c0,0,0-0.1,0-0.1c0-0.1,0-0.2,0-0.2
								c0-0.1,0-0.2,0-0.2c0,0,0,0,0,0c0,0,0,0,0,0c0-0.1,0-0.2,0-0.2c0-0.1,0-0.2-0.1-0.3c0,0,0-0.1,0-0.1c0,0,0,0,0-0.1
								c0,0,0-0.1,0-0.1c0-0.1,0-0.2-0.1-0.3c0-0.1,0-0.1-0.1-0.2c0,0,0,0,0,0c0,0,0,0,0,0c0-0.1-0.1-0.2-0.1-0.3
								c0-0.1-0.1-0.2-0.1-0.2c0,0,0,0,0,0c0,0,0,0,0,0c0-0.1,0-0.1-0.1-0.2c0-0.1-0.1-0.2-0.1-0.2c0-0.1,0-0.1-0.1-0.2c0,0,0,0,0,0
								c0,0,0,0,0,0c0-0.1-0.1-0.2-0.1-0.2c0-0.1-0.1-0.2-0.1-0.3c0,0,0,0,0,0c0,0,0,0,0-0.1c0-0.1-0.1-0.1-0.1-0.2
								c0-0.1-0.1-0.2-0.1-0.3c0,0,0-0.1-0.1-0.1c0,0,0,0,0,0c0-0.1-0.1-0.1-0.1-0.2c-0.1-0.1-0.1-0.2-0.2-0.3c0,0,0,0,0,0
								c-0.1-0.1-0.2-0.3-0.3-0.4c-0.1-0.1-0.1-0.2-0.2-0.3c-0.1-0.1-0.1-0.2-0.2-0.2c0,0,0,0,0,0c0,0,0,0,0,0
								c-0.1-0.1-0.1-0.1-0.2-0.2c-0.1-0.1-0.1-0.1-0.2-0.2c0,0,0,0,0,0c0,0,0,0,0,0c0,0-0.1-0.1-0.1-0.1c-0.1-0.1-0.1-0.1-0.2-0.2
								c0,0,0,0-0.1-0.1c0,0,0,0,0,0c0,0-0.1-0.1-0.1-0.1c-0.1-0.1-0.1-0.1-0.2-0.2c0,0-0.1-0.1-0.1-0.1c0,0,0,0-0.1,0
								c0,0,0,0-0.1-0.1c-0.1-0.1-0.1-0.1-0.2-0.2c-0.1,0-0.1-0.1-0.2-0.1c0,0,0,0,0,0c0,0,0,0,0,0c-0.1,0-0.1-0.1-0.2-0.1
								c-0.1,0-0.1-0.1-0.2-0.1c0,0,0,0,0,0L128.1,30.1c-0.1,0-0.1-0.1-0.2-0.1c-0.1,0-0.1-0.1-0.2-0.1c0,0-0.1,0-0.1-0.1
								c0,0,0,0,0,0c0,0,0,0,0,0c-0.1,0-0.1-0.1-0.2-0.1c-0.1,0-0.1-0.1-0.2-0.1c0,0,0,0,0,0c0,0,0,0,0,0c0,0-0.1,0-0.1,0
								c-0.1,0-0.1,0-0.2-0.1c0,0-0.1,0-0.1,0c0,0,0,0,0,0c0,0,0,0-0.1,0c-0.1,0-0.1,0-0.2,0c0,0-0.1,0-0.1,0c0,0,0,0,0,0
								c0,0,0,0,0,0c-0.1,0-0.2,0-0.2,0c0,0-0.1,0-0.1,0c0,0-0.1,0-0.1,0c0,0-0.1,0-0.1,0c-0.1,0-0.2,0-0.3,0c0,0,0,0,0,0
								c0,0,0,0-0.1,0c-0.1,0-0.2,0-0.3,0.1c0,0,0,0,0,0c-0.1,0-0.3,0.1-0.4,0.2l-5.2,3c0.1-0.1,0.2-0.1,0.4-0.2
								c0.1,0,0.2-0.1,0.3-0.1c0,0,0,0,0.1,0c0.1,0,0.2,0,0.4,0c0,0,0.1,0,0.1,0c0.1,0,0.2,0,0.4,0c0,0,0,0,0,0c0.1,0,0.3,0,0.4,0.1
								c0,0,0,0,0,0c0.1,0,0.3,0.1,0.4,0.1c0,0,0,0,0,0c0.2,0.1,0.3,0.1,0.5,0.2c0,0,0,0,0,0c0.2,0.1,0.3,0.2,0.5,0.3l118.9,68.7
								c0.2,0.1,0.3,0.2,0.5,0.3c0,0,0,0,0,0c0.1,0.1,0.3,0.2,0.4,0.3c0,0,0,0,0,0c0.1,0.1,0.3,0.2,0.4,0.4c0,0,0,0,0,0
								c0.1,0.1,0.3,0.3,0.4,0.4c0,0,0,0,0,0c0.1,0.2,0.3,0.3,0.4,0.5v0c0.3,0.3,0.5,0.7,0.7,1c0.1,0.1,0.1,0.2,0.2,0.3
								c0.1,0.1,0.1,0.2,0.2,0.3c0,0,0,0.1,0.1,0.1c0.1,0.1,0.2,0.3,0.2,0.5c0,0,0,0,0,0.1c0.1,0.2,0.2,0.4,0.3,0.6c0,0,0,0,0,0
								c0.1,0.2,0.2,0.4,0.2,0.6c0,0,0,0,0,0c0.1,0.2,0.1,0.4,0.2,0.6c0,0,0,0,0,0c0.1,0.2,0.1,0.4,0.1,0.6c0,0,0,0,0,0.1
								c0,0.2,0.1,0.4,0.1,0.6c0,0,0,0,0,0c0,0.2,0.1,0.4,0.1,0.6c0,0,0,0,0,0c0,0.2,0,0.4,0,0.6l-0.2,84.9c0,0.2,0,0.4,0,0.5
								c0,0,0,0,0,0c0,0.2,0,0.3-0.1,0.5c0,0,0,0,0,0.1c0,0.1-0.1,0.3-0.1,0.4c0,0,0,0,0,0.1c0,0.1-0.1,0.2-0.1,0.4c0,0,0,0,0,0
								c-0.1,0.1-0.1,0.2-0.2,0.4c-0.1,0.2-0.2,0.3-0.3,0.4c0,0-0.1,0.1-0.1,0.1c-0.1,0.1-0.3,0.2-0.4,0.3l5.2-3
								c0.1-0.1,0.3-0.2,0.4-0.3c0,0,0.1-0.1,0.1-0.1c0.1-0.1,0.2-0.3,0.3-0.4c0,0,0,0,0,0c0.1-0.1,0.1-0.2,0.2-0.3c0,0,0,0,0,0
								c0,0,0,0,0,0c0-0.1,0.1-0.1,0.1-0.2c0,0,0-0.1,0-0.1c0,0,0,0,0-0.1c0,0,0,0,0-0.1c0-0.1,0-0.2,0.1-0.2c0,0,0-0.1,0-0.1
								c0,0,0,0,0-0.1c0,0,0-0.1,0-0.1c0-0.1,0-0.2,0-0.2c0,0,0-0.1,0-0.1c0,0,0,0,0,0c0,0,0,0,0-0.1c0-0.1,0-0.2,0-0.2
								c0-0.1,0-0.2,0-0.2c0,0,0,0,0,0l0.2-84.9C251.9,107.1,251.9,107.1,251.9,107z"/>
							<g>
								<g>
									
										<linearGradient id="SVGID_36_" gradientUnits="userSpaceOnUse" x1="118.2744" y1="209.4858" x2="250.2744" y2="33.9861" gradientTransform="matrix(1 0 0 -1 0 240)">
										<stop  offset="4.900000e-03" style="stop-color:#6AE5EA"/>
										<stop  offset="1" style="stop-color:#342B94"/>
									</linearGradient>
									<path class="st39" d="M241.8,101.8c2.7,1.6,4.9,5.3,4.9,8.4l-0.2,84.9c0,3.1-2.2,4.3-4.9,2.8l-118.9-68.7
										c-2.7-1.6-4.9-5.3-4.9-8.4L118,36c0-3.1,2.2-4.3,4.9-2.8L241.8,101.8z"/>
								</g>
							</g>
						</g>
					</g>
					<g>
						<g class="st0">
							<g>
								<path class="st40" d="M230.3,126.9C230.3,126.9,230.3,126.9,230.3,126.9C230.3,126.9,230.3,126.9,230.3,126.9 M239.3,131.9
									c0,0.1,0,0.2,0,0.3C239.3,132.1,239.3,132,239.3,131.9 M230.3,126.7C230.3,126.7,230.3,126.7,230.3,126.7
									C230.3,126.7,230.3,126.7,230.3,126.7 M239.3,131.6c0,0.1,0,0.2,0,0.3C239.3,131.7,239.3,131.7,239.3,131.6 M235.4,116.3
									c2.4,5.1,3.8,10.4,3.9,15.2C239.1,126.6,237.7,121.3,235.4,116.3 M219.5,98.1l0,10.3c-6-3.5-10.9-0.7-10.9,6.2
									c0-6.9,4.9-9.7,10.9-6.2c3,1.8,5.8,4.8,7.7,8.2c-0.4-0.7-0.9-1.4-1.3-2.1l5.3-5.2C227.9,104.6,223.9,100.6,219.5,98.1"/>
								<path class="st41" d="M219.7,143.7C219.7,143.7,219.7,143.7,219.7,143.7C219.7,143.7,219.7,143.7,219.7,143.7 M219.9,143.8
									C219.9,143.8,219.9,143.8,219.9,143.8C219.9,143.8,219.9,143.8,219.9,143.8 M220.2,144C220.2,144,220.2,144,220.2,144
									C220.2,144,220.2,144,220.2,144 M219.7,133.4C219.6,133.4,219.6,133.4,219.7,133.4C219.6,133.4,219.6,133.4,219.7,133.4
									 M219.8,133.5C219.8,133.5,219.8,133.5,219.8,133.5C219.8,133.5,219.8,133.5,219.8,133.5 M220.1,133.6
									C220.1,133.6,220,133.6,220.1,133.6C220,133.6,220.1,133.6,220.1,133.6 M220.3,133.7c0,0-0.1,0-0.1-0.1
									C220.2,133.7,220.2,133.7,220.3,133.7 M231.2,109.2L231.2,109.2l-5.3,5.2c0.5,0.7,0.9,1.4,1.3,2.1c1.9,3.3,3,6.9,3.1,10.1
									c0,0,0,0,0,0c0,0.1,0,0.1,0,0.2c0,0,0,0,0,0c0,0.1,0,0.1,0,0.2c0,6.5-4.4,9.4-10,6.7c3.8,1.8,7.1,1.2,8.9-1.7l8,9.2
									c1.4-2.3,2.1-5.3,2.1-9c0-0.1,0-0.2,0-0.3c0,0,0,0,0-0.1c0-0.1,0-0.2,0-0.3c0,0,0,0,0,0c-0.1-4.8-1.5-10.1-3.9-15.2
									C234.2,113.9,232.8,111.5,231.2,109.2"/>
								<path class="st42" d="M199.8,111.5L199.8,111.5L199.8,111.5 M199.7,111.1C199.7,111.2,199.8,111.2,199.7,111.1
									C199.8,111.2,199.7,111.2,199.7,111.1 M199.7,110.8c0,0,0,0.1,0,0.1C199.7,110.9,199.7,110.9,199.7,110.8 M199.7,110.5
									c0,0,0,0.1,0,0.1C199.7,110.6,199.7,110.6,199.7,110.5 M199.7,110.3c0,0,0,0.1,0,0.1C199.7,110.3,199.7,110.3,199.7,110.3
									 M199.7,110c0,0,0,0.1,0,0.1C199.7,110.1,199.7,110,199.7,110 M208.6,114.9c0,0.7,0.1,1.5,0.2,2.2l-8.8-3.1
									c1.8,11.5,9.8,24,19.4,29.5c0.1,0,0.2,0.1,0.2,0.1c0,0,0,0,0.1,0c0.1,0,0.1,0.1,0.2,0.1c0,0,0,0,0,0c0.1,0,0.2,0.1,0.2,0.1
									c0,0,0,0,0,0c7.2,3.8,13.6,2.8,16.9-2.7l0,0l-8-9.2c-1.7,2.9-5.1,3.6-8.9,1.7c0,0,0,0,0,0c0,0-0.1,0-0.1-0.1c0,0,0,0-0.1,0
									c0,0-0.1,0-0.1,0c-0.1,0-0.1-0.1-0.2-0.1c0,0,0,0-0.1,0c0,0-0.1,0-0.1-0.1c0,0,0,0-0.1,0c-0.1,0-0.1-0.1-0.2-0.1
									C213.6,129.9,208.8,121.7,208.6,114.9 M199.7,109.7c0,0,0,0.1,0,0.1C199.7,109.8,199.7,109.7,199.7,109.7 M208.6,114.8
									c0,0,0,0.1,0,0.1C208.6,114.8,208.6,114.8,208.6,114.8 M208.6,114.5c0,0.1,0,0.1,0,0.2C208.6,114.7,208.6,114.6,208.6,114.5
									"/>
								<path class="st43" d="M219.5,98.1c-10.9-6.3-19.8-1.2-19.8,11.3c0,0.1,0,0.2,0,0.3c0,0,0,0.1,0,0.1c0,0.1,0,0.1,0,0.2
									c0,0,0,0.1,0,0.1c0,0.1,0,0.1,0,0.2c0,0,0,0.1,0,0.1c0,0.1,0,0.1,0,0.2c0,0,0,0.1,0,0.1c0,0.1,0,0.1,0,0.2c0,0,0,0.1,0,0.1
									c0,0.1,0,0.1,0,0.2c0,0,0,0,0,0.1c0,0.1,0,0.2,0,0.3l0,0c0.1,0.8,0.2,1.7,0.3,2.6l0,0l8.8,3.1c-0.1-0.8-0.2-1.5-0.2-2.2
									c0,0,0,0,0,0c0,0,0-0.1,0-0.1c0,0,0,0,0-0.1c0-0.1,0-0.1,0-0.2c0-6.9,4.9-9.7,10.9-6.2L219.5,98.1"/>
								<path class="st43" d="M198.3,137.4c-0.9-0.5-1.6-0.1-1.6,0.9c0,1,0.7,2.2,1.6,2.8c0.9,0.5,1.6,0.1,1.6-0.9
									S199.1,137.9,198.3,137.4"/>
								
									<linearGradient id="SVGID_37_" gradientUnits="userSpaceOnUse" x1="196.648" y1="92.526" x2="199.832" y2="92.526" gradientTransform="matrix(1 0 0 -1 0 240)">
									<stop  offset="0" style="stop-color:#FFECB3"/>
									<stop  offset="1" style="stop-color:#FFD13D"/>
								</linearGradient>
								<path class="st44" d="M198.2,145.6c-0.9-0.5-1.6-0.1-1.6,0.9c0,1,0.7,2.2,1.6,2.8c0.9,0.5,1.6,0.1,1.6-0.9
									C199.8,147.4,199.1,146.2,198.2,145.6"/>
								<path class="st42" d="M198.2,153.9c-0.9-0.5-1.6-0.1-1.6,0.9c0,1,0.7,2.2,1.6,2.7c0.9,0.5,1.6,0.1,1.6-0.9
									C199.8,155.6,199.1,154.4,198.2,153.9"/>
								<path class="st2" d="M198.2,162.1c-0.9-0.5-1.6-0.1-1.6,0.9s0.7,2.2,1.6,2.8c0.9,0.5,1.6,0.1,1.6-0.9
									S199.1,162.6,198.2,162.1"/>
								<path class="st43" d="M238.5,161.7l-34.1-19.7c-0.4-0.2-0.7,0-0.7,0.4s0.3,0.9,0.7,1.1l34.1,19.7c0.4,0.2,0.7,0,0.7-0.4
									C239.2,162.5,238.9,161.9,238.5,161.7"/>
								
									<linearGradient id="SVGID_38_" gradientUnits="userSpaceOnUse" x1="203.757" y1="79.1238" x2="239.1501" y2="79.1238" gradientTransform="matrix(1 0 0 -1 0 240)">
									<stop  offset="0" style="stop-color:#FFECB3"/>
									<stop  offset="1" style="stop-color:#FFD13D"/>
								</linearGradient>
								<path class="st45" d="M238.5,169.9l-34.1-19.7c-0.4-0.2-0.7,0-0.7,0.4c0,0.4,0.3,0.9,0.7,1.1l34.1,19.7
									c0.4,0.2,0.7,0,0.7-0.4C239.2,170.7,238.9,170.2,238.5,169.9"/>
								<path class="st42" d="M238.5,178.2l-34.1-19.7c-0.4-0.2-0.7,0-0.7,0.4c0,0.4,0.3,0.9,0.7,1.1l34.1,19.7
									c0.4,0.2,0.7,0,0.7-0.4S238.8,178.4,238.5,178.2"/>
								<path class="st2" d="M238.4,186.4l-34.1-19.7c-0.4-0.2-0.7,0-0.7,0.4c0,0.4,0.3,0.9,0.7,1.1l34.1,19.7
									c0.4,0.2,0.7,0,0.7-0.4S238.8,186.6,238.4,186.4"/>
							</g>
						</g>
					</g>
					<g>
						<g>
							<g>
								<g class="st0">
									<g>
										
											<linearGradient id="SVGID_39_" gradientUnits="userSpaceOnUse" x1="109.0042" y1="141.523" x2="191.9095" y2="141.523" gradientTransform="matrix(1 0 0 -1 0 240)">
											<stop  offset="0" style="stop-color:#6A67EA"/>
											<stop  offset="1" style="stop-color:#342B94"/>
										</linearGradient>
										<path class="st46" d="M191.9,93.2c0-0.1,0-0.1,0-0.2s0-0.1,0-0.2c0-0.1,0-0.1,0-0.2c0-0.1,0-0.1,0-0.2c0,0,0,0,0,0l0,0
											c0-0.1,0-0.1,0-0.2c0-0.1,0-0.1,0-0.2c0-0.1,0-0.1,0-0.2c0-0.1,0-0.1,0-0.2c0,0,0-0.1,0-0.1c0,0,0,0,0,0c0,0,0,0,0,0
											c0-0.1,0-0.1-0.1-0.2c0-0.1,0-0.1-0.1-0.2c0-0.1,0-0.1-0.1-0.2s0-0.1-0.1-0.2c0,0,0-0.1,0-0.1c0,0,0,0,0,0c0,0,0,0,0,0
											c0-0.1,0-0.1-0.1-0.2c0-0.1-0.1-0.1-0.1-0.2c0-0.1-0.1-0.1-0.1-0.2c0-0.1-0.1-0.1-0.1-0.2c0,0,0,0,0,0c0,0,0,0,0,0
											c-0.1-0.1-0.2-0.3-0.2-0.4c-0.1-0.1-0.1-0.2-0.2-0.3c0,0,0,0,0,0c0-0.1-0.1-0.1-0.1-0.2c0-0.1-0.1-0.1-0.1-0.1
											c0,0-0.1-0.1-0.1-0.1c0,0-0.1-0.1-0.1-0.1c0,0,0,0,0,0c0,0,0,0,0,0c0,0-0.1-0.1-0.1-0.1c0,0-0.1-0.1-0.1-0.1
											c0,0-0.1-0.1-0.1-0.1c0,0-0.1-0.1-0.1-0.1c0,0,0,0-0.1-0.1c0,0,0,0,0,0c0,0,0,0-0.1,0c0,0-0.1-0.1-0.1-0.1
											s-0.1-0.1-0.1-0.1c0,0-0.1-0.1-0.1-0.1s-0.1-0.1-0.1-0.1c0,0,0,0,0,0l-75.2-43.4c0,0-0.1,0-0.1-0.1c0,0-0.1,0-0.1-0.1
											s-0.1,0-0.1-0.1c0,0-0.1,0-0.1-0.1c0,0-0.1,0-0.1,0c0,0,0,0,0,0c0,0,0,0,0,0c0,0-0.1,0-0.1,0c0,0-0.1,0-0.1,0
											c0,0-0.1,0-0.1,0c0,0-0.1,0-0.1,0c0,0-0.1,0-0.1,0c0,0,0,0,0,0c0,0,0,0,0,0c-0.1,0-0.1,0-0.1,0c-0.1,0-0.1,0-0.2,0
											c-0.1,0-0.1,0-0.2,0c0,0,0,0,0,0s0,0,0,0c-0.1,0-0.1,0-0.2,0.1c-0.1,0-0.2,0.1-0.3,0.1l-2.3,1.3c0.1-0.1,0.3-0.1,0.5-0.2
											c0,0,0,0,0,0c0.2,0,0.3,0,0.5,0c0,0,0,0,0,0c0.2,0,0.4,0.1,0.6,0.1c0,0,0,0,0,0c0.2,0.1,0.4,0.2,0.6,0.3l75.2,43.4
											c0.2,0.1,0.4,0.3,0.6,0.4c0,0,0,0,0,0c0.2,0.2,0.4,0.3,0.6,0.5c0,0,0,0,0,0c0.4,0.4,0.7,0.9,1,1.3c0,0,0,0,0,0
											c0.1,0.2,0.3,0.5,0.4,0.7c0,0,0,0,0,0c0.1,0.3,0.2,0.5,0.3,0.8c0,0,0,0,0,0c0.1,0.3,0.1,0.5,0.2,0.8c0,0,0,0,0,0
											c0,0.3,0.1,0.5,0.1,0.8l-0.2,56.2c0,0.2,0,0.5-0.1,0.7c0,0,0,0,0,0c0,0.2-0.1,0.4-0.2,0.6c0,0,0,0,0,0
											c-0.1,0.1-0.1,0.3-0.2,0.4c0,0-0.1,0.1-0.1,0.1c-0.1,0.1-0.2,0.2-0.3,0.3l2.3-1.3c0.1-0.1,0.2-0.2,0.3-0.3
											c0,0,0.1-0.1,0.1-0.1c0,0,0.1-0.1,0.1-0.1c0-0.1,0.1-0.1,0.1-0.2c0,0,0,0,0,0c0,0,0,0,0,0c0-0.1,0-0.1,0.1-0.2
											c0-0.1,0-0.1,0.1-0.2c0-0.1,0-0.1,0-0.2c0,0,0,0,0-0.1c0,0,0,0,0,0c0,0,0,0,0-0.1c0,0,0-0.1,0-0.2c0,0,0-0.1,0-0.2
											c0,0,0-0.1,0-0.1c0,0,0-0.1,0-0.2c0,0,0,0,0,0l0.2-56.2C191.9,93.3,191.9,93.3,191.9,93.2z"/>
									</g>
									<g>
										<path class="st2" d="M186.5,89.2c1.7,1,3.1,3.4,3.1,5.4l-0.2,56.2c0,2-1.4,2.8-3.2,1.8l-75.2-43.4c-1.7-1-3.1-3.4-3.1-5.4
											l0.2-56.2c0-2,1.4-2.8,3.2-1.8L186.5,89.2z"/>
										
											<linearGradient id="SVGID_40_" gradientUnits="userSpaceOnUse" x1="110.93" y1="140.7465" x2="186.594" y2="140.7465" gradientTransform="matrix(1 0 0 -1 0 240)">
											<stop  offset="0" style="stop-color:#6AC2EA"/>
											<stop  offset="1" style="stop-color:#34BFBC"/>
										</linearGradient>
										<path class="st47" d="M112.6,106.7c-0.8-0.5-1.6-1.9-1.6-2.8l0.2-54.6L185,91.8c0.8,0.5,1.6,1.9,1.6,2.8l-0.2,54.6
											L112.6,106.7z"/>
									</g>
								</g>
							</g>
						</g>
						<g class="st48">
							<g class="st0">
								<g>
									<path class="st36" d="M118.7,77.9c-0.6-0.3-1.1-0.1-1.1,0.6l0,15.7c0,0.7,0.5,1.5,1.1,1.8c0.6,0.3,1.1,0.1,1.1-0.6l0-15.7
										C119.8,79,119.3,78.2,118.7,77.9"/>
									<path class="st36" d="M125.7,61.5c-0.4-0.2-0.8-0.1-1.1,0.3l-0.1,36.4c0,0.7,0.5,1.5,1.1,1.8s1.1,0.1,1.1-0.6l0.1-36.9
										C126.5,62.1,126.1,61.7,125.7,61.5 M125.7,59.6c-0.6-0.3-1.1-0.1-1.1,0.6l0,0.6c0.3-0.2,0.7-0.2,1.1,0
										c0.4,0.2,0.8,0.6,1.1,1l0-0.4C126.8,60.8,126.3,59.9,125.7,59.6"/>
									<path class="st36" d="M131.6,76.2C131.6,76.2,131.6,76.2,131.6,76.2l-0.1,26.1c0,0.7,0.5,1.5,1.1,1.8
										c0.6,0.3,1.1,0.1,1.1-0.6l0.1-25.9c-0.3-0.1-0.7-0.2-1.1-0.5C132.2,76.9,131.9,76.6,131.6,76.2 M132.6,75.6
										c-0.4-0.2-0.7-0.2-0.9,0c0.3,0.4,0.6,0.7,0.9,0.9c0.4,0.2,0.7,0.4,1,0.4C133.5,76.4,133.1,75.9,132.6,75.6"/>
									<path class="st36" d="M139.6,76.7c-0.4-0.2-0.8-0.4-1.1-0.4l-0.1,30c0,0.7,0.5,1.5,1.1,1.8s1.1,0.1,1.1-0.6l0.1-29.3
										C140.3,77.4,140,76.9,139.6,76.7 M139.6,75.2c-0.5-0.3-1-0.1-1.1,0.5c0.3,0.1,0.7,0.2,1.1,0.5c0.4,0.2,0.8,0.6,1.1,1.2
										l0-0.2C140.7,76.3,140.2,75.5,139.6,75.2"/>
									<path class="st36" d="M147.5,99.2c-0.3,0.2-0.7,0.3-1,0c-0.4-0.2-0.7-0.6-1-1.1c0,0.1,0,0.1,0,0.2l0,12
										c0,0.7,0.5,1.5,1.1,1.8s1.1,0.1,1.1-0.6l0-12C147.6,99.4,147.6,99.3,147.5,99.2 M146.5,97.7c-0.3-0.2-0.6-0.2-0.8,0
										c0.3,0.5,0.5,0.8,0.8,1c0.3,0.2,0.5,0.1,0.8-0.1C147.1,98.2,146.8,97.9,146.5,97.7"/>
									<path class="st36" d="M153.5,79.3c-0.4-0.2-0.7,0-1.1,0.5l-0.1,34.5c0,0.7,0.5,1.5,1.1,1.8s1.1,0.1,1.1-0.6l0.1-35.5
										C154.3,79.8,153.9,79.6,153.5,79.3 M153.5,77.8c-0.6-0.3-1.1-0.1-1.1,0.6l0,0.3c0.3-0.2,0.7-0.3,1.1,0
										c0.4,0.2,0.7,0.5,1.1,0.7C154.5,78.8,154,78.1,153.5,77.8"/>
									<path class="st36" d="M159.4,84.7l-0.1,33.6c0,0.7,0.5,1.5,1.1,1.8s1.1,0.1,1.1-0.6l0.1-33.2c-0.3-0.4-0.7-0.7-1.1-0.9
										C160.1,85.2,159.7,85,159.4,84.7 M160.5,83.9c-0.5-0.3-0.9-0.1-1,0.3c0.3,0.2,0.6,0.4,1,0.7c0.4,0.2,0.8,0.5,1.1,0.9
										C161.5,85,161,84.2,160.5,83.9"/>
									<path class="st36" d="M166.3,96.3l-0.1,26c0,0.7,0.5,1.5,1.1,1.8c0.6,0.3,1.1,0.1,1.1-0.6l0.1-25.1c-0.3-0.6-0.7-1-1.1-1.3
										C167,97,166.6,96.7,166.3,96.3 M167.4,95.7c-0.4-0.2-0.8-0.2-1,0.1c0.3,0.3,0.6,0.6,0.9,0.8c0.4,0.2,0.8,0.6,1.1,1l0-0.1
										C168.5,96.8,168,96,167.4,95.7"/>
									<path class="st36" d="M173.2,114.3c0,0,0,0.1,0,0.1l0,12c0,0.7,0.5,1.5,1.1,1.8c0.6,0.3,1.1,0.1,1.1-0.6l0-11.9
										c-0.3,0-0.7-0.1-1.1-0.3C173.9,115.1,173.5,114.7,173.2,114.3 M174.3,113.7c-0.4-0.2-0.7-0.2-0.9,0
										c0.3,0.4,0.6,0.7,0.9,0.9c0.3,0.2,0.7,0.3,0.9,0.3C175.1,114.4,174.7,114,174.3,113.7"/>
									<path class="st36" d="M181.3,108.8c-0.6-0.3-1.1-0.1-1.1,0.6c0.3,0,0.7,0.1,1.1,0.3c0.1,0.1,0.3,0.3,0.3,0.5
										c0,0.2-0.1,0.2-0.3,0.2c-0.4-0.2-0.8-0.3-1.1-0.2l-0.1,20.3c0,0.7,0.5,1.5,1.1,1.8c0.6,0.3,1.1,0.1,1.1-0.6l0.1-21
										C182.3,109.9,181.9,109.1,181.3,108.8"/>
									<path class="st36" d="M119.6,99.7l-1.9-1.1c-0.4-0.3-0.8,0-0.8,0.5c0,0.5,0.4,1.1,0.8,1.4l1.9,1.1c0.4,0.3,0.8,0.1,0.8-0.5
										C120.4,100.5,120,99.9,119.6,99.7"/>
									<path class="st36" d="M126.5,103.7l-1.9-1.1c-0.4-0.3-0.8,0-0.8,0.5c0,0.5,0.4,1.1,0.8,1.4l1.9,1.1
										c0.4,0.3,0.8,0.1,0.8-0.5C127.3,104.5,127,103.9,126.5,103.7"/>
									<path class="st36" d="M133.5,107.7l-1.9-1.1c-0.4-0.3-0.8,0-0.8,0.5c0,0.5,0.4,1.1,0.8,1.4l1.9,1.1
										c0.4,0.3,0.8,0.1,0.8-0.5C134.3,108.6,133.9,107.9,133.5,107.7"/>
									<path class="st36" d="M140.4,111.7l-1.9-1.1c-0.4-0.3-0.8,0-0.8,0.5c0,0.5,0.4,1.1,0.8,1.4l1.9,1.1
										c0.4,0.3,0.8,0.1,0.8-0.5C141.2,112.6,140.9,112,140.4,111.7"/>
									<path class="st36" d="M147.4,115.7l-1.9-1.1c-0.4-0.3-0.8,0-0.8,0.5c0,0.5,0.4,1.1,0.8,1.4l1.9,1.1
										c0.4,0.3,0.8,0.1,0.8-0.5C148.2,116.6,147.8,116,147.4,115.7"/>
									<path class="st36" d="M154.3,119.7l-1.9-1.1c-0.4-0.3-0.8,0-0.8,0.5c0,0.5,0.4,1.1,0.8,1.4l1.9,1.1
										c0.4,0.3,0.8,0.1,0.8-0.5C155.1,120.6,154.8,120,154.3,119.7"/>
									<path class="st36" d="M161.3,123.7l-1.9-1.1c-0.4-0.3-0.8,0-0.8,0.5c0,0.5,0.4,1.1,0.8,1.4l1.9,1.1
										c0.4,0.3,0.8,0.1,0.8-0.5C162.1,124.6,161.7,124,161.3,123.7"/>
									<path class="st36" d="M168.2,127.8l-1.9-1.1c-0.4-0.3-0.8,0-0.8,0.5c0,0.5,0.4,1.1,0.8,1.4l1.9,1.1
										c0.4,0.3,0.8,0.1,0.8-0.5C169,128.6,168.7,128,168.2,127.8"/>
									<path class="st36" d="M175.2,131.8l-1.9-1.1c-0.4-0.3-0.8,0-0.8,0.5c0,0.5,0.4,1.1,0.8,1.4l1.9,1.1
										c0.4,0.3,0.8,0.1,0.8-0.5C176,132.6,175.6,132,175.2,131.8"/>
									<path class="st36" d="M182.1,135.8l-1.9-1.1c-0.4-0.3-0.8,0-0.8,0.5c0,0.5,0.4,1.1,0.8,1.4l1.9,1.1
										c0.4,0.3,0.8,0.1,0.8-0.5C182.9,136.7,182.6,136,182.1,135.8"/>
									<path class="st36" d="M125.7,60.9c-0.4-0.2-0.8-0.2-1.1,0c-1.2,0.7-2,4.3-2.7,8.1c-0.8,4.1-1.7,8.7-3.2,7.9
										c-0.1-0.1-0.3,0-0.3,0.2c0,0.2,0.1,0.4,0.3,0.5c2,1.1,2.8-3.3,3.8-8.1c0.6-3,1.3-6.3,2.2-7.5c0.3-0.4,0.7-0.6,1.1-0.3
										c0.4,0.2,0.8,0.6,1.1,1.1c0.9,1.5,1.5,3.9,2.1,6.3c0.7,2.8,1.4,5.6,2.6,7.2c0.3,0.4,0.7,0.7,1.1,1c0.4,0.2,0.8,0.4,1.1,0.5
										c1.2,0.3,1.9-0.2,2.6-0.7c0.6-0.5,1.3-0.9,2.2-0.7c0.3,0.1,0.7,0.2,1.1,0.4c0.4,0.2,0.8,0.8,1.1,1.5
										c0.9,2.1,1.5,5.9,2.1,9.4c0.7,4.3,1.4,8.5,2.7,10.5c0.3,0.5,0.7,0.9,1,1.1c0.4,0.2,0.7,0.2,1,0c1.3-0.9,2-5.2,2.7-10
										c0.6-3.7,1.3-7.8,2.2-9.3c0.3-0.5,0.7-0.7,1.1-0.5c0.4,0.2,0.8,0.5,1.1,0.7c1,0.7,1.6,1.5,2.3,2.2c0.7,0.8,1.4,1.6,2.5,2.5
										c0.3,0.2,0.7,0.5,1.1,0.7c0.4,0.2,0.8,0.6,1.1,0.9c0.9,1.1,1.5,2.8,2.2,4.6c0.7,2,1.4,4,2.6,5.3c0.3,0.3,0.7,0.6,1.1,0.9
										c0.4,0.2,0.8,0.7,1.1,1.3c0.9,1.7,1.5,4.6,2.1,7.4c0.7,3.4,1.4,6.6,2.6,8.4c0.3,0.4,0.7,0.8,1.1,1c0.4,0.2,0.8,0.3,1.1,0.3
										c1.2,0,2-1.5,2.7-2.9c0.6-1.3,1.3-2.5,2.2-2.7c0.3-0.1,0.7,0,1.1,0.2c0.1,0.1,0.3,0,0.3-0.2c0-0.2-0.1-0.4-0.3-0.5
										c-0.4-0.2-0.8-0.3-1.1-0.3c-1.2,0-2,1.5-2.7,2.9c-0.7,1.3-1.3,2.6-2.3,2.7c-0.3,0-0.6-0.1-0.9-0.3
										c-0.3-0.2-0.6-0.5-0.9-0.9c-1-1.6-1.7-4.7-2.3-7.8c-0.7-3.4-1.4-6.6-2.6-8.4c-0.3-0.5-0.7-0.8-1.1-1
										c-0.4-0.2-0.7-0.5-0.9-0.8c-1-1.1-1.6-2.9-2.3-4.8c-0.7-2-1.4-4-2.6-5.3c-0.3-0.3-0.7-0.6-1.1-0.9c-0.4-0.2-0.7-0.4-1-0.7
										c-1-0.7-1.7-1.5-2.3-2.3c-0.7-0.8-1.4-1.6-2.5-2.5c-0.3-0.2-0.7-0.5-1.1-0.7c-0.4-0.2-0.7-0.2-1.1,0c-1.2,1-1.9,5.2-2.7,10
										c-0.7,4.1-1.4,8.7-2.5,9.7c-0.2,0.2-0.5,0.3-0.8,0.1c-0.3-0.2-0.6-0.5-0.8-1c-1.1-1.9-1.7-6.1-2.4-9.9
										c-0.7-4.3-1.4-8.4-2.6-10.5c-0.3-0.5-0.7-0.9-1.1-1.2c-0.4-0.2-0.7-0.4-1.1-0.5c-1.2-0.3-1.9,0.2-2.6,0.7
										c-0.7,0.5-1.3,0.9-2.3,0.7c-0.3-0.1-0.6-0.2-1-0.4c-0.3-0.2-0.6-0.5-0.9-0.9c-1-1.4-1.7-4.1-2.3-6.6
										c-0.7-2.8-1.4-5.6-2.6-7.2C126.5,61.4,126.1,61.1,125.7,60.9"/>
								</g>
							</g>
						</g>
					</g>
				</g>
				<g>
					<g>
						<g class="st0">
							<g>
								
									<linearGradient id="SVGID_41_" gradientUnits="userSpaceOnUse" x1="101.14" y1="31.047" x2="111.343" y2="31.047" gradientTransform="matrix(1 0 0 -1 0 240)">
									<stop  offset="0" style="stop-color:#FFA03D"/>
									<stop  offset="1" style="stop-color:#F0720F"/>
								</linearGradient>
								<polygon class="st49" points="111.3,197.2 111.3,214.8 101.1,220.7 101.2,203.1 								"/>
							</g>
							<g>
								
									<linearGradient id="SVGID_42_" gradientUnits="userSpaceOnUse" x1="89.9658" y1="38.1836" x2="105.8832" y2="19.4806" gradientTransform="matrix(1 0 0 -1 0 240)">
									<stop  offset="0" style="stop-color:#FFA03D"/>
									<stop  offset="1" style="stop-color:#F0720F"/>
								</linearGradient>
								<polygon class="st50" points="101.2,203.1 101.1,220.7 90.9,214.8 90.9,197.2 								"/>
							</g>
							<g>
								
									<linearGradient id="SVGID_43_" gradientUnits="userSpaceOnUse" x1="90.939" y1="42.831" x2="111.343" y2="42.831" gradientTransform="matrix(1 0 0 -1 0 240)">
									<stop  offset="0" style="stop-color:#FFECB3"/>
									<stop  offset="1" style="stop-color:#FFD13D"/>
								</linearGradient>
								<polygon class="st51" points="111.3,197.2 101.2,203.1 90.9,197.2 101.1,191.3 								"/>
							</g>
						</g>
					</g>
					<g>
						<g class="st0">
							<g>
								
									<linearGradient id="SVGID_44_" gradientUnits="userSpaceOnUse" x1="122.231" y1="28.19" x2="122.231" y2="9.854" gradientTransform="matrix(1 0 0 -1 0 240)">
									<stop  offset="4.900000e-03" style="stop-color:#6AE5EA"/>
									<stop  offset="1" style="stop-color:#342B94"/>
								</linearGradient>
								<polygon class="st52" points="127.3,211.8 127.3,224.2 117.1,230.1 117.2,217.7 								"/>
							</g>
							<g>
								
									<linearGradient id="SVGID_45_" gradientUnits="userSpaceOnUse" x1="106.9417" y1="25.0002" x2="120.2759" y2="9.3325" gradientTransform="matrix(1 0 0 -1 0 240)">
									<stop  offset="0" style="stop-color:#6A67EA"/>
									<stop  offset="1" style="stop-color:#342B94"/>
								</linearGradient>
								<polygon class="st53" points="117.2,217.7 117.1,230.1 106.9,224.2 106.9,211.8 								"/>
							</g>
							<g>
								
									<linearGradient id="SVGID_46_" gradientUnits="userSpaceOnUse" x1="113.6396" y1="33.3447" x2="120.6399" y2="23.011" gradientTransform="matrix(1 0 0 -1 0 240)">
									<stop  offset="0" style="stop-color:#8380FF"/>
									<stop  offset="1" style="stop-color:#6AC5EA"/>
								</linearGradient>
								<polygon class="st54" points="127.3,211.8 117.2,217.7 106.9,211.8 117.1,205.9 								"/>
							</g>
						</g>
					</g>
					<g class="st0">
						
							<linearGradient id="SVGID_47_" gradientUnits="userSpaceOnUse" x1="123.323" y1="10.3152" x2="136.0811" y2="10.3152" gradientTransform="matrix(1 0 0 -1 0 240)">
							<stop  offset="0" style="stop-color:#6A67EA"/>
							<stop  offset="1" style="stop-color:#342B94"/>
						</linearGradient>
						<path class="st55" d="M136.1,223.8c0,0.1,0,0.1,0,0.2c0,0.1,0,0.1,0,0.2c0,0.1,0,0.1-0.1,0.2c0,0.1,0,0.1-0.1,0.2
							c0,0.1-0.1,0.1-0.1,0.2c0,0-0.1,0.1-0.1,0.1c0,0.1-0.1,0.1-0.1,0.2c0,0-0.1,0.1-0.1,0.1c-0.1,0.1-0.2,0.2-0.3,0.3
							c0,0-0.1,0.1-0.1,0.1c-0.1,0.1-0.1,0.1-0.2,0.2c-0.1,0-0.1,0.1-0.2,0.1c-0.1,0.1-0.2,0.1-0.2,0.2c-0.1,0.1-0.2,0.1-0.2,0.2
							c-0.3,0.2-0.6,0.3-0.9,0.4c-0.1,0-0.2,0.1-0.2,0.1c-0.2,0.1-0.4,0.1-0.6,0.2c-0.2,0.1-0.4,0.1-0.6,0.2
							c-0.3,0.1-0.5,0.1-0.8,0.1c-0.1,0-0.1,0-0.2,0c-0.4,0-0.7,0.1-1.1,0.1c-0.1,0-0.1,0-0.2,0c-0.4,0-0.7,0-1.1-0.1
							c-0.1,0-0.1,0-0.2,0c-0.3,0-0.7-0.1-1-0.2c-0.1,0-0.1,0-0.2,0c-0.3-0.1-0.6-0.2-0.9-0.3c-0.1,0-0.1,0-0.2-0.1
							c-0.3-0.1-0.7-0.3-1-0.5c-1.3-0.7-1.9-1.7-1.9-2.6l0,8.6c0,1,0.6,1.9,1.9,2.6c0.3,0.2,0.6,0.3,0.9,0.4c0,0,0,0,0.1,0
							c0.1,0,0.1,0,0.2,0.1c0.2,0.1,0.4,0.1,0.6,0.2c0.1,0,0.2,0.1,0.3,0.1c0.1,0,0.1,0,0.2,0c0.1,0,0.1,0,0.2,0
							c0.2,0,0.4,0.1,0.6,0.1c0.1,0,0.2,0,0.2,0c0.1,0,0.1,0,0.2,0c0.1,0,0.2,0,0.2,0c0.2,0,0.4,0,0.6,0c0.1,0,0.1,0,0.2,0
							c0.1,0,0.1,0,0.2,0c0.1,0,0.2,0,0.3,0c0.2,0,0.5,0,0.7,0c0,0,0.1,0,0.1,0c0.1,0,0.1,0,0.2,0c0.2,0,0.4,0,0.5-0.1
							c0.1,0,0.2,0,0.2-0.1c0.2,0,0.4-0.1,0.6-0.2c0.1,0,0.2,0,0.3-0.1c0.1,0,0.2-0.1,0.3-0.1c0.1,0,0.2-0.1,0.2-0.1
							c0.3-0.1,0.6-0.3,0.9-0.4c0,0,0.1,0,0.1,0c0.1,0,0.1-0.1,0.2-0.1c0.1-0.1,0.2-0.1,0.2-0.2c0.1,0,0.1-0.1,0.2-0.1
							c0.1-0.1,0.1-0.1,0.2-0.2c0,0,0,0,0,0c0,0,0,0,0.1-0.1c0.1-0.1,0.2-0.2,0.3-0.3c0,0,0,0,0.1-0.1s0,0,0-0.1
							c0.1-0.1,0.1-0.1,0.1-0.2c0,0,0-0.1,0.1-0.1c0,0,0,0,0,0c0-0.1,0.1-0.1,0.1-0.2c0,0,0-0.1,0.1-0.1c0,0,0,0,0,0
							c0-0.1,0-0.1,0.1-0.2c0,0,0-0.1,0-0.1c0,0,0,0,0,0c0-0.1,0-0.1,0-0.2c0,0,0-0.1,0-0.1c0,0,0,0,0-0.1l0-8.6
							C136.1,223.6,136.1,223.7,136.1,223.8z"/>
						<g>
							<g>
								<path class="st56" d="M134.2,220.9c2.5,1.4,2.5,3.8,0,5.2c-2.5,1.4-6.5,1.4-9,0c-2.5-1.4-2.5-3.8,0-5.2
									C127.7,219.5,131.7,219.5,134.2,220.9z"/>
							</g>
						</g>
					</g>
				</g>
				<g>
					<g class="st0">
						
							<linearGradient id="SVGID_48_" gradientUnits="userSpaceOnUse" x1="80.582" y1="56.3662" x2="154.9979" y2="56.3662" gradientTransform="matrix(1 0 0 -1 0 240)">
							<stop  offset="0" style="stop-color:#6A67EA"/>
							<stop  offset="1" style="stop-color:#342B94"/>
						</linearGradient>
						<path class="st57" d="M154.9,171C154.9,171,154.9,171.1,154.9,171c-0.1,0.2-0.2,0.4-0.3,0.6c0,0,0,0.1-0.1,0.1
							c-0.1,0.2-0.3,0.3-0.4,0.5c-0.1,0.1-0.3,0.2-0.4,0.3c-0.1,0.1-0.2,0.2-0.3,0.2L121.9,191c-0.2,0.1-0.5,0.3-0.8,0.4
							c-0.1,0-0.1,0.1-0.2,0.1c-0.2,0.1-0.4,0.1-0.5,0.2c-0.2,0.1-0.4,0.1-0.6,0.1c-0.2,0-0.5,0.1-0.7,0.1c-0.1,0-0.1,0-0.2,0
							c-0.3,0-0.6,0-0.9,0.1c-0.1,0-0.1,0-0.2,0c-0.3,0-0.6,0-0.9-0.1c0,0-0.1,0-0.1,0c-0.3,0-0.6-0.1-0.9-0.2c-0.1,0-0.1,0-0.2,0
							c-0.3-0.1-0.5-0.1-0.8-0.2c0,0-0.1,0-0.1,0c-0.3-0.1-0.6-0.3-0.9-0.4l-31.7-18.3c-1.1-0.6-1.7-1.5-1.7-2.3l0,4.9
							c0,0.8,0.6,1.7,1.7,2.3l31.7,18.3c0.3,0.1,0.5,0.3,0.8,0.4c0,0,0,0,0,0c0,0,0.1,0,0.1,0c0.2,0.1,0.3,0.1,0.5,0.2
							c0.1,0,0.2,0,0.3,0.1c0.1,0,0.1,0,0.2,0c0,0,0.1,0,0.1,0c0.2,0,0.4,0.1,0.6,0.1c0.1,0,0.1,0,0.2,0c0,0,0.1,0,0.1,0
							c0.1,0,0.1,0,0.2,0c0.2,0,0.4,0,0.6,0c0.1,0,0.1,0,0.2,0c0.1,0,0.1,0,0.2,0c0.1,0,0.2,0,0.3,0c0.2,0,0.4,0,0.6,0
							c0,0,0,0,0.1,0c0.1,0,0.1,0,0.2,0c0.2,0,0.3,0,0.5-0.1c0.1,0,0.1,0,0.2-0.1c0.2,0,0.4-0.1,0.6-0.1c0.1,0,0.2,0,0.3-0.1
							c0.1,0,0.2-0.1,0.2-0.1c0.1,0,0.1-0.1,0.2-0.1c0.3-0.1,0.5-0.2,0.8-0.4l31.5-18.3c0,0,0,0,0.1,0c0.1-0.1,0.2-0.1,0.3-0.2
							c0.1-0.1,0.3-0.2,0.4-0.3c0,0,0,0,0,0c0.1-0.1,0.2-0.2,0.3-0.4c0,0,0-0.1,0.1-0.1c0,0,0-0.1,0.1-0.1c0-0.1,0.1-0.1,0.1-0.2
							c0.1-0.1,0.1-0.2,0.2-0.3c0,0,0,0,0,0c0,0,0,0,0-0.1c0-0.1,0-0.1,0.1-0.2c0-0.1,0-0.2,0-0.3c0,0,0,0,0,0l0-4.9
							C155,170.6,155,170.8,154.9,171z"/>
						<g>
							<g>
								
									<linearGradient id="SVGID_49_" gradientUnits="userSpaceOnUse" x1="120.0818" y1="39.8896" x2="117.8318" y2="69.1385" gradientTransform="matrix(1 0 0 -1 0 240)">
									<stop  offset="0" style="stop-color:#6AE5EA"/>
									<stop  offset="1" style="stop-color:#342B94"/>
								</linearGradient>
								<path class="st58" d="M153.3,168.1c2.2,1.3,2.2,3.3,0,4.6L121.9,191c-2.2,1.3-5.8,1.3-8,0l-31.7-18.3
									c-2.2-1.3-2.2-3.3,0-4.6l31.5-18.3c2.2-1.3,5.8-1.3,8,0L153.3,168.1z"/>
							</g>
						</g>
					</g>
					<g class="st0">
						
							<linearGradient id="SVGID_50_" gradientUnits="userSpaceOnUse" x1="80.582" y1="66.2552" x2="154.9979" y2="66.2552" gradientTransform="matrix(1 0 0 -1 0 240)">
							<stop  offset="0" style="stop-color:#8380FF"/>
							<stop  offset="0.9951" style="stop-color:#6AC5EA"/>
						</linearGradient>
						<path class="st59" d="M154.9,161.1C154.9,161.2,154.9,161.2,154.9,161.1c-0.1,0.2-0.2,0.4-0.3,0.6c0,0,0,0.1-0.1,0.1
							c-0.1,0.2-0.3,0.3-0.4,0.5c-0.1,0.1-0.3,0.2-0.4,0.3c-0.1,0.1-0.2,0.2-0.3,0.2l-31.5,18.3c-0.2,0.1-0.5,0.3-0.8,0.4
							c-0.1,0-0.1,0.1-0.2,0.1c-0.2,0.1-0.4,0.1-0.5,0.2c-0.2,0.1-0.4,0.1-0.6,0.1c-0.2,0-0.5,0.1-0.7,0.1c-0.1,0-0.1,0-0.2,0
							c-0.3,0-0.6,0-0.9,0.1c-0.1,0-0.1,0-0.2,0c-0.3,0-0.6,0-0.9-0.1c0,0-0.1,0-0.1,0c-0.3,0-0.6-0.1-0.9-0.2c-0.1,0-0.1,0-0.2,0
							c-0.3-0.1-0.5-0.1-0.8-0.2c0,0-0.1,0-0.1,0c-0.3-0.1-0.6-0.3-0.9-0.4l-31.7-18.3c-1.1-0.6-1.7-1.5-1.7-2.3l0,4.9
							c0,0.8,0.6,1.7,1.7,2.3l31.7,18.3c0.3,0.1,0.5,0.3,0.8,0.4c0,0,0,0,0,0c0,0,0.1,0,0.1,0c0.2,0.1,0.3,0.1,0.5,0.2
							c0.1,0,0.2,0,0.3,0.1c0.1,0,0.1,0,0.2,0c0,0,0.1,0,0.1,0c0.2,0,0.4,0.1,0.6,0.1c0.1,0,0.1,0,0.2,0c0,0,0.1,0,0.1,0
							c0.1,0,0.1,0,0.2,0c0.2,0,0.4,0,0.6,0c0.1,0,0.1,0,0.2,0c0.1,0,0.1,0,0.2,0c0.1,0,0.2,0,0.3,0c0.2,0,0.4,0,0.6,0
							c0,0,0,0,0.1,0c0.1,0,0.1,0,0.2,0c0.2,0,0.3,0,0.5-0.1c0.1,0,0.1,0,0.2,0c0.2,0,0.4-0.1,0.6-0.1c0.1,0,0.2,0,0.3-0.1
							c0.1,0,0.2-0.1,0.2-0.1c0.1,0,0.1-0.1,0.2-0.1c0.3-0.1,0.5-0.2,0.8-0.4l31.5-18.3c0,0,0,0,0.1,0c0.1-0.1,0.2-0.1,0.3-0.2
							c0.1-0.1,0.3-0.2,0.4-0.3c0,0,0,0,0,0c0.1-0.1,0.2-0.2,0.3-0.4c0,0,0-0.1,0.1-0.1c0,0,0-0.1,0.1-0.1c0-0.1,0.1-0.1,0.1-0.2
							c0.1-0.1,0.1-0.2,0.2-0.3c0,0,0,0,0-0.1c0,0,0,0,0-0.1c0-0.1,0-0.1,0.1-0.2c0-0.1,0-0.2,0-0.3c0,0,0,0,0,0l0-4.9
							C155,160.7,155,160.9,154.9,161.1z"/>
						<g>
							<g>
								
									<linearGradient id="SVGID_51_" gradientUnits="userSpaceOnUse" x1="43.2676" y1="78.0626" x2="136.2677" y2="79.8126" gradientTransform="matrix(1 0 0 -1 0 240)">
									<stop  offset="0" style="stop-color:#6AE5EA"/>
									<stop  offset="1" style="stop-color:#342B94"/>
								</linearGradient>
								<path class="st60" d="M153.3,158.2c2.2,1.3,2.2,3.3,0,4.6l-31.5,18.3c-2.2,1.3-5.8,1.3-8,0l-31.7-18.3
									c-2.2-1.3-2.2-3.3,0-4.6l31.5-18.3c2.2-1.3,5.8-1.3,8,0L153.3,158.2z"/>
							</g>
						</g>
					</g>
					<g>
						<path class="st61" d="M145.7,158.6l-24.6-14.2c-1.9-1.1-5-1.1-6.8,0l-24.5,14.2c-1.9,1.1-1.9,2.9,0,4l24.6,14.2
							c1.9,1.1,5,1.1,6.9,0l24.5-14.2C147.6,161.5,147.6,159.7,145.7,158.6"/>
						<path class="st62" d="M137.9,159.2L120.2,149c-1.4-0.8-3.6-0.8-4.9,0l-17.6,10.2c-1.4,0.8-1.4,2.1,0,2.9l17.7,10.2
							c1.4,0.8,3.6,0.8,4.9,0l17.6-10.2C139.3,161.3,139.3,160,137.9,159.2"/>
						<path class="st63" d="M129.2,159.8l-10.1-5.8c-0.8-0.4-2-0.4-2.8,0l-10,5.8c-0.8,0.4-0.8,1.2,0,1.6l10.1,5.8
							c0.8,0.4,2,0.4,2.8,0l10-5.8C130,161,130,160.3,129.2,159.8"/>
					</g>
				</g>
				<g>
					<g>
						<path class="st64" d="M111.5,159.2c0,0-0.6,1.6-0.5,3.3c0,0,1.4,2,4.2,0.3c2.7-1.6,6.5-2.2,7.2-3.4c0.6-1.2,0.3-1.5-1.9-1.4
							c-0.7,0.1-2.4,0.4-3.9,0.5C114.2,159.2,112.2,159.8,111.5,159.2z"/>
						<path class="st2" d="M111.5,158.8c0,0-0.6,1.6-0.5,3.3c0,0,1.4,2,4.2,0.3c2.7-1.6,6.5-2.2,7.2-3.4c0.6-1.2,0.3-1.5-1.9-1.4
							c-0.7,0.1-2.4,0.4-3.9,0.5C114.2,158.8,112.9,159,111.5,158.8z"/>
						
							<linearGradient id="SVGID_52_" gradientUnits="userSpaceOnUse" x1="110.775" y1="101.6865" x2="120.0006" y2="101.6865" gradientTransform="matrix(1 0 0 -1 0 240)">
							<stop  offset="0" style="stop-color:#342B94"/>
							<stop  offset="1" style="stop-color:#1F196F"/>
						</linearGradient>
						<path class="st65" d="M110.8,117.4c0,0,0,6.1,1.1,13.6c1,7.6-1.5,13.2-0.4,27.8c0,0,2.2,1.2,5-0.6c0,0,3.7-34,3.5-40.6
							L110.8,117.4z"/>
					</g>
					<g>
						<path class="st64" d="M117.3,161.8c0,0-0.6,1.6-0.5,3.3c0,0,1.4,2,4.2,0.3c2.7-1.6,6.5-2.2,7.2-3.4c0.6-1.2,0.3-1.5-1.9-1.4
							c-0.7,0.1-2.4,0.4-3.9,0.5C120,161.8,118,162.4,117.3,161.8z"/>
						<path class="st2" d="M117.3,161.4c0,0-0.6,1.6-0.5,3.3c0,0,1.4,2,4.2,0.3c2.7-1.6,6.5-2.2,7.2-3.4c0.6-1.2-0.1-1.7-2.2-1.5
							c-0.7,0.1-2,0.3-3.6,0.2C120,161,118.4,161.7,117.3,161.4z"/>
						
							<linearGradient id="SVGID_53_" gradientUnits="userSpaceOnUse" x1="115.957" y1="99.2605" x2="125.8116" y2="99.2605" gradientTransform="matrix(1 0 0 -1 0 240)">
							<stop  offset="0" style="stop-color:#342B94"/>
							<stop  offset="1" style="stop-color:#1F196F"/>
						</linearGradient>
						<path class="st66" d="M116,119.7c0,0,0.7,6.4,1.7,14s-1.4,13.3-0.3,27.9c0,0,2.7,1.1,5-0.7c0,0,3.7-34,3.5-40.6L116,119.7z"/>
					</g>
					<path class="st67" d="M129.8,108.5c2.5-0.9,7.3-5.6,9.3-6.3c1.2-0.4,2.6-0.7,3.9-1.5c0.8-0.5,1.3,0.9-1.2,1.9
						c0,0,0.3,2.3-1.5,2.8c-1.9,0.5-1.4,1-2.6,0.8l-6.9,6.4C130.8,112.5,127.1,110.8,129.8,108.5z"/>
					<path class="st68" d="M111.5,99.2c-0.3,6.5-0.6,18.3-0.8,23.3c0.6,1.6,3.2,3.2,6.9,2.6c2.7-0.4,4.7-1.5,8.6-2.3
						c0,0,2-24.7-0.2-26.4s-8.8-4.4-11.6-3.4C111.4,94.1,111.5,98.4,111.5,99.2z"/>
					<path class="st67" d="M123.9,82.3c0,0,3.5,9-2.2,10.3l0.1,2.3c0,0-2,0.5-3.4-0.4c-1.4-0.8-1.8-1.4-1.6-3.1s-0.1-9.8-0.1-9.8
						L123.9,82.3z"/>
					
						<linearGradient id="SVGID_54_" gradientUnits="userSpaceOnUse" x1="115.4449" y1="158.2141" x2="120.7779" y2="155.0477" gradientTransform="matrix(1 0 0 -1 0 240)">
						<stop  offset="0" style="stop-color:#F06C0F"/>
						<stop  offset="0.9901" style="stop-color:#C45A0F"/>
					</linearGradient>
					<path class="st69" d="M125,78.6c1.3,1.7,1.8,6.4-3.1,7c0,0,0.7,1.6-1,2.3c0,0-0.8-1.1-1.5-0.7c-1,0.5-0.1,2.3,1.5,2.2
						c0,0,0,3-4,2.1c0,0-0.5-1.8-1.4-2.9s-3.5-4.6-1.2-6.5c1.5-3,5.2-3.1,7.5-2.4S125.3,79,125,78.6z"/>
					<path class="st70" d="M125.4,96.4c2.4-0.1,5.7,12.1,6.1,14.3s-2.4,3.4-4.6-0.8c-1.5-2.9-4.4-8.3-4.1-11.3
						C123,97.3,124.1,96.4,125.4,96.4z"/>
				</g>
				<g>
					<g>
						<g class="st0">
							<g>
								<path class="st43" d="M196,29.1l0,2.4c0.7,0.2,1.1,0,1.1-0.6C197.1,30.3,196.7,29.7,196,29.1 M194.6,22.8
									c-0.8-0.3-1.1,0.1-1.1,0.6c0,0.6,0.4,1.2,1.1,1.8L194.6,22.8 M194.5,30.6l0-2.9c-1.7-1.4-3.5-3.1-3.5-5.6
									c0-1.8,1.2-2.7,3.5-1.7l0-1.9l1.5,0.9l0,1.9c1.1,0.8,2.2,1.7,3,2.8l-0.8,1.7c-0.8-0.9-1.5-1.7-2.3-2.2l0,2.9
									c1.7,1.4,3.5,3.1,3.5,5.5c0,1.8-1.1,2.7-3.5,1.6l0,1.9l-1.5-0.9l0-1.9c-1.5-1-2.9-2.3-3.7-3.5l0.8-1.6
									C192.4,28.8,193.5,29.9,194.5,30.6 M195.2,13.7c-0.1,0-0.1-0.1-0.2-0.1c-6-3.4-11-0.8-11.4,5.8c-0.3,5.6,2.6,12.4,6.8,17
									c1.4,1.5,2.5,3.4,3.3,5.3l1.8,4.6l2.3-3.1c0.6-0.9,1.6-1.3,2.7-1.3c3.7-0.1,6.2-3.1,6.2-8.2
									C206.8,26.4,201.6,17.4,195.2,13.7"/>
								<path class="st36" d="M196,31.4l0-2.4c0.6,0.6,1.1,1.2,1.1,1.8C197.1,31.4,196.8,31.7,196,31.4 M194.6,25.3
									c-0.7-0.6-1.1-1.2-1.1-1.8c0-0.6,0.3-0.9,1.1-0.6L194.6,25.3 M196.1,19.5l-1.5-0.9l0,1.9c-2.4-1.1-3.5-0.2-3.5,1.7
									c0,2.5,1.8,4.2,3.5,5.6l0,2.9c-1.1-0.7-2.2-1.8-2.9-2.9l-0.8,1.6c0.8,1.2,2.2,2.6,3.7,3.5l0,1.9l1.5,0.9l0-1.9
									c2.3,1,3.5,0.1,3.5-1.6c0-2.4-1.8-4.1-3.5-5.5l0-2.9c0.7,0.5,1.5,1.3,2.3,2.2l0.8-1.7c-0.8-1.1-1.9-2.1-3-2.8L196.1,19.5"/>
							</g>
						</g>
					</g>
				</g>
			</g>
		</g>
	</g>
</g>
</svg>
