<?xml version="1.0" encoding="utf-8"?>
<!-- Generator: Adobe Illustrator 23.0.1, SVG Export Plug-In . SVG Version: 6.00 Build 0)  -->
<svg version="1.1" xmlns="http://www.w3.org/2000/svg" xmlns:xlink="http://www.w3.org/1999/xlink" x="0px" y="0px"
	 viewBox="0 0 142 35" style="enable-background:new 0 0 142 35;" xml:space="preserve">
<style type="text/css">
	.st0{display:none;}
	.st1{display:inline;fill:#05354C;}
	.st2{fill:url(#XMLID_13_);}
	.st3{fill:url(#XMLID_27_);}
	.st4{fill:url(#XMLID_28_);}
	.st5{fill:url(#XMLID_29_);}
	.st6{fill:url(#XMLID_30_);}
	.st7{fill:#F08222;}
	.st8{fill:url(#XMLID_31_);}
	.st9{fill:url(#XMLID_32_);}
	.st10{fill:url(#XMLID_33_);}
</style>
<g id="Layer_3" class="st0">
	<rect id="XMLID_4_" class="st1" width="142" height="35"/>
</g>
<g id="Layer_1">
	<g id="XMLID_3_">
		<g id="XMLID_14_">
			<g id="XMLID_15_">
				<path id="XMLID_26_" d="M32.5,9.9c0,0,1.7-5.3-3.7-6.9c-2.6-0.8-5.6-0.2-7.9,1.1c-3.8,2.1-4.4,6.3-5.3,10.2
					c-0.1,0.6-2.1,8-1.4,8.2c0,0,3.4,1,7.7-1.4c4.2-2.3,5.2-6.9,5.2-8c0,0,3.6,0.2,4.4-3.2L32.5,9.9z"/>
				<linearGradient id="XMLID_13_" gradientUnits="userSpaceOnUse" x1="27.268" y1="8.0103" x2="31.1397" y2="5.775">
					<stop  offset="0" style="stop-color:#F08222"/>
					<stop  offset="0.2251" style="stop-color:#F18521"/>
					<stop  offset="0.489" style="stop-color:#F38F20"/>
					<stop  offset="0.7711" style="stop-color:#F7A01C"/>
					<stop  offset="1" style="stop-color:#FCB216"/>
				</linearGradient>
				<path id="XMLID_25_" class="st2" d="M28.1,4l-0.6,4.4l4.3,0.5C31.8,8.9,32.2,4.3,28.1,4"/>
				<linearGradient id="XMLID_27_" gradientUnits="userSpaceOnUse" x1="27.0848" y1="9.7242" x2="29.7001" y2="11.2341">
					<stop  offset="0" style="stop-color:#F08222"/>
					<stop  offset="0.2169" style="stop-color:#F18721"/>
					<stop  offset="0.5342" style="stop-color:#F4941F"/>
					<stop  offset="0.9117" style="stop-color:#FAAC19"/>
					<stop  offset="1" style="stop-color:#FCB216"/>
				</linearGradient>
				<path id="XMLID_24_" class="st3" d="M30.7,9.3L27.5,9L27,12.2C27,12.2,29.6,12.7,30.7,9.3"/>
				<linearGradient id="XMLID_28_" gradientUnits="userSpaceOnUse" x1="21.3795" y1="3.7065" x2="21.3795" y2="21.7057">
					<stop  offset="3.776663e-02" style="stop-color:#4471B6"/>
					<stop  offset="0.309" style="stop-color:#3D88C3"/>
					<stop  offset="0.6502" style="stop-color:#2BAAD6"/>
					<stop  offset="0.7841" style="stop-color:#3FB6E1"/>
					<stop  offset="1" style="stop-color:#53C8F3"/>
				</linearGradient>
				<path id="XMLID_23_" class="st4" d="M27.6,3.7L26,13.5c0,0-1.1,6.2-6.8,7.8c0,0-2,0.5-4.1,0.5l2.6-11.2c0,0,1.3-6.8,7.7-6.8
					C28.1,3.7,27.6,3.7,27.6,3.7"/>
				<path id="XMLID_22_" d="M25.2,7.2c0,0.5-0.4,0.8-0.8,0.8c-0.5,0-0.8-0.4-0.8-0.8c0-0.5,0.4-0.8,0.8-0.8
					C24.8,6.3,25.2,6.7,25.2,7.2"/>
				<path id="XMLID_21_" d="M19.6,3.9c-0.1-0.2,0-0.5-0.1-0.7c-0.2-0.3-0.6-0.4-0.9-0.1c-0.3,0.2-0.3,0.6,0,0.9
					c0.1,0.1,0.4,0.2,0.6,0.3c0.4,0.2,0.5,0.5,0.7,0.9l0.4-0.3C20.2,4.7,19.6,3.9,19.6,3.9"/>
				<path id="XMLID_20_" d="M20.7,3.1c-0.1-0.2,0.1-0.5,0-0.7c-0.1-0.3-0.5-0.5-0.8-0.3c-0.3,0.1-0.4,0.6-0.2,0.8
					c0.1,0.2,0.3,0.3,0.5,0.4c0.3,0.2,0.4,0.6,0.5,1L21.1,4C21.1,4,20.7,3.1,20.7,3.1"/>
				<polygon id="XMLID_19_" points="20,21.5 20.7,23.9 19.5,25.5 20.5,25.4 21.6,25.1 24.5,25.3 24.6,23.7 22.5,23.3 21.3,20.7 				
					"/>
				<linearGradient id="XMLID_29_" gradientUnits="userSpaceOnUse" x1="20.4199" y1="24.285" x2="23.043" y2="22.7706">
					<stop  offset="0" style="stop-color:#F08222"/>
					<stop  offset="0.2251" style="stop-color:#F18521"/>
					<stop  offset="0.489" style="stop-color:#F38F20"/>
					<stop  offset="0.7711" style="stop-color:#F7A01C"/>
					<stop  offset="1" style="stop-color:#FCB216"/>
				</linearGradient>
				<polygon id="XMLID_18_" class="st5" points="21,21.5 20.6,22.5 21.2,23.8 20.8,24.9 21.5,24.6 23.8,24.8 23.8,24.1 22.1,23.9 
									"/>
				<path id="XMLID_17_" d="M24.2,13.8c-0.8,1.2-1.5,2.4-2.4,3.6c-0.8,1.1-1.9,2.1-3.3,2.4c-0.7,0.2-1.2-0.1-1-0.9
					c0.3-1.7,0.9-3.5,1.6-5.1"/>
				<linearGradient id="XMLID_30_" gradientUnits="userSpaceOnUse" x1="20.5825" y1="14.5188" x2="20.5825" y2="18.65">
					<stop  offset="0" style="stop-color:#53C8F3"/>
					<stop  offset="0.3711" style="stop-color:#2BAAD6"/>
					<stop  offset="0.568" style="stop-color:#3894CA"/>
					<stop  offset="0.8582" style="stop-color:#4277B9"/>
					<stop  offset="1" style="stop-color:#456CB4"/>
				</linearGradient>
				<path id="XMLID_16_" class="st6" d="M22.8,14.5c-0.5,0.7-1.2,1.9-1.7,2.6c-0.5,0.7-1.2,1.3-2.1,1.5c-0.4,0.1-0.7-0.1-0.6-0.5
					c0.2-1.1,0.7-2.5,1.2-3.6"/>
			</g>
		</g>
		<g>
			<path class="st7" d="M54.4,24c-1.3,0-2.4-0.2-3.3-0.6c-0.9-0.4-1.7-0.9-2.3-1.6c-0.6-0.7-1-1.5-1.3-2.4c-0.3-0.9-0.4-2-0.4-3V4.1
				h2.7v12c0,2,0.4,3.4,1.3,4.3c0.9,0.9,2,1.3,3.4,1.3c0.7,0,1.3-0.1,1.9-0.3c0.6-0.2,1.1-0.5,1.5-1s0.7-1,1-1.7
				c0.2-0.7,0.3-1.5,0.3-2.5v-12h2.7v12.3c0,1.1-0.1,2.1-0.4,3c-0.3,0.9-0.7,1.8-1.4,2.4c-0.6,0.7-1.4,1.2-2.3,1.6S55.7,24,54.4,24z
				"/>
			<path class="st7" d="M71.7,3.9c2.7,0,4.9,0.5,6.3,1.6c1.5,1,2.2,2.6,2.2,4.7c0,1.1-0.2,2.1-0.6,2.9c-0.4,0.8-1,1.4-1.7,1.9
				c-0.8,0.5-1.7,0.9-2.8,1.1s-2.3,0.3-3.7,0.3h-2.2v7.2h-2.7V4.3C67.3,4.2,68.2,4,69.1,4C70.1,3.9,70.9,3.9,71.7,3.9z M72,6.3
				c-1.2,0-2.1,0-2.7,0.1V14h2.1c0.9,0,1.8-0.1,2.5-0.2c0.8-0.1,1.4-0.3,1.9-0.6c0.5-0.3,0.9-0.7,1.2-1.2c0.3-0.5,0.4-1.2,0.4-1.9
				c0-0.8-0.1-1.4-0.4-1.9S76.3,7.3,75.8,7c-0.5-0.3-1.1-0.5-1.7-0.6C73.4,6.3,72.7,6.3,72,6.3z"/>
		</g>
		<g id="XMLID_5_">
			<linearGradient id="XMLID_31_" gradientUnits="userSpaceOnUse" x1="82.4526" y1="18.7841" x2="99.4352" y2="8.9791">
				<stop  offset="3.776663e-02" style="stop-color:#4471B6"/>
				<stop  offset="0.309" style="stop-color:#3D88C3"/>
				<stop  offset="0.6502" style="stop-color:#2BAAD6"/>
				<stop  offset="0.7841" style="stop-color:#3FB6E1"/>
				<stop  offset="1" style="stop-color:#53C8F3"/>
			</linearGradient>
			<path id="XMLID_11_" class="st8" d="M97,7.7C95.6,5.4,93.3,5,91,5c-2.3,0-6,0.8-6,4c0,2.5,2.7,3.1,6,3.7c3.8,0.7,7.8,1.4,7.8,5.7
				c0,4.5-4.5,5.5-7.8,5.5c-3.1,0-6.6-1.3-8.1-4.3l1.4-0.7c1.2,2.4,4.3,3.6,6.7,3.6s6.3-0.7,6.3-4.2c0-3-3.2-3.6-6.5-4.2
				c-3.6-0.7-7.3-1.4-7.3-5.1c-0.1-4.2,4.3-5.5,7.5-5.5c2.8,0,5.3,0.5,7.2,3.4L97,7.7z"/>
			<linearGradient id="XMLID_32_" gradientUnits="userSpaceOnUse" x1="99.5341" y1="19.2203" x2="118.2908" y2="8.3912">
				<stop  offset="3.776663e-02" style="stop-color:#4471B6"/>
				<stop  offset="0.309" style="stop-color:#3D88C3"/>
				<stop  offset="0.6502" style="stop-color:#2BAAD6"/>
				<stop  offset="0.7841" style="stop-color:#3FB6E1"/>
				<stop  offset="1" style="stop-color:#53C8F3"/>
			</linearGradient>
			<path id="XMLID_9_" class="st9" d="M103.6,13h11.6v1.4h-11.6v7.8H116v1.5h-14V3.9h13.6v1.4h-12.1V13z"/>
			<linearGradient id="XMLID_33_" gradientUnits="userSpaceOnUse" x1="119.6788" y1="18.8056" x2="137.2999" y2="8.6321">
				<stop  offset="3.776663e-02" style="stop-color:#4471B6"/>
				<stop  offset="0.309" style="stop-color:#3D88C3"/>
				<stop  offset="0.6502" style="stop-color:#2BAAD6"/>
				<stop  offset="0.7841" style="stop-color:#3FB6E1"/>
				<stop  offset="1" style="stop-color:#53C8F3"/>
			</linearGradient>
			<path id="XMLID_6_" class="st10" d="M138.4,13.8c0,5.2-3.3,10.2-10,10.2c-6.6,0-10-5-10-10.2c0-5.3,3.3-10.1,10-10.1
				C135.1,3.6,138.5,8.4,138.4,13.8z M120,13.7c0,4.5,2.8,8.8,8.5,8.8c5.6,0,8.5-4.3,8.5-8.8c0-4.6-2.8-8.8-8.5-8.8
				C122.8,5,120,9.1,120,13.7z"/>
		</g>
	</g>
	<polygon id="XMLID_2_" points="5.8,35 5.8,34.6 8,30.8 16.8,30.8 19.7,24.9 28.7,24.9 32.8,19.3 41.7,19.3 44,16.3 44.2,16.6 
		41.7,19.9 33,19.8 28.8,25.5 19.9,25.4 17,31.3 8,31.3 	"/>
</g>
<g id="Layer_2" class="st0">
</g>
</svg>
