<?xml version="1.0" encoding="utf-8"?>
<!-- Generator: Adobe Illustrator 21.1.0, SVG Export Plug-In . SVG Version: 6.00 Build 0)  -->
<svg version="1.1" id="Layer_1" xmlns="http://www.w3.org/2000/svg" xmlns:xlink="http://www.w3.org/1999/xlink" x="0px" y="0px"
	 viewBox="0 0 510 412.7" style="enable-background:new 0 0 510 412.7;" xml:space="preserve">
<style type="text/css">
	.st0{fill:#202C3A;}
	.st1{fill:#979797;}
	.st2{fill:#6196CF;}
	.st3{fill:#8449B6;}
	.st4{fill:#ACACAC;}
	.st5{fill:#AF5920;}
	.st6{fill:#E07099;}
	.st7{fill:#8DC1FC;}
	.st8{fill:#E1782B;}
	.st9{fill:#CB5184;}
	.st10{fill:#B6446D;}
	.st11{fill:#A762E3;}
	.st12{fill:#FFFFFF;}
	.st13{font-family:'ArialMT';}
	.st14{font-size:18px;}
	.st15{font-size:14px;}
	.st16{font-size:18.0426px;}
	.st17{fill:#932F58;}
	.st18{fill:#B73B74;}
	.st19{fill:none;stroke:#FFFFFF;stroke-width:1.0699;stroke-linecap:round;stroke-miterlimit:10;}
	.st20{fill:#7641AA;}
	.st21{fill:#8D5BC9;}
	.st22{fill:#386E9E;}
	.st23{fill:#CE5300;}
	.st24{fill:#9E4407;}
	.st25{fill:#A34D1D;}
	.st26{display:none;}
	.st27{display:inline;}
	.st28{fill:#A5B7C6;}
</style>
<g id="BACKGROUND">
</g>
<g id="OBJECTS">
	<g>
		<path class="st0" d="M394.6,229.1L394.6,229.1c-33.4-19.3-74.6-19.3-108,0l-24,13.8l-1.9,1.1c-14.9,8.6-33.3,8.6-48.2,0
			c-11.8-6.8-12.3-23.2-1.7-31c0.6-0.4,1.1-0.8,1.7-1.2l24.1-13.9c23.1-13.3,23.1-46.7,0-60l0,0c-32.2-18.6-71.8-18.6-103.9,0
			l-77.9,45l26,15l76.5-44.2c0.5-0.3,1-0.5,1.5-0.8c16.7-9,36.9-8.7,53.3,0.8c10.9,6.3,10.9,22.1,0,28.4l-27.4,15.8l0,0
			c-23.1,13.3-23.1,46.6,0,60v0c32.2,18.6,71.8,18.6,103.9,0c0,0,0,0,0,0l26.1-15.1c16-9.2,35.7-9.2,51.6,0
			c11.6,6.7,11.6,23.3,0.1,30.1c-0.1,0,26,15,26,15l2-1.2C416.8,273.9,416.8,241.9,394.6,229.1z"/>
		<path class="st1" d="M158.9,143.1l-26-15l-77.9,45l26,15l76.5-44.2C157.9,143.6,158.4,143.4,158.9,143.1z"/>
		<path class="st2" d="M212.2,172.2l-27.4,15.8l26.1,15.1c0.6-0.4,1.1-0.8,1.7-1.2l24.1-13.9c23.1-13.3,23.1-46.7,0-60l0,0
			c-32.1-18.6-71.8-18.6-103.9,0l26,15c16.7-9,36.9-8.7,53.3,0.8C223.1,150.2,223.1,165.9,212.2,172.2z"/>
		<path class="st3" d="M288.7,248l-26-15l-1.9,1.1c-14.9,8.6-33.3,8.6-48.2,0c-11.8-6.8-12.3-23.2-1.7-31l-26.1-15.1l0,0
			c-23.1,13.3-23.1,46.6,0,60l0,0C216.9,266.6,256.5,266.6,288.7,248z"/>
		<polygon class="st3" points="210.9,203.1 210.9,199.1 204.3,201.5 208.6,203.6 		"/>
		<path class="st4" d="M340.6,248"/>
		<path class="st5" d="M288.7,248l26.1-15.1c16-9.2,35.7-9.2,51.6,0c11.6,6.7,11.6,23.3,0.1,30.1l26,15l2-1.2
			c22.2-12.8,22.2-44.8,0-57.7l0,0c-33.4-19.3-74.6-19.3-108,0l-24,13.8L288.7,248C288.7,248,288.7,248,288.7,248z"/>
		<path class="st6" d="M158.9,139l-26-15l-77.9,45l26,15l76.5-44.2C157.9,139.6,158.4,139.3,158.9,139z"/>
		<path class="st7" d="M212.2,168.2L184.8,184l26.1,15.1c0.6-0.4,1.1-0.8,1.7-1.2l24.1-13.9c23.1-13.3,23.1-46.7,0-60l0,0
			c-32.1-18.6-71.8-18.6-103.9,0l26,15c16.7-9,36.9-8.7,53.3,0.8C223.1,146.1,223.1,161.9,212.2,168.2z"/>
		<path class="st4" d="M340.6,244"/>
		<path class="st8" d="M288.7,244l26.1-15.1c16-9.2,35.7-9.2,51.6,0c11.6,6.7,11.6,23.3,0.1,30.1l26,15l2-1.2
			c22.2-12.8,22.2-44.8,0-57.7l0,0c-33.4-19.3-74.6-19.3-108,0l-24,13.8L288.7,244C288.7,244,288.7,244,288.7,244z"/>
		<polygon class="st9" points="158.9,139 158.9,143.1 80.9,188.1 80.9,184 		"/>
		<polygon class="st10" points="54.9,169 54.9,173.1 80.9,188.1 80.9,184 		"/>
		<polygon class="st3" points="280.3,249.2 279.5,244 288.7,244 288.7,248 		"/>
		<path class="st11" d="M288.7,244l-26-15l-1.9,1.1c-14.9,8.6-33.3,8.6-48.2,0c-11.8-6.8-12.3-23.2-1.7-31L184.8,184l0,0
			c-23.1,13.3-23.1,46.6,0,60v0C216.9,262.5,256.5,262.5,288.7,244z"/>
		<text transform="matrix(0.8606 -0.4971 0 1 28.1952 137.4973)" class="st12 st13 st14">1.</text>
		<text transform="matrix(0.8606 -0.4971 0 1 38.3258 131.6456)" class="st6 st13 st15"> Choose the package </text>
		<text transform="matrix(0.8606 -0.4971 0 1 33.4626 156.1061)" class="st6 st13 st15">that suits your need</text>
		<text transform="matrix(0.8606 -0.4971 0 1 160.307 82.8382)" class="st6 st13 st16">  </text>
		<g>
			<text transform="matrix(0.8606 -0.4971 0 1 182.5233 90.7575)" class="st7 st13 st15">       </text>
			<text transform="matrix(0.8606 -0.4971 0 1 206.3912 76.971)" class="st12 st13 st15"> </text>
			<text transform="matrix(0.8606 -0.4971 0 1 209.8008 75.0015)" class="st12 st13 st14">2.</text>
			<text transform="matrix(0.8606 -0.4971 0 1 222.9985 67.3782)" class="st7 st13 st15"> Get your custom</text>
			<text transform="matrix(0.8606 -0.4971 0 1 213.1833 89.8475)" class="st7 st13 st15">form by email</text>
		</g>
		<g>
			<text transform="matrix(0.8606 -0.4971 0 1 331.4209 180.1458)" class="st12 st13 st14">4.</text>
			<text transform="matrix(0.8606 -0.4971 0 1 346.1534 171.638)" class="st8 st13 st15"> Done ! We will start</text>
			<text transform="matrix(0.8606 -0.4971 0 1 364.5467 177.8125)" class="st8 st13 st15">ranking you</text>
		</g>
		<g>
			<text transform="matrix(0.8606 -0.4971 0 1 70.9409 305.703)" class="st12 st13 st14">3.</text>
			<text transform="matrix(0.8606 -0.4971 0 1 84.1699 298.0606)" class="st11 st13 st15"> Fill the form</text>
		</g>
		<g>
			<text transform="matrix(0.8606 -0.4971 0 1 219.156 358.5568)" class="st12 st13 st16">Our expert team</text>
			<text transform="matrix(0.8606 -0.4971 0 1 225.8255 376.3547)" class="st12 st13 st16"> will handle all </text>
			<text transform="matrix(0.8606 -0.4971 0 1 208.0233 408.2899)" class="st12 st13 st16">the SEO job for you</text>
		</g>
		<g>
			<polygon class="st9" points="81.3,141.7 91,141.7 81.3,153 			"/>
			<g>
				<path class="st17" d="M81.4,180c3.3-0.1,6-1.8,6-4l0-1.2l-12.1,0.3l0,1.1C75.3,178.4,78,180,81.4,180z"/>
				
					<ellipse transform="matrix(0.9999 -1.609952e-02 1.609952e-02 0.9999 -2.807 1.332)" class="st18" cx="81.3" cy="175" rx="6.1" ry="3.9"/>
			</g>
			<line class="st19" x1="81.3" y1="174.9" x2="81.3" y2="141.2"/>
		</g>
		<g>
			<polygon class="st20" points="191.6,202.1 201.3,202.1 191.6,213.3 			"/>
			<g>
				<path class="st20" d="M191.7,240.4c3.3-0.1,6-1.8,6-4l0-1.2l-12.1,0.3l0,1.1C185.6,238.7,188.3,240.4,191.7,240.4z"/>
				
					<ellipse transform="matrix(0.9999 -1.609952e-02 1.609952e-02 0.9999 -3.7644 3.1154)" class="st21" cx="191.6" cy="235.4" rx="6.1" ry="3.9"/>
			</g>
			<line class="st19" x1="191.6" y1="235.2" x2="191.6" y2="201.6"/>
		</g>
		<g>
			<path class="st19" d="M311.1,272.9"/>
			<path class="st19" d="M311.1,306.6"/>
		</g>
		<g>
			<polygon class="st7" points="229.4,95.3 239.1,95.3 229.4,106.5 			"/>
			<g>
				<path class="st22" d="M229.5,133.5c3.3-0.1,6-1.8,6-4l0-1.2l-12.1,0.3l0,1.1C223.4,131.9,226.1,133.6,229.5,133.5z"/>
				
					<ellipse transform="matrix(0.9999 -1.609952e-02 1.609952e-02 0.9999 -2.0399 3.7102)" class="st2" cx="229.4" cy="128.6" rx="6.1" ry="3.9"/>
			</g>
			<line class="st19" x1="229.4" y1="128.4" x2="229.4" y2="94.7"/>
		</g>
		<g>
			<polygon class="st23" points="381,182.5 390.7,182.5 381,193.7 			"/>
			<g>
				<path class="st24" d="M381.1,220.8c3.3-0.1,6-1.8,6-4l0-1.2l-12.1,0.3l0,1.1C375,219.1,377.7,220.8,381.1,220.8z"/>
				
					<ellipse transform="matrix(0.9999 -1.599955e-02 1.599955e-02 0.9999 -3.4036 6.1236)" class="st23" cx="381" cy="215.8" rx="6.1" ry="3.9"/>
			</g>
			<line class="st19" x1="381" y1="215.6" x2="381" y2="182"/>
		</g>
	</g>
	<polygon class="st25" points="366.6,259 366.6,263 392.6,278 392.6,274 	"/>
</g>
<g id="DESIGNED_BY_FREEPIK" class="st26">
	<g class="st27">
		<g id="XMLID_1_">
			<g id="XMLID_22_">
				<path id="XMLID_30_" class="st28" d="M255.1,417.5c-0.4,0.4-0.8,0.9-1.1,1.5l-0.5-0.2c-0.1-0.3-0.4-0.5-0.7-0.5
					c-0.3,0-0.6,0.3-0.5,0.7c0,0.3,0.3,0.6,0.7,0.5c0.1,0,0.1,0,0.2-0.1l0.5,0.2c-0.3,0.6-0.4,1.1-0.5,1.7l0.7,0.1
					c0.2-1.3,0.9-2.5,1.8-3.5L255.1,417.5z"/>
				<path id="XMLID_29_" class="st28" d="M260.6,415.2c-0.2,0-0.3,0-0.5,0l-0.1-0.6c0.2-0.1,0.3-0.4,0.3-0.6c0-0.4-0.4-0.7-0.8-0.6
					c-0.4,0-0.7,0.4-0.6,0.8c0,0.3,0.2,0.5,0.4,0.6l0.1,0.6c-0.7,0.1-1.4,0.3-2.1,0.6l0.3,0.7c0.9-0.4,1.9-0.7,3-0.7
					c0.5,0,1,0.1,1.5,0.2l0.2-0.7C261.7,415.2,261.1,415.2,260.6,415.2z"/>
				<path id="XMLID_28_" class="st28" d="M267.2,417.7c0.3,0,0.6-0.3,0.5-0.7c0-0.3-0.3-0.6-0.7-0.5c-0.3,0-0.5,0.3-0.5,0.6
					l-0.4,0.4c-0.4-0.4-0.9-0.8-1.4-1.1l-0.4,0.6c1.1,0.7,2,1.7,2.6,2.9l0.7-0.3c-0.3-0.6-0.6-1.1-0.9-1.5l0.4-0.4
					C267.1,417.7,267.1,417.7,267.2,417.7z"/>
				<path id="XMLID_27_" class="st28" d="M260,425.4c-0.4,0-0.8,0-1.2,0c-0.9,0-1.7-0.1-2.5-0.2c-0.4-0.1-0.8-0.2-1.3-0.3
					c1,1.9,3.1,3.1,5.4,3.1c2.9,0,5.3-1.9,5.9-4.5c-0.7,0.4-1.5,0.8-2.5,1.1C262.8,425,261.5,425.3,260,425.4z"/>
				<path id="XMLID_23_" class="st28" d="M260.6,416.7c-3.4,0-6.1,2.7-6.1,5.9c0,0.4,0,0.8,0.1,1.3c0.7,0.5,2.7,0.9,5.3,0.7
					c2.9-0.2,5.3-1,6.7-2.2c0-0.2,0-0.4,0-0.6C266.2,418.9,263.6,416.7,260.6,416.7z M258.4,423.2c-1,0-1.9-0.8-1.9-1.9
					c0-1,0.8-1.9,1.9-1.9s1.9,0.8,1.9,1.9C260.3,422.4,259.5,423.2,258.4,423.2z M263.2,422.3c-0.8,0-1.4-0.6-1.4-1.4
					s0.6-1.4,1.4-1.4s1.4,0.6,1.4,1.4S263.9,422.3,263.2,422.3z"/>
			</g>
			<path id="XMLID_20_" class="st28" d="M276.6,418.5c-0.3-0.1-0.8-0.3-1.4-0.2c-0.6,0.1-0.8,0.3-0.8,1v0.9h2.2v1.7h-2.2v5.5h-1.9
				v-5.5h-1.3v-1.7h1.3v-0.9c0-1.7,0.9-2.8,2.6-2.8c0.6,0,1.2,0.1,1.6,0.3L276.6,418.5L276.6,418.5z"/>
			<path id="XMLID_18_" class="st28" d="M281.3,421.9c-0.2,0-0.4,0-0.5,0c-0.9,0-1.5,0.5-1.5,1.6v3.9h-1.9v-7.2h1.9v0.8
				c0.5-0.7,1.1-1,2-1c0.4,0,0.8,0.1,1.1,0.3L281.3,421.9z"/>
			<path id="XMLID_15_" class="st28" d="M289,423.8c0,0.2,0,0.5,0,0.7h-5.1c0.2,1,0.9,1.5,1.8,1.5c0.6,0,1.3-0.3,1.8-0.7l1.1,1.2
				c-0.8,0.7-1.9,1.1-3.1,1.1c-2.2,0-3.7-1.5-3.7-3.8s1.5-3.8,3.6-3.8C287.5,420,289,421.5,289,423.8z M283.9,423.1h3.2
				c-0.2-0.9-0.7-1.4-1.6-1.4C284.6,421.7,284,422.2,283.9,423.1z"/>
			<path id="XMLID_12_" class="st28" d="M296.6,423.8c0,0.2,0,0.5,0,0.7h-5.1c0.2,1,0.9,1.5,1.8,1.5c0.6,0,1.3-0.3,1.8-0.7l1.1,1.2
				c-0.8,0.7-1.9,1.1-3.1,1.1c-2.2,0-3.7-1.5-3.7-3.8s1.5-3.8,3.6-3.8C295.2,420,296.6,421.5,296.6,423.8z M291.5,423.1h3.2
				c-0.2-0.9-0.7-1.4-1.6-1.4C292.2,421.7,291.7,422.2,291.5,423.1z"/>
			<path id="XMLID_9_" class="st28" d="M305,423.8c0,2.2-1.5,3.8-3.5,3.8c-1,0-1.6-0.4-2.1-0.9v3.7h-1.9v-10.1h1.9v0.8
				c0.5-0.6,1.2-1,2.1-1C303.5,420,305,421.6,305,423.8z M299.3,423.8c0,1.1,0.7,2,1.8,2c1.1,0,1.9-0.9,1.9-2c0-1.1-0.7-2-1.9-2
				C300,421.8,299.3,422.6,299.3,423.8z"/>
			<path id="XMLID_6_" class="st28" d="M308.1,417.8c0,0.7-0.5,1.2-1.2,1.2c-0.7,0-1.2-0.5-1.2-1.2c0-0.7,0.5-1.2,1.2-1.2
				C307.5,416.6,308.1,417.1,308.1,417.8z M307.8,427.4h-1.9v-7.2h1.9V427.4z"/>
			<path id="XMLID_2_" class="st28" d="M311,422.7l2.7-2.6h2.4l-3.5,3.4l3.5,3.8h-2.4l-2.7-2.9v2.9h-1.9v-10.7h1.9L311,422.7
				L311,422.7z"/>
		</g>
		<g>
			<path class="st28" d="M179.4,427.3v-1.1c-0.5,0.7-1.4,1.2-2.4,1.2c-1.8,0-3.1-1.4-3.1-3.7c0-2.3,1.3-3.7,3.1-3.7
				c1,0,1.8,0.5,2.4,1.2v-3.8h1.1v9.8L179.4,427.3L179.4,427.3z M179.4,425.4v-3.2c-0.4-0.6-1.2-1.1-2.1-1.1c-1.4,0-2.3,1.2-2.3,2.7
				s0.9,2.7,2.3,2.7C178.2,426.5,179,426,179.4,425.4z"/>
			<path class="st28" d="M181.9,423.7c0-2.1,1.5-3.7,3.5-3.7c2.1,0,3.4,1.7,3.4,3.8v0.3h-5.7c0.1,1.3,1,2.4,2.5,2.4
				c0.8,0,1.6-0.3,2.2-0.9l0.5,0.7c-0.7,0.7-1.7,1.1-2.8,1.1C183.4,427.5,181.9,426,181.9,423.7z M185.4,420.9
				c-1.5,0-2.3,1.3-2.3,2.4h4.6C187.7,422.2,187,420.9,185.4,420.9z"/>
			<path class="st28" d="M189.6,426.4l0.6-0.8c0.5,0.5,1.4,1,2.3,1c1.1,0,1.7-0.5,1.7-1.2c0-1.7-4.4-0.7-4.4-3.3c0-1.1,1-2,2.6-2
				c1.2,0,2.1,0.5,2.6,1l-0.5,0.8c-0.4-0.5-1.2-0.9-2.1-0.9c-1,0-1.6,0.5-1.6,1.1c0,1.6,4.4,0.5,4.4,3.3c0,1.2-1,2.1-2.8,2.1
				C191.3,427.5,190.3,427.1,189.6,426.4z"/>
			<path class="st28" d="M196.5,418.5c0-0.4,0.3-0.7,0.7-0.7c0.4,0,0.7,0.3,0.7,0.7s-0.3,0.7-0.7,0.7
				C196.8,419.2,196.5,418.9,196.5,418.5z M196.7,427.3v-7.1h1.1v7.1H196.7z"/>
			<path class="st28" d="M199.6,429.1l0.6-0.8c0.6,0.7,1.3,1,2.3,1c1.2,0,2.3-0.6,2.3-2.1v-1c-0.5,0.7-1.4,1.3-2.4,1.3
				c-1.8,0-3.1-1.4-3.1-3.7c0-2.3,1.3-3.7,3.1-3.7c1,0,1.8,0.5,2.4,1.2v-1.1h1.1v6.9c0,2.3-1.6,3.1-3.4,3.1
				C201.2,430.2,200.4,429.9,199.6,429.1z M204.7,425.3v-3.1c-0.4-0.6-1.2-1.1-2.1-1.1c-1.4,0-2.3,1.1-2.3,2.7
				c0,1.6,0.9,2.7,2.3,2.7C203.5,426.4,204.3,425.9,204.7,425.3z"/>
			<path class="st28" d="M212.4,427.3v-4.6c0-1.2-0.6-1.6-1.6-1.6c-0.9,0-1.7,0.5-2.1,1.1v5.2h-1.1v-7.1h1.1v1
				c0.5-0.6,1.5-1.2,2.5-1.2c1.5,0,2.3,0.7,2.3,2.3v5L212.4,427.3L212.4,427.3z"/>
			<path class="st28" d="M214.9,423.7c0-2.1,1.5-3.7,3.5-3.7c2.1,0,3.4,1.7,3.4,3.8v0.3h-5.7c0.1,1.3,1,2.4,2.5,2.4
				c0.8,0,1.6-0.3,2.2-0.9l0.5,0.7c-0.7,0.7-1.7,1.1-2.8,1.1C216.4,427.5,214.9,426,214.9,423.7z M218.4,420.9
				c-1.5,0-2.3,1.3-2.3,2.4h4.6C220.7,422.2,220,420.9,218.4,420.9z"/>
			<path class="st28" d="M228.4,427.3v-1.1c-0.5,0.7-1.4,1.2-2.4,1.2c-1.8,0-3.1-1.4-3.1-3.7c0-2.3,1.3-3.7,3.1-3.7
				c1,0,1.8,0.5,2.4,1.2v-3.8h1.1v9.8L228.4,427.3L228.4,427.3z M228.4,425.4v-3.2c-0.4-0.6-1.2-1.1-2.1-1.1c-1.4,0-2.3,1.2-2.3,2.7
				s0.8,2.7,2.3,2.7C227.1,426.5,228,426,228.4,425.4z"/>
			<path class="st28" d="M234.7,427.3v-9.8h1.1v3.8c0.6-0.8,1.4-1.2,2.4-1.2c1.8,0,3.1,1.5,3.1,3.7c0,2.3-1.3,3.7-3.1,3.7
				c-1,0-1.9-0.5-2.4-1.2v1.1L234.7,427.3L234.7,427.3z M237.9,426.5c1.4,0,2.3-1.2,2.3-2.7s-0.9-2.7-2.3-2.7
				c-0.9,0-1.7,0.5-2.1,1.1v3.2C236.2,426,237,426.5,237.9,426.5z"/>
			<path class="st28" d="M242.5,429.1c0.2,0.1,0.4,0.1,0.6,0.1c0.5,0,0.8-0.2,1.1-0.7l0.5-1.1l-3-7.1h1.2l2.4,5.8l2.3-5.8h1.2
				l-3.5,8.5c-0.4,1-1.1,1.4-2.1,1.4c-0.2,0-0.6,0-0.8-0.1L242.5,429.1z"/>
		</g>
	</g>
</g>
</svg>
